IBM Plex Mono-Thin Italic.ufo
<glyph name="exclam" format="1">
  <advance width="600"/>
  <unicode hex="0021"/>
  <outline>
    <contour>
      <point x="292" y="176" type="line" name="hr00"/>
      <point x="337" y="415" type="line"/>
      <point x="384" y="698" type="line"/>
      <point x="362" y="698" type="line"/>
      <point x="315" y="415" type="line"/>
      <point x="280" y="176" type="line"/>
    </contour>
    <contour>
      <point x="256" y="-5" type="curve" smooth="yes"/>
      <point x="277" y="-5"/>
      <point x="290" y="5"/>
      <point x="293" y="21" type="curve" smooth="yes"/>
      <point x="294" y="26"/>
      <point x="295" y="31"/>
      <point x="295" y="35" type="curve" smooth="yes"/>
      <point x="295" y="49"/>
      <point x="286" y="57"/>
      <point x="266" y="57" type="curve" smooth="yes"/>
      <point x="245" y="57"/>
      <point x="232" y="47"/>
      <point x="229" y="31" type="curve" smooth="yes"/>
      <point x="228" y="26"/>
      <point x="227" y="21"/>
      <point x="227" y="17" type="curve" smooth="yes"/>
      <point x="227" y="3"/>
      <point x="236" y="-5"/>
    </contour>
  </outline>
</glyph>
<glyph name="numbersign" format="1">
  <advance width="600"/>
  <unicode hex="0023"/>
  <outline>
    <contour>
      <point x="97" y="0" type="line" name="hr00"/>
      <point x="119" y="0" type="line"/>
      <point x="358" y="698" type="line"/>
      <point x="336" y="698" type="line"/>
      <point x="254" y="459" type="line"/>
      <point x="91" y="459" type="line"/>
      <point x="88" y="440" type="line"/>
      <point x="248" y="440" type="line"/>
      <point x="186" y="258" type="line"/>
      <point x="22" y="258" type="line"/>
      <point x="19" y="239" type="line"/>
      <point x="179" y="239" type="line"/>
    </contour>
    <contour>
      <point x="272" y="0" type="line"/>
      <point x="294" y="0" type="line"/>
      <point x="376" y="239" type="line"/>
      <point x="539" y="239" type="line"/>
      <point x="542" y="258" type="line"/>
      <point x="382" y="258" type="line"/>
      <point x="444" y="440" type="line"/>
      <point x="608" y="440" type="line"/>
      <point x="611" y="459" type="line"/>
      <point x="451" y="459" type="line"/>
      <point x="533" y="698" type="line"/>
      <point x="511" y="698" type="line"/>
    </contour>
  </outline>
</glyph>
<glyph name="dollar" format="1">
  <advance width="600"/>
  <unicode hex="0024"/>
  <outline>
    <contour>
      <point x="223" y="-113" type="line" name="hr00"/>
      <point x="243" y="-113" type="line"/>
      <point x="260" y="-12" type="line"/>
      <point x="265" y="-12"/>
      <point x="269" y="-12"/>
      <point x="274" y="-12" type="curve" smooth="yes"/>
      <point x="414" y="-12"/>
      <point x="506" y="61"/>
      <point x="506" y="196" type="curve" smooth="yes"/>
      <point x="506" y="281"/>
      <point x="458" y="335"/>
      <point x="358" y="358" type="curve" smooth="yes"/>
      <point x="323" y="366" type="line"/>
      <point x="377" y="689" type="line"/>
      <point x="465" y="685"/>
      <point x="513" y="659"/>
      <point x="547" y="601" type="curve"/>
      <point x="565" y="612" type="line"/>
      <point x="532" y="669"/>
      <point x="481" y="703"/>
      <point x="380" y="709" type="curve"/>
      <point x="397" y="811" type="line"/>
      <point x="377" y="811" type="line"/>
      <point x="360" y="710" type="line"/>
      <point x="355" y="710"/>
      <point x="350" y="710"/>
      <point x="345" y="710" type="curve" smooth="yes"/>
      <point x="214" y="710"/>
      <point x="122" y="645"/>
      <point x="122" y="519" type="curve" smooth="yes"/>
      <point x="122" y="434"/>
      <point x="167" y="381"/>
      <point x="266" y="358" type="curve" smooth="yes"/>
      <point x="300" y="350" type="line"/>
      <point x="243" y="9" type="line"/>
      <point x="142" y="15"/>
      <point x="92" y="54"/>
      <point x="54" y="114" type="curve"/>
      <point x="37" y="101" type="line"/>
      <point x="76" y="39"/>
      <point x="133" y="-4"/>
      <point x="240" y="-11" type="curve"/>
    </contour>
    <contour>
      <point x="144" y="519" type="curve" smooth="yes"/>
      <point x="144" y="632"/>
      <point x="222" y="690"/>
      <point x="344" y="690" type="curve" smooth="yes"/>
      <point x="348" y="690"/>
      <point x="352" y="690"/>
      <point x="357" y="690" type="curve"/>
      <point x="304" y="371" type="line"/>
      <point x="274" y="378" type="line" smooth="yes"/>
      <point x="184" y="399"/>
      <point x="144" y="441"/>
    </contour>
    <contour>
      <point x="483" y="196" type="curve" smooth="yes"/>
      <point x="483" y="76"/>
      <point x="405" y="8"/>
      <point x="275" y="8" type="curve" smooth="yes"/>
      <point x="272" y="8"/>
      <point x="266" y="8"/>
      <point x="263" y="8" type="curve"/>
      <point x="319" y="346" type="line"/>
      <point x="352" y="338" type="line" smooth="yes"/>
      <point x="444" y="316"/>
      <point x="483" y="274"/>
    </contour>
  </outline>
</glyph>
<glyph name="percent" format="1">
  <advance width="600"/>
  <unicode hex="0025"/>
  <outline>
    <contour>
      <point x="198" y="377" type="curve" smooth="yes"/>
      <point x="279" y="377"/>
      <point x="360" y="438"/>
      <point x="360" y="587" type="curve" smooth="yes"/>
      <point x="360" y="665"/>
      <point x="308" y="710"/>
      <point x="242" y="710" type="curve" smooth="yes"/>
      <point x="161" y="710"/>
      <point x="80" y="649"/>
      <point x="80" y="500" type="curve" smooth="yes"/>
      <point x="80" y="422"/>
      <point x="132" y="377"/>
    </contour>
    <contour>
      <point x="198" y="394" type="curve" smooth="yes"/>
      <point x="145" y="394"/>
      <point x="99" y="426"/>
      <point x="99" y="500" type="curve" smooth="yes"/>
      <point x="99" y="511"/>
      <point x="100" y="523"/>
      <point x="107" y="563" type="curve" smooth="yes"/>
      <point x="124" y="658"/>
      <point x="181" y="693"/>
      <point x="242" y="693" type="curve" smooth="yes"/>
      <point x="295" y="693"/>
      <point x="341" y="661"/>
      <point x="341" y="587" type="curve" smooth="yes"/>
      <point x="341" y="576"/>
      <point x="340" y="564"/>
      <point x="333" y="524" type="curve" smooth="yes"/>
      <point x="316" y="430"/>
      <point x="259" y="394"/>
    </contour>
    <contour>
      <point x="394" y="398" type="line"/>
      <point x="416" y="398" type="line"/>
      <point x="645" y="698" type="line" name="hr01"/>
      <point x="623" y="698" type="line"/>
    </contour>
    <contour>
      <point x="-15" y="0" type="line"/>
      <point x="7" y="0" type="line"/>
      <point x="236" y="300" type="line"/>
      <point x="214" y="300" type="line"/>
    </contour>
    <contour>
      <point x="388" y="-12" type="curve" smooth="yes" name="hr02"/>
      <point x="469" y="-12"/>
      <point x="550" y="49"/>
      <point x="550" y="198" type="curve" smooth="yes"/>
      <point x="550" y="276"/>
      <point x="498" y="321"/>
      <point x="432" y="321" type="curve" smooth="yes"/>
      <point x="351" y="321"/>
      <point x="270" y="260"/>
      <point x="270" y="111" type="curve" smooth="yes"/>
      <point x="270" y="33"/>
      <point x="322" y="-12"/>
    </contour>
    <contour>
      <point x="388" y="5" type="curve" smooth="yes"/>
      <point x="335" y="5"/>
      <point x="289" y="37"/>
      <point x="289" y="111" type="curve" smooth="yes"/>
      <point x="289" y="122"/>
      <point x="290" y="134"/>
      <point x="297" y="174" type="curve" smooth="yes"/>
      <point x="314" y="269"/>
      <point x="371" y="304"/>
      <point x="432" y="304" type="curve" smooth="yes"/>
      <point x="485" y="304"/>
      <point x="531" y="272"/>
      <point x="531" y="198" type="curve" smooth="yes"/>
      <point x="531" y="187"/>
      <point x="530" y="175"/>
      <point x="523" y="135" type="curve" smooth="yes"/>
      <point x="506" y="41"/>
      <point x="449" y="5"/>
    </contour>
  </outline>
</glyph>
<glyph name="ampersand" format="1">
  <advance width="600"/>
  <unicode hex="0026"/>
  <outline>
    <contour>
      <point x="178" y="-12" type="curve" smooth="yes" name="hr00"/>
      <point x="265" y="-12"/>
      <point x="338" y="31"/>
      <point x="360" y="145" type="curve"/>
      <point x="363" y="145" type="line"/>
      <point x="440" y="21" type="line" smooth="yes"/>
      <point x="459" y="-10"/>
      <point x="465" y="-12"/>
      <point x="478" y="-12" type="curve" smooth="yes"/>
      <point x="491" y="-12"/>
      <point x="498" y="1"/>
      <point x="517" y="31" type="curve" smooth="yes"/>
      <point x="589" y="145" type="line"/>
      <point x="573" y="154" type="line"/>
      <point x="477" y="8" type="line"/>
      <point x="474" y="8" type="line"/>
      <point x="272" y="328" type="line"/>
      <point x="382" y="349"/>
      <point x="462" y="416"/>
      <point x="462" y="562" type="curve" smooth="yes"/>
      <point x="462" y="661"/>
      <point x="395" y="710"/>
      <point x="310" y="710" type="curve" smooth="yes"/>
      <point x="224" y="710"/>
      <point x="154" y="663"/>
      <point x="154" y="547" type="curve" smooth="yes"/>
      <point x="154" y="498"/>
      <point x="168" y="459"/>
      <point x="214" y="382" type="curve"/>
      <point x="75" y="368"/>
      <point x="13" y="294"/>
      <point x="13" y="153" type="curve" smooth="yes"/>
      <point x="13" y="62"/>
      <point x="71" y="-12"/>
    </contour>
    <contour>
      <point x="178" y="8" type="curve" smooth="yes"/>
      <point x="80" y="8"/>
      <point x="34" y="76"/>
      <point x="34" y="153" type="curve" smooth="yes"/>
      <point x="34" y="167"/>
      <point x="33" y="174"/>
      <point x="42" y="224" type="curve" smooth="yes"/>
      <point x="57" y="311"/>
      <point x="111" y="353"/>
      <point x="224" y="366" type="curve"/>
      <point x="350" y="165" type="line"/>
      <point x="328" y="38"/>
      <point x="246" y="8"/>
    </contour>
    <contour>
      <point x="310" y="690" type="curve" smooth="yes"/>
      <point x="391" y="690"/>
      <point x="441" y="644"/>
      <point x="441" y="562" type="curve" smooth="yes"/>
      <point x="441" y="552"/>
      <point x="440" y="539"/>
      <point x="432" y="492" type="curve" smooth="yes"/>
      <point x="417" y="403"/>
      <point x="353" y="361"/>
      <point x="262" y="343" type="curve"/>
      <point x="240" y="378" type="line" smooth="yes"/>
      <point x="185" y="465"/>
      <point x="175" y="504"/>
      <point x="175" y="547" type="curve" smooth="yes"/>
      <point x="175" y="654"/>
      <point x="236" y="690"/>
    </contour>
  </outline>
</glyph>
<glyph name="quotesingle" format="1">
  <advance width="600"/>
  <unicode hex="0027"/>
  <outline>
    <contour>
      <point x="351" y="490" type="line" name="hr00"/>
      <point x="393" y="740" type="line"/>
      <point x="369" y="740" type="line"/>
      <point x="327" y="490" type="line"/>
    </contour>
  </outline>
</glyph>
<glyph name="parenleft" format="1">
  <advance width="600"/>
  <unicode hex="0028"/>
  <outline>
    <contour>
      <point x="236" y="232" type="curve" smooth="yes" name="hr00"/>
      <point x="236" y="76"/>
      <point x="299" y="-47"/>
      <point x="374" y="-138" type="curve"/>
      <point x="395" y="-138" type="line"/>
      <point x="307" y="-32"/>
      <point x="255" y="83"/>
      <point x="255" y="232" type="curve" smooth="yes"/>
      <point x="255" y="261"/>
      <point x="256" y="289"/>
      <point x="262" y="319" type="curve" smooth="yes"/>
      <point x="268" y="353" type="line" smooth="yes"/>
      <point x="298" y="522"/>
      <point x="415" y="669"/>
      <point x="546" y="760" type="curve"/>
      <point x="520" y="760" type="line"/>
      <point x="369" y="654"/>
      <point x="236" y="473"/>
    </contour>
  </outline>
</glyph>
<glyph name="parenright" format="1">
  <advance width="600"/>
  <unicode hex="0029"/>
  <outline>
    <contour>
      <point x="383" y="390" type="curve" smooth="yes" name="hr00"/>
      <point x="383" y="546"/>
      <point x="320" y="669"/>
      <point x="245" y="760" type="curve"/>
      <point x="224" y="760" type="line"/>
      <point x="312" y="654"/>
      <point x="364" y="539"/>
      <point x="364" y="390" type="curve" smooth="yes"/>
      <point x="364" y="361"/>
      <point x="363" y="333"/>
      <point x="357" y="303" type="curve" smooth="yes"/>
      <point x="351" y="269" type="line" smooth="yes"/>
      <point x="321" y="100"/>
      <point x="204" y="-47"/>
      <point x="73" y="-138" type="curve"/>
      <point x="99" y="-138" type="line"/>
      <point x="250" y="-32"/>
      <point x="383" y="149"/>
    </contour>
  </outline>
</glyph>
<glyph name="asterisk" format="1">
  <advance width="600"/>
  <unicode hex="002A"/>
  <outline>
    <contour>
      <point x="303" y="269" type="line" name="hr00"/>
      <point x="426" y="51" type="line"/>
      <point x="444" y="61" type="line"/>
      <point x="322" y="278" type="line"/>
      <point x="571" y="353" type="line"/>
      <point x="567" y="372" type="line"/>
      <point x="318" y="298" type="line"/>
      <point x="360" y="549" type="line"/>
      <point x="339" y="549" type="line"/>
      <point x="297" y="297" type="line"/>
      <point x="73" y="371" type="line"/>
      <point x="64" y="354" type="line"/>
      <point x="287" y="280" type="line"/>
      <point x="93" y="63" type="line"/>
      <point x="109" y="51" type="line"/>
    </contour>
  </outline>
</glyph>
<glyph name="plus" format="1">
  <advance width="600"/>
  <unicode hex="002B"/>
  <outline>
    <contour>
      <point x="278" y="62" type="line" name="hr00"/>
      <point x="317" y="296" type="line"/>
      <point x="545" y="296" type="line"/>
      <point x="548" y="315" type="line"/>
      <point x="320" y="315" type="line"/>
      <point x="359" y="549" type="line"/>
      <point x="338" y="549" type="line"/>
      <point x="299" y="315" type="line"/>
      <point x="71" y="315" type="line"/>
      <point x="68" y="296" type="line"/>
      <point x="296" y="296" type="line"/>
      <point x="257" y="62" type="line"/>
    </contour>
  </outline>
</glyph>
<glyph name="comma" format="1">
  <advance width="600"/>
  <unicode hex="002C"/>
  <outline>
    <contour>
      <point x="158" y="-172" type="line" name="hr00"/>
      <point x="176" y="-172" type="line"/>
      <point x="295" y="78" type="line"/>
      <point x="253" y="78" type="line"/>
    </contour>
  </outline>
</glyph>
<glyph name="hyphen" format="1">
  <advance width="600"/>
  <unicode hex="002D"/>
  <outline>
    <contour>
      <point x="438" y="295" type="line" name="hr00"/>
      <point x="441" y="315" type="line"/>
      <point x="177" y="315" type="line"/>
      <point x="174" y="295" type="line"/>
    </contour>
  </outline>
</glyph>
<glyph name="period" format="1">
  <advance width="600"/>
  <unicode hex="002E"/>
  <outline>
    <contour>
      <point x="256" y="-5" type="curve" smooth="yes" name="hr00"/>
      <point x="277" y="-5"/>
      <point x="290" y="5"/>
      <point x="293" y="21" type="curve" smooth="yes"/>
      <point x="294" y="26"/>
      <point x="295" y="31"/>
      <point x="295" y="35" type="curve" smooth="yes"/>
      <point x="295" y="49"/>
      <point x="286" y="57"/>
      <point x="266" y="57" type="curve" smooth="yes"/>
      <point x="245" y="57"/>
      <point x="232" y="47"/>
      <point x="229" y="31" type="curve" smooth="yes"/>
      <point x="228" y="26"/>
      <point x="227" y="21"/>
      <point x="227" y="17" type="curve" smooth="yes"/>
      <point x="227" y="3"/>
      <point x="236" y="-5"/>
    </contour>
  </outline>
</glyph>
<glyph name="slash" format="1">
  <advance width="600"/>
  <unicode hex="002F"/>
  <outline>
    <contour>
      <point x="59" y="-138" type="line" name="hr00"/>
      <point x="570" y="760" type="line"/>
      <point x="550" y="760" type="line"/>
      <point x="39" y="-138" type="line"/>
    </contour>
  </outline>
</glyph>
<glyph name="zero" format="1">
  <advance width="600"/>
  <unicode hex="0030"/>
  <outline>
    <contour>
      <point x="262" y="-12" type="curve" smooth="yes" name="hr00"/>
      <point x="466" y="-12"/>
      <point x="550" y="237"/>
      <point x="550" y="479" type="curve" smooth="yes"/>
      <point x="550" y="640"/>
      <point x="485" y="710"/>
      <point x="364" y="710" type="curve" smooth="yes"/>
      <point x="160" y="710"/>
      <point x="76" y="461"/>
      <point x="76" y="219" type="curve" smooth="yes"/>
      <point x="76" y="58"/>
      <point x="141" y="-12"/>
    </contour>
    <contour>
      <point x="262" y="8" type="curve" smooth="yes"/>
      <point x="146" y="8"/>
      <point x="97" y="79"/>
      <point x="97" y="219" type="curve" smooth="yes"/>
      <point x="97" y="253"/>
      <point x="98" y="291"/>
      <point x="105" y="331" type="curve" smooth="yes"/>
      <point x="115" y="390" type="line" smooth="yes"/>
      <point x="148" y="582"/>
      <point x="237" y="690"/>
      <point x="364" y="690" type="curve" smooth="yes"/>
      <point x="480" y="690"/>
      <point x="529" y="619"/>
      <point x="529" y="479" type="curve" smooth="yes"/>
      <point x="529" y="445"/>
      <point x="528" y="407"/>
      <point x="521" y="367" type="curve" smooth="yes"/>
      <point x="511" y="308" type="line" smooth="yes"/>
      <point x="478" y="116"/>
      <point x="389" y="8"/>
    </contour>
    <contour>
      <point x="309" y="324" type="curve" smooth="yes"/>
      <point x="327" y="324"/>
      <point x="335" y="331"/>
      <point x="338" y="344" type="curve" smooth="yes"/>
      <point x="340" y="351"/>
      <point x="340" y="354"/>
      <point x="340" y="358" type="curve" smooth="yes"/>
      <point x="340" y="366"/>
      <point x="334" y="374"/>
      <point x="317" y="374" type="curve" smooth="yes"/>
      <point x="299" y="374"/>
      <point x="291" y="367"/>
      <point x="288" y="354" type="curve" smooth="yes"/>
      <point x="286" y="347"/>
      <point x="286" y="344"/>
      <point x="286" y="340" type="curve" smooth="yes"/>
      <point x="286" y="332"/>
      <point x="292" y="324"/>
    </contour>
  </outline>
</glyph>
<glyph name="one" format="1">
  <advance width="600"/>
  <unicode hex="0031"/>
  <outline>
    <contour>
      <point x="502" y="0" type="line" name="hr00"/>
      <point x="505" y="20" type="line"/>
      <point x="294" y="20" type="line"/>
      <point x="407" y="698" type="line"/>
      <point x="367" y="698" type="line"/>
      <point x="123" y="517" type="line"/>
      <point x="134" y="501" type="line"/>
      <point x="379" y="682" type="line"/>
      <point x="382" y="682" type="line"/>
      <point x="272" y="20" type="line"/>
      <point x="53" y="20" type="line"/>
      <point x="50" y="0" type="line"/>
    </contour>
  </outline>
</glyph>
<glyph name="two" format="1">
  <advance width="600"/>
  <unicode hex="0032"/>
  <outline>
    <contour>
      <point x="481" y="20" type="line" name="hr00"/>
      <point x="73" y="20" type="line"/>
      <point x="384" y="289" type="line" smooth="yes"/>
      <point x="489" y="380"/>
      <point x="532" y="449"/>
      <point x="532" y="553" type="curve" smooth="yes"/>
      <point x="532" y="640"/>
      <point x="474" y="710"/>
      <point x="359" y="710" type="curve" smooth="yes"/>
      <point x="252" y="710"/>
      <point x="177" y="662"/>
      <point x="140" y="557" type="curve"/>
      <point x="159" y="551" type="line"/>
      <point x="196" y="648"/>
      <point x="260" y="690"/>
      <point x="357" y="690" type="curve" smooth="yes"/>
      <point x="460" y="690"/>
      <point x="511" y="632"/>
      <point x="511" y="553" type="curve" smooth="yes"/>
      <point x="511" y="542"/>
      <point x="511" y="531"/>
      <point x="504" y="490" type="curve" smooth="yes"/>
      <point x="493" y="426"/>
      <point x="441" y="363"/>
      <point x="369" y="302" type="curve" smooth="yes"/>
      <point x="48" y="24" type="line"/>
      <point x="44" y="0" type="line"/>
      <point x="478" y="0" type="line"/>
    </contour>
  </outline>
</glyph>
<glyph name="three" format="1">
  <advance width="600"/>
  <unicode hex="0033"/>
  <outline>
    <contour>
      <point x="210" y="376" type="line" name="hr00"/>
      <point x="207" y="356" type="line"/>
      <point x="302" y="356" type="line" smooth="yes"/>
      <point x="407" y="356"/>
      <point x="463" y="298"/>
      <point x="463" y="213" type="curve" smooth="yes"/>
      <point x="463" y="204"/>
      <point x="463" y="195"/>
      <point x="457" y="160" type="curve" smooth="yes"/>
      <point x="442" y="66"/>
      <point x="366" y="8"/>
      <point x="257" y="8" type="curve" smooth="yes"/>
      <point x="162" y="8"/>
      <point x="98" y="36"/>
      <point x="65" y="105" type="curve"/>
      <point x="48" y="95" type="line"/>
      <point x="82" y="21"/>
      <point x="158" y="-12"/>
      <point x="256" y="-12" type="curve" smooth="yes"/>
      <point x="393" y="-12"/>
      <point x="485" y="69"/>
      <point x="485" y="213" type="curve" smooth="yes"/>
      <point x="485" y="295"/>
      <point x="430" y="354"/>
      <point x="361" y="363" type="curve"/>
      <point x="361" y="366" type="line"/>
      <point x="466" y="382"/>
      <point x="526" y="447"/>
      <point x="526" y="558" type="curve" smooth="yes"/>
      <point x="526" y="653"/>
      <point x="449" y="710"/>
      <point x="352" y="710" type="curve" smooth="yes"/>
      <point x="247" y="710"/>
      <point x="183" y="669"/>
      <point x="146" y="599" type="curve"/>
      <point x="164" y="590" type="line"/>
      <point x="202" y="659"/>
      <point x="256" y="690"/>
      <point x="349" y="690" type="curve" smooth="yes"/>
      <point x="442" y="690"/>
      <point x="504" y="640"/>
      <point x="504" y="557" type="curve" smooth="yes"/>
      <point x="504" y="549"/>
      <point x="503" y="539"/>
      <point x="499" y="512" type="curve" smooth="yes"/>
      <point x="485" y="424"/>
      <point x="412" y="376"/>
      <point x="304" y="376" type="curve" smooth="yes"/>
    </contour>
  </outline>
</glyph>
<glyph name="four" format="1">
  <advance width="600"/>
  <unicode hex="0034"/>
  <outline>
    <contour>
      <point x="390" y="0" type="line"/>
      <point x="417" y="160" type="line"/>
      <point x="534" y="160" type="line"/>
      <point x="537" y="179" type="line" name="hr01"/>
      <point x="420" y="179" type="line"/>
      <point x="507" y="698" type="line"/>
      <point x="480" y="698" type="line"/>
      <point x="34" y="181" type="line"/>
      <point x="31" y="160" type="line"/>
      <point x="396" y="160" type="line"/>
      <point x="369" y="0" type="line" name="hr02"/>
    </contour>
    <contour>
      <point x="477" y="667" type="line"/>
      <point x="480" y="667" type="line"/>
      <point x="399" y="179" type="line" name="hr03"/>
      <point x="58" y="179" type="line"/>
    </contour>
  </outline>
</glyph>
<glyph name="five" format="1">
  <advance width="600"/>
  <unicode hex="0035"/>
  <outline>
    <contour>
      <point x="554" y="698" type="line" name="hr00"/>
      <point x="212" y="698" type="line"/>
      <point x="124" y="326" type="line"/>
      <point x="148" y="323" type="line"/>
      <point x="196" y="370"/>
      <point x="237" y="393"/>
      <point x="316" y="393" type="curve" smooth="yes"/>
      <point x="422" y="393"/>
      <point x="476" y="334"/>
      <point x="476" y="242" type="curve" smooth="yes"/>
      <point x="476" y="230"/>
      <point x="476" y="218"/>
      <point x="469" y="178" type="curve" smooth="yes"/>
      <point x="452" y="75"/>
      <point x="385" y="8"/>
      <point x="260" y="8" type="curve" smooth="yes"/>
      <point x="184" y="8"/>
      <point x="109" y="33"/>
      <point x="76" y="105" type="curve"/>
      <point x="59" y="95" type="line"/>
      <point x="92" y="21"/>
      <point x="173" y="-12"/>
      <point x="261" y="-12" type="curve" smooth="yes"/>
      <point x="407" y="-12"/>
      <point x="498" y="78"/>
      <point x="498" y="242" type="curve" smooth="yes"/>
      <point x="498" y="346"/>
      <point x="434" y="413"/>
      <point x="317" y="413" type="curve" smooth="yes"/>
      <point x="246" y="413"/>
      <point x="194" y="393"/>
      <point x="151" y="343" type="curve"/>
      <point x="148" y="344" type="line"/>
      <point x="227" y="678" type="line"/>
      <point x="551" y="678" type="line"/>
    </contour>
  </outline>
</glyph>
<glyph name="six" format="1">
  <advance width="600"/>
  <unicode hex="0036"/>
  <outline>
    <contour>
      <point x="268" y="-12" type="curve" smooth="yes" name="hr00"/>
      <point x="415" y="-12"/>
      <point x="511" y="97"/>
      <point x="511" y="243" type="curve" smooth="yes"/>
      <point x="511" y="349"/>
      <point x="436" y="416"/>
      <point x="327" y="416" type="curve" smooth="yes"/>
      <point x="242" y="416"/>
      <point x="163" y="384"/>
      <point x="119" y="296" type="curve"/>
      <point x="116" y="297" type="line"/>
      <point x="171" y="465"/>
      <point x="277" y="585"/>
      <point x="473" y="698" type="curve"/>
      <point x="439" y="698" type="line"/>
      <point x="239" y="586"/>
      <point x="80" y="396"/>
      <point x="80" y="171" type="curve" smooth="yes"/>
      <point x="80" y="65"/>
      <point x="141" y="-12"/>
    </contour>
    <contour>
      <point x="267" y="8" type="curve" smooth="yes"/>
      <point x="158" y="8"/>
      <point x="102" y="72"/>
      <point x="102" y="161" type="curve" smooth="yes"/>
      <point x="102" y="171"/>
      <point x="102" y="182"/>
      <point x="108" y="221" type="curve" smooth="yes"/>
      <point x="125" y="320"/>
      <point x="206" y="396"/>
      <point x="324" y="396" type="curve" smooth="yes"/>
      <point x="433" y="396"/>
      <point x="489" y="332"/>
      <point x="489" y="243" type="curve" smooth="yes"/>
      <point x="489" y="233"/>
      <point x="489" y="222"/>
      <point x="483" y="183" type="curve" smooth="yes"/>
      <point x="466" y="84"/>
      <point x="385" y="8"/>
    </contour>
  </outline>
</glyph>
<glyph name="seven" format="1">
  <advance width="600"/>
  <unicode hex="0037"/>
  <outline>
    <contour>
      <point x="168" y="0" type="line" name="hr00"/>
      <point x="582" y="678" type="line"/>
      <point x="585" y="698" type="line"/>
      <point x="150" y="698" type="line"/>
      <point x="119" y="512" type="line"/>
      <point x="140" y="512" type="line"/>
      <point x="168" y="678" type="line"/>
      <point x="558" y="678" type="line"/>
      <point x="144" y="0" type="line"/>
    </contour>
  </outline>
</glyph>
<glyph name="eight" format="1">
  <advance width="600"/>
  <unicode hex="0038"/>
  <outline>
    <contour>
      <point x="263" y="-12" type="curve" smooth="yes" name="hr00"/>
      <point x="414" y="-12"/>
      <point x="518" y="75"/>
      <point x="518" y="206" type="curve" smooth="yes"/>
      <point x="518" y="287"/>
      <point x="473" y="341"/>
      <point x="395" y="362" type="curve"/>
      <point x="395" y="366" type="line"/>
      <point x="490" y="385"/>
      <point x="553" y="456"/>
      <point x="553" y="558" type="curve" smooth="yes"/>
      <point x="553" y="649"/>
      <point x="483" y="710"/>
      <point x="368" y="710" type="curve" smooth="yes"/>
      <point x="233" y="710"/>
      <point x="141" y="632"/>
      <point x="141" y="509" type="curve" smooth="yes"/>
      <point x="141" y="437"/>
      <point x="181" y="388"/>
      <point x="248" y="371" type="curve"/>
      <point x="248" y="367" type="line"/>
      <point x="133" y="349"/>
      <point x="60" y="268"/>
      <point x="60" y="156" type="curve" smooth="yes"/>
      <point x="60" y="56"/>
      <point x="136" y="-12"/>
    </contour>
    <contour>
      <point x="264" y="8" type="curve" smooth="yes"/>
      <point x="150" y="8"/>
      <point x="83" y="67"/>
      <point x="83" y="151" type="curve" smooth="yes"/>
      <point x="83" y="159"/>
      <point x="83" y="166"/>
      <point x="88" y="200" type="curve" smooth="yes"/>
      <point x="103" y="293"/>
      <point x="193" y="356"/>
      <point x="314" y="356" type="curve" smooth="yes"/>
      <point x="428" y="356"/>
      <point x="495" y="297"/>
      <point x="495" y="213" type="curve" smooth="yes"/>
      <point x="495" y="205"/>
      <point x="495" y="198"/>
      <point x="490" y="164" type="curve" smooth="yes"/>
      <point x="475" y="71"/>
      <point x="385" y="8"/>
    </contour>
    <contour>
      <point x="328" y="376" type="curve" smooth="yes"/>
      <point x="225" y="376"/>
      <point x="164" y="425"/>
      <point x="164" y="502" type="curve" smooth="yes"/>
      <point x="164" y="510"/>
      <point x="164" y="518"/>
      <point x="169" y="550" type="curve" smooth="yes"/>
      <point x="183" y="636"/>
      <point x="257" y="690"/>
      <point x="366" y="690" type="curve" smooth="yes"/>
      <point x="469" y="690"/>
      <point x="530" y="641"/>
      <point x="530" y="564" type="curve" smooth="yes"/>
      <point x="530" y="556"/>
      <point x="530" y="548"/>
      <point x="525" y="516" type="curve" smooth="yes"/>
      <point x="511" y="430"/>
      <point x="437" y="376"/>
    </contour>
  </outline>
</glyph>
<glyph name="nine" format="1">
  <advance width="600"/>
  <unicode hex="0039"/>
  <outline>
    <contour>
      <point x="537" y="527" type="curve" smooth="yes" name="hr00"/>
      <point x="537" y="633"/>
      <point x="476" y="710"/>
      <point x="349" y="710" type="curve" smooth="yes"/>
      <point x="202" y="710"/>
      <point x="106" y="601"/>
      <point x="106" y="455" type="curve" smooth="yes"/>
      <point x="106" y="349"/>
      <point x="181" y="282"/>
      <point x="290" y="282" type="curve" smooth="yes"/>
      <point x="375" y="282"/>
      <point x="454" y="314"/>
      <point x="498" y="402" type="curve"/>
      <point x="501" y="401" type="line"/>
      <point x="446" y="233"/>
      <point x="340" y="113"/>
      <point x="144" y="0" type="curve"/>
      <point x="178" y="0" type="line"/>
      <point x="378" y="112"/>
      <point x="537" y="302"/>
    </contour>
    <contour>
      <point x="293" y="302" type="curve" smooth="yes"/>
      <point x="184" y="302"/>
      <point x="128" y="366"/>
      <point x="128" y="455" type="curve" smooth="yes"/>
      <point x="128" y="465"/>
      <point x="128" y="476"/>
      <point x="134" y="515" type="curve" smooth="yes"/>
      <point x="151" y="614"/>
      <point x="232" y="690"/>
      <point x="350" y="690" type="curve" smooth="yes"/>
      <point x="459" y="690"/>
      <point x="515" y="626"/>
      <point x="515" y="537" type="curve" smooth="yes"/>
      <point x="515" y="527"/>
      <point x="515" y="516"/>
      <point x="509" y="477" type="curve" smooth="yes"/>
      <point x="492" y="378"/>
      <point x="411" y="302"/>
    </contour>
  </outline>
</glyph>
<glyph name="less" format="1">
  <advance width="600"/>
  <unicode hex="003C"/>
  <outline>
    <contour>
      <point x="478" y="38" type="line" name="hr00"/>
      <point x="482" y="59" type="line"/>
      <point x="116" y="303" type="line"/>
      <point x="116" y="305" type="line"/>
      <point x="563" y="547" type="line"/>
      <point x="567" y="572" type="line"/>
      <point x="94" y="314" type="line"/>
      <point x="91" y="296" type="line"/>
    </contour>
  </outline>
</glyph>
<glyph name="equal" format="1">
  <advance width="600"/>
  <unicode hex="003D"/>
  <outline>
    <contour>
      <point x="560" y="385" type="line" name="hr00"/>
      <point x="563" y="404" type="line"/>
      <point x="86" y="404" type="line"/>
      <point x="83" y="385" type="line"/>
    </contour>
    <contour>
      <point x="530" y="207" type="line"/>
      <point x="533" y="226" type="line"/>
      <point x="56" y="226" type="line"/>
      <point x="53" y="207" type="line"/>
    </contour>
  </outline>
</glyph>
<glyph name="greater" format="1">
  <advance width="600"/>
  <unicode hex="003E"/>
  <outline>
    <contour>
      <point x="48" y="38" type="line" name="hr00"/>
      <point x="521" y="296" type="line"/>
      <point x="524" y="314" type="line"/>
      <point x="137" y="572" type="line"/>
      <point x="133" y="551" type="line"/>
      <point x="499" y="307" type="line"/>
      <point x="499" y="305" type="line"/>
      <point x="52" y="63" type="line"/>
    </contour>
  </outline>
</glyph>
<glyph name="question" format="1">
  <advance width="600"/>
  <unicode hex="003F"/>
  <outline>
    <contour>
      <point x="276" y="176" type="line" name="hr00"/>
      <point x="302" y="331" type="line"/>
      <point x="469" y="346"/>
      <point x="544" y="428"/>
      <point x="544" y="554" type="curve" smooth="yes"/>
      <point x="544" y="648"/>
      <point x="477" y="710"/>
      <point x="371" y="710" type="curve" smooth="yes"/>
      <point x="258" y="710"/>
      <point x="188" y="652"/>
      <point x="152" y="560" type="curve"/>
      <point x="171" y="554" type="line"/>
      <point x="207" y="640"/>
      <point x="265" y="691"/>
      <point x="370" y="691" type="curve" smooth="yes"/>
      <point x="469" y="691"/>
      <point x="522" y="639"/>
      <point x="522" y="554" type="curve" smooth="yes"/>
      <point x="522" y="545"/>
      <point x="519" y="522"/>
      <point x="517" y="508" type="curve" smooth="yes"/>
      <point x="503" y="411"/>
      <point x="429" y="360"/>
      <point x="283" y="349" type="curve"/>
      <point x="254" y="176" type="line"/>
    </contour>
    <contour>
      <point x="235" y="-5" type="curve" smooth="yes"/>
      <point x="256" y="-5"/>
      <point x="269" y="5"/>
      <point x="272" y="21" type="curve" smooth="yes"/>
      <point x="273" y="26"/>
      <point x="274" y="31"/>
      <point x="274" y="35" type="curve" smooth="yes"/>
      <point x="274" y="49"/>
      <point x="265" y="57"/>
      <point x="245" y="57" type="curve" smooth="yes"/>
      <point x="224" y="57"/>
      <point x="211" y="47"/>
      <point x="208" y="31" type="curve" smooth="yes"/>
      <point x="207" y="26"/>
      <point x="206" y="21"/>
      <point x="206" y="17" type="curve" smooth="yes"/>
      <point x="206" y="3"/>
      <point x="215" y="-5"/>
    </contour>
  </outline>
</glyph>
<glyph name="at" format="1">
  <advance width="600"/>
  <unicode hex="0040"/>
  <outline>
    <contour>
      <point x="415" y="-87" type="line" name="hr00"/>
      <point x="276" y="-87" type="line" smooth="yes"/>
      <point x="145" y="-87"/>
      <point x="102" y="-15"/>
      <point x="102" y="107" type="curve" smooth="yes"/>
      <point x="102" y="155"/>
      <point x="109" y="210"/>
      <point x="119" y="272" type="curve" smooth="yes"/>
      <point x="126" y="317" type="line" smooth="yes"/>
      <point x="166" y="572"/>
      <point x="241" y="691"/>
      <point x="370" y="691" type="curve" smooth="yes"/>
      <point x="478" y="691"/>
      <point x="516" y="638"/>
      <point x="516" y="543" type="curve" smooth="yes"/>
      <point x="516" y="518"/>
      <point x="513" y="491"/>
      <point x="508" y="463" type="curve" smooth="yes"/>
      <point x="502" y="426" type="line"/>
      <point x="499" y="426" type="line"/>
      <point x="489" y="467"/>
      <point x="451" y="499"/>
      <point x="393" y="499" type="curve" smooth="yes"/>
      <point x="308" y="499"/>
      <point x="255" y="443"/>
      <point x="232" y="302" type="curve" smooth="yes"/>
      <point x="227" y="273"/>
      <point x="225" y="248"/>
      <point x="225" y="226" type="curve" smooth="yes"/>
      <point x="225" y="135"/>
      <point x="265" y="87"/>
      <point x="335" y="87" type="curve" smooth="yes"/>
      <point x="394" y="87"/>
      <point x="428" y="125"/>
      <point x="457" y="174" type="curve"/>
      <point x="460" y="174" type="line"/>
      <point x="447" y="95" type="line"/>
      <point x="467" y="95" type="line"/>
      <point x="528" y="463" type="line" smooth="yes"/>
      <point x="533" y="492"/>
      <point x="535" y="521"/>
      <point x="535" y="549" type="curve" smooth="yes"/>
      <point x="535" y="641"/>
      <point x="493" y="710"/>
      <point x="372" y="710" type="curve" smooth="yes"/>
      <point x="230" y="710"/>
      <point x="150" y="594"/>
      <point x="102" y="304" type="curve" smooth="yes"/>
      <point x="90" y="230"/>
      <point x="82" y="163"/>
      <point x="82" y="106" type="curve" smooth="yes"/>
      <point x="82" y="-27"/>
      <point x="137" y="-106"/>
      <point x="273" y="-106" type="curve" smooth="yes"/>
      <point x="412" y="-106" type="line"/>
    </contour>
    <contour>
      <point x="341" y="105" type="curve" smooth="yes"/>
      <point x="281" y="105"/>
      <point x="245" y="137"/>
      <point x="245" y="226" type="curve" smooth="yes"/>
      <point x="245" y="243"/>
      <point x="247" y="263"/>
      <point x="251" y="286" type="curve" smooth="yes"/>
      <point x="256" y="318" type="line" smooth="yes"/>
      <point x="275" y="438"/>
      <point x="328" y="481"/>
      <point x="393" y="481" type="curve" smooth="yes"/>
      <point x="468" y="481"/>
      <point x="502" y="434"/>
      <point x="491" y="365" type="curve" smooth="yes"/>
      <point x="472" y="248" type="line" smooth="yes"/>
      <point x="466" y="212"/>
      <point x="448" y="177"/>
      <point x="424" y="150" type="curve" smooth="yes"/>
      <point x="400" y="123"/>
      <point x="370" y="105"/>
    </contour>
  </outline>
</glyph>
<glyph name="A" format="1">
  <advance width="600"/>
  <unicode hex="0041"/>
  <outline>
    <contour>
      <point x="505" y="0" type="line" name="hr00"/>
      <point x="388" y="698" type="line"/>
      <point x="358" y="698" type="line"/>
      <point x="9" y="0" type="line"/>
      <point x="33" y="0" type="line"/>
      <point x="150" y="234" type="line"/>
      <point x="444" y="234" type="line"/>
      <point x="483" y="0" type="line"/>
    </contour>
    <contour>
      <point x="441" y="253" type="line"/>
      <point x="159" y="253" type="line"/>
      <point x="368" y="673" type="line"/>
      <point x="371" y="673" type="line"/>
    </contour>
    <contour>
      <point x="257" y="0" type="move" name="bottom"/>
    </contour>
    <contour>
      <point x="505" y="0" type="move" name="bottomright"/>
    </contour>
    <contour>
      <point x="374" y="698" type="move" name="top"/>
    </contour>
  </outline>
</glyph>
<glyph name="C" format="1">
  <advance width="600"/>
  <unicode hex="0043"/>
  <outline>
    <contour>
      <point x="280" y="-12" type="curve" smooth="yes" name="hr00"/>
      <point x="376" y="-12"/>
      <point x="439" y="34"/>
      <point x="498" y="142" type="curve"/>
      <point x="479" y="151" type="line"/>
      <point x="429" y="56"/>
      <point x="369" y="8"/>
      <point x="280" y="8" type="curve" smooth="yes"/>
      <point x="173" y="8"/>
      <point x="111" y="79"/>
      <point x="111" y="219" type="curve" smooth="yes"/>
      <point x="111" y="253"/>
      <point x="112" y="291"/>
      <point x="119" y="331" type="curve" smooth="yes"/>
      <point x="129" y="390" type="line" smooth="yes"/>
      <point x="162" y="582"/>
      <point x="259" y="690"/>
      <point x="380" y="690" type="curve" smooth="yes"/>
      <point x="472" y="690"/>
      <point x="514" y="642"/>
      <point x="537" y="563" type="curve"/>
      <point x="557" y="569" type="line"/>
      <point x="532" y="656"/>
      <point x="482" y="710"/>
      <point x="381" y="710" type="curve" smooth="yes"/>
      <point x="182" y="710"/>
      <point x="90" y="461"/>
      <point x="90" y="219" type="curve" smooth="yes"/>
      <point x="90" y="58"/>
      <point x="168" y="-12"/>
    </contour>
    <contour>
      <point x="278" y="0" type="move" name="bottom"/>
    </contour>
    <contour>
      <point x="385" y="698" type="move" name="top"/>
    </contour>
  </outline>
</glyph>
<glyph name="D" format="1">
  <advance width="600"/>
  <unicode hex="0044"/>
  <outline>
    <contour>
      <point x="65" y="0" type="line" name="hr00"/>
      <point x="260" y="0" type="line" smooth="yes"/>
      <point x="472" y="0"/>
      <point x="552" y="228"/>
      <point x="552" y="469" type="curve" smooth="yes"/>
      <point x="552" y="620"/>
      <point x="466" y="698"/>
      <point x="343" y="698" type="curve" smooth="yes"/>
      <point x="181" y="698" type="line"/>
    </contour>
    <contour>
      <point x="90" y="20" type="line"/>
      <point x="200" y="678" type="line"/>
      <point x="344" y="678" type="line" smooth="yes"/>
      <point x="460" y="678"/>
      <point x="531" y="603"/>
      <point x="531" y="468" type="curve" smooth="yes"/>
      <point x="531" y="434"/>
      <point x="530" y="397"/>
      <point x="523" y="357" type="curve" smooth="yes"/>
      <point x="513" y="298" type="line" smooth="yes"/>
      <point x="482" y="115"/>
      <point x="389" y="20"/>
      <point x="260" y="20" type="curve" smooth="yes"/>
    </contour>
    <contour>
      <point x="242" y="0" type="move" name="bottom"/>
    </contour>
    <contour>
      <point x="345" y="698" type="move" name="top"/>
    </contour>
  </outline>
</glyph>
<glyph name="E" format="1">
  <advance width="600"/>
  <unicode hex="0045"/>
  <outline>
    <contour>
      <point x="471" y="0" type="line" name="hr00"/>
      <point x="474" y="20" type="line"/>
      <point x="90" y="20" type="line"/>
      <point x="144" y="344" type="line"/>
      <point x="514" y="344" type="line"/>
      <point x="518" y="364" type="line"/>
      <point x="148" y="364" type="line"/>
      <point x="200" y="678" type="line"/>
      <point x="584" y="678" type="line"/>
      <point x="587" y="698" type="line"/>
      <point x="181" y="698" type="line"/>
      <point x="65" y="0" type="line"/>
    </contour>
    <contour>
      <point x="268" y="0" type="move" name="bottom"/>
    </contour>
    <contour>
      <point x="471" y="0" type="move" name="bottomright"/>
    </contour>
    <contour>
      <point x="385" y="698" type="move" name="top"/>
    </contour>
  </outline>
</glyph>
<glyph name="F" format="1">
  <advance width="600"/>
  <unicode hex="0046"/>
  <outline>
    <contour>
      <point x="87" y="0" type="line" name="hr00"/>
      <point x="144" y="344" type="line"/>
      <point x="504" y="344" type="line"/>
      <point x="508" y="364" type="line"/>
      <point x="148" y="364" type="line"/>
      <point x="200" y="678" type="line"/>
      <point x="588" y="678" type="line"/>
      <point x="591" y="698" type="line"/>
      <point x="181" y="698" type="line"/>
      <point x="65" y="0" type="line"/>
    </contour>
    <contour>
      <point x="76" y="0" type="move" name="bottom"/>
    </contour>
    <contour>
      <point x="385" y="698" type="move" name="top"/>
    </contour>
  </outline>
</glyph>
<glyph name="G" format="1">
  <advance width="600"/>
  <unicode hex="0047"/>
  <outline>
    <contour>
      <point x="448" y="0" type="line"/>
      <point x="470" y="0" type="line"/>
      <point x="523" y="315" type="line"/>
      <point x="323" y="315" type="line"/>
      <point x="319" y="295" type="line"/>
      <point x="498" y="295" type="line"/>
      <point x="481" y="195" type="line" smooth="yes"/>
      <point x="462" y="86"/>
      <point x="388" y="8"/>
      <point x="284" y="8" type="curve" smooth="yes" name="hr01"/>
      <point x="161" y="8"/>
      <point x="110" y="79"/>
      <point x="110" y="219" type="curve" smooth="yes"/>
      <point x="110" y="253"/>
      <point x="111" y="291"/>
      <point x="118" y="331" type="curve" smooth="yes"/>
      <point x="128" y="390" type="line" smooth="yes"/>
      <point x="161" y="582"/>
      <point x="249" y="690"/>
      <point x="376" y="690" type="curve" smooth="yes"/>
      <point x="468" y="690"/>
      <point x="517" y="642"/>
      <point x="540" y="563" type="curve"/>
      <point x="560" y="569" type="line"/>
      <point x="535" y="656"/>
      <point x="479" y="710"/>
      <point x="376" y="710" type="curve" smooth="yes"/>
      <point x="172" y="710"/>
      <point x="89" y="461"/>
      <point x="89" y="219" type="curve" smooth="yes"/>
      <point x="89" y="58"/>
      <point x="156" y="-12"/>
      <point x="284" y="-12" type="curve" smooth="yes"/>
      <point x="378" y="-12"/>
      <point x="426" y="39"/>
      <point x="463" y="103" type="curve" name="hr02"/>
      <point x="466" y="103" type="line"/>
    </contour>
    <contour>
      <point x="271" y="0" type="move" name="bottom"/>
    </contour>
    <contour>
      <point x="378" y="698" type="move" name="top"/>
    </contour>
  </outline>
</glyph>
<glyph name="H" format="1">
  <advance width="600"/>
  <unicode hex="0048"/>
  <outline>
    <contour>
      <point x="437" y="0" type="line" name="hr00"/>
      <point x="459" y="0" type="line"/>
      <point x="575" y="698" type="line"/>
      <point x="553" y="698" type="line"/>
      <point x="498" y="364" type="line"/>
      <point x="138" y="364" type="line"/>
      <point x="193" y="698" type="line"/>
      <point x="171" y="698" type="line"/>
      <point x="55" y="0" type="line"/>
      <point x="77" y="0" type="line"/>
      <point x="134" y="344" type="line"/>
      <point x="494" y="344" type="line"/>
    </contour>
    <contour>
      <point x="259" y="0" type="move" name="bottom"/>
    </contour>
    <contour>
      <point x="374" y="698" type="move" name="top"/>
    </contour>
  </outline>
</glyph>
<glyph name="I" format="1">
  <advance width="600"/>
  <unicode hex="0049"/>
  <outline>
    <contour>
      <point x="465" y="0" type="line" name="hr00"/>
      <point x="468" y="19" type="line"/>
      <point x="271" y="19" type="line"/>
      <point x="381" y="679" type="line"/>
      <point x="578" y="679" type="line"/>
      <point x="581" y="698" type="line"/>
      <point x="165" y="698" type="line"/>
      <point x="162" y="679" type="line"/>
      <point x="359" y="679" type="line"/>
      <point x="249" y="19" type="line"/>
      <point x="52" y="19" type="line"/>
      <point x="49" y="0" type="line"/>
    </contour>
    <contour>
      <point x="257" y="0" type="move" name="bottom"/>
    </contour>
    <contour>
      <point x="465" y="0" type="move" name="bottomright"/>
    </contour>
    <contour>
      <point x="374" y="698" type="move" name="top"/>
    </contour>
  </outline>
</glyph>
<glyph name="J" format="1">
  <advance width="600"/>
  <unicode hex="004A"/>
  <outline>
    <contour>
      <point x="230" y="698" type="line" name="hr00"/>
      <point x="227" y="678" type="line"/>
      <point x="510" y="678" type="line"/>
      <point x="429" y="193" type="line" smooth="yes"/>
      <point x="409" y="75"/>
      <point x="339" y="8"/>
      <point x="233" y="8" type="curve" smooth="yes"/>
      <point x="155" y="8"/>
      <point x="99" y="45"/>
      <point x="94" y="123" type="curve"/>
      <point x="73" y="119" type="line"/>
      <point x="77" y="42"/>
      <point x="134" y="-12"/>
      <point x="234" y="-12" type="curve" smooth="yes"/>
      <point x="348" y="-12"/>
      <point x="429" y="60"/>
      <point x="450" y="187" type="curve" smooth="yes"/>
      <point x="535" y="698" type="line"/>
    </contour>
    <contour>
      <point x="236" y="0" type="move" name="bottom"/>
    </contour>
    <contour>
      <point x="387" y="698" type="move" name="top"/>
    </contour>
  </outline>
</glyph>
<glyph name="K" format="1">
  <advance width="600"/>
  <unicode hex="004B"/>
  <outline>
    <contour>
      <point x="479" y="0" type="line" name="hr00"/>
      <point x="503" y="0" type="line"/>
      <point x="302" y="402" type="line"/>
      <point x="618" y="698" type="line"/>
      <point x="590" y="698" type="line"/>
      <point x="295" y="423" type="line"/>
      <point x="135" y="273" type="line"/>
      <point x="132" y="273" type="line"/>
      <point x="203" y="698" type="line"/>
      <point x="181" y="698" type="line"/>
      <point x="65" y="0" type="line"/>
      <point x="87" y="0" type="line"/>
      <point x="127" y="240" type="line"/>
      <point x="285" y="387" type="line"/>
    </contour>
    <contour>
      <point x="268" y="0" type="move" name="bottom"/>
    </contour>
    <contour>
      <point x="374" y="698" type="move" name="top"/>
    </contour>
  </outline>
</glyph>
<glyph name="L" format="1">
  <advance width="600"/>
  <unicode hex="004C"/>
  <outline>
    <contour>
      <point x="485" y="0" type="line" name="hr00"/>
      <point x="488" y="20" type="line"/>
      <point x="128" y="20" type="line"/>
      <point x="241" y="698" type="line"/>
      <point x="219" y="698" type="line"/>
      <point x="103" y="0" type="line"/>
    </contour>
    <contour>
      <point x="298" y="0" type="move" name="bottom"/>
    </contour>
    <contour>
      <point x="230" y="698" type="move" name="top"/>
    </contour>
    <contour>
      <point x="355" y="740" type="move" name="topright"/>
    </contour>
  </outline>
</glyph>
<glyph name="M" format="1">
  <advance width="600"/>
  <unicode hex="004D"/>
  <outline>
    <contour>
      <point x="451" y="0" type="line" name="hr00"/>
      <point x="472" y="0" type="line"/>
      <point x="588" y="698" type="line"/>
      <point x="555" y="698" type="line"/>
      <point x="306" y="295" type="line"/>
      <point x="303" y="295" type="line"/>
      <point x="189" y="698" type="line"/>
      <point x="158" y="698" type="line"/>
      <point x="42" y="0" type="line"/>
      <point x="63" y="0" type="line"/>
      <point x="174" y="667" type="line"/>
      <point x="177" y="667" type="line"/>
      <point x="298" y="245" type="line"/>
      <point x="559" y="667" type="line"/>
      <point x="562" y="667" type="line"/>
    </contour>
    <contour>
      <point x="257" y="0" type="move" name="bottom"/>
    </contour>
    <contour>
      <point x="375" y="698" type="move" name="top"/>
    </contour>
  </outline>
</glyph>
<glyph name="N" format="1">
  <advance width="600"/>
  <unicode hex="004E"/>
  <outline>
    <contour>
      <point x="426" y="0" type="line" name="hr00"/>
      <point x="459" y="0" type="line"/>
      <point x="575" y="698" type="line"/>
      <point x="554" y="698" type="line"/>
      <point x="442" y="26" type="line"/>
      <point x="439" y="26" type="line"/>
      <point x="204" y="698" type="line"/>
      <point x="171" y="698" type="line"/>
      <point x="55" y="0" type="line"/>
      <point x="76" y="0" type="line"/>
      <point x="188" y="672" type="line"/>
      <point x="191" y="672" type="line"/>
    </contour>
    <contour>
      <point x="258" y="0" type="move" name="bottom"/>
    </contour>
    <contour>
      <point x="374" y="698" type="move" name="top"/>
    </contour>
  </outline>
</glyph>
<glyph name="Q" format="1">
  <advance width="600"/>
  <unicode hex="0051"/>
  <outline>
    <contour>
      <point x="375" y="-169" type="curve" smooth="yes" name="hr00"/>
      <point x="381" y="-169"/>
      <point x="388" y="-167"/>
      <point x="395" y="-161" type="curve" smooth="yes"/>
      <point x="514" y="-59" type="line"/>
      <point x="501" y="-47" type="line"/>
      <point x="378" y="-150" type="line"/>
      <point x="375" y="-150" type="line"/>
      <point x="281" y="-11" type="line"/>
      <point x="471" y="3"/>
      <point x="550" y="245"/>
      <point x="550" y="479" type="curve" smooth="yes"/>
      <point x="550" y="640"/>
      <point x="485" y="710"/>
      <point x="364" y="710" type="curve" smooth="yes"/>
      <point x="160" y="710"/>
      <point x="76" y="461"/>
      <point x="76" y="219" type="curve" smooth="yes"/>
      <point x="76" y="61"/>
      <point x="139" y="-10"/>
      <point x="256" y="-12" type="curve"/>
      <point x="354" y="-156" type="line" smooth="yes"/>
      <point x="360" y="-165"/>
      <point x="367" y="-169"/>
    </contour>
    <contour>
      <point x="262" y="8" type="curve" smooth="yes"/>
      <point x="146" y="8"/>
      <point x="97" y="79"/>
      <point x="97" y="219" type="curve" smooth="yes"/>
      <point x="97" y="253"/>
      <point x="98" y="291"/>
      <point x="105" y="331" type="curve" smooth="yes"/>
      <point x="115" y="390" type="line" smooth="yes"/>
      <point x="148" y="582"/>
      <point x="237" y="690"/>
      <point x="364" y="690" type="curve" smooth="yes"/>
      <point x="480" y="690"/>
      <point x="529" y="619"/>
      <point x="529" y="479" type="curve" smooth="yes"/>
      <point x="529" y="445"/>
      <point x="528" y="407"/>
      <point x="521" y="367" type="curve" smooth="yes"/>
      <point x="511" y="308" type="line" smooth="yes"/>
      <point x="478" y="116"/>
      <point x="389" y="8"/>
    </contour>
    <contour>
      <point x="369" y="698" type="move" name="top"/>
    </contour>
  </outline>
</glyph>
<glyph name="R" format="1">
  <advance width="600"/>
  <unicode hex="0052"/>
  <outline>
    <contour>
      <point x="141" y="322" type="line" name="hr00"/>
      <point x="303" y="322" type="line"/>
      <point x="455" y="0" type="line"/>
      <point x="478" y="0" type="line"/>
      <point x="325" y="322" type="line"/>
      <point x="371" y="322" type="line" smooth="yes"/>
      <point x="502" y="322"/>
      <point x="572" y="411"/>
      <point x="572" y="547" type="curve" smooth="yes"/>
      <point x="572" y="633"/>
      <point x="513" y="698"/>
      <point x="415" y="698" type="curve" smooth="yes"/>
      <point x="181" y="698" type="line"/>
      <point x="65" y="0" type="line"/>
      <point x="87" y="0" type="line"/>
    </contour>
    <contour>
      <point x="144" y="342" type="line"/>
      <point x="200" y="678" type="line"/>
      <point x="415" y="678" type="line" smooth="yes"/>
      <point x="508" y="678"/>
      <point x="550" y="616"/>
      <point x="550" y="547" type="curve" smooth="yes"/>
      <point x="550" y="538"/>
      <point x="549" y="530"/>
      <point x="548" y="521" type="curve" smooth="yes"/>
      <point x="542" y="484" type="line" smooth="yes"/>
      <point x="529" y="402"/>
      <point x="474" y="342"/>
      <point x="371" y="342" type="curve" smooth="yes"/>
    </contour>
    <contour>
      <point x="258" y="0" type="move" name="bottom"/>
    </contour>
    <contour>
      <point x="364" y="698" type="move" name="top"/>
    </contour>
  </outline>
</glyph>
<glyph name="S" format="1">
  <advance width="600"/>
  <unicode hex="0053"/>
  <outline>
    <contour>
      <point x="274" y="-12" type="curve" smooth="yes" name="hr00"/>
      <point x="414" y="-12"/>
      <point x="506" y="61"/>
      <point x="506" y="196" type="curve" smooth="yes"/>
      <point x="506" y="281"/>
      <point x="459" y="335"/>
      <point x="359" y="358" type="curve" smooth="yes"/>
      <point x="273" y="378" type="line" smooth="yes"/>
      <point x="183" y="399"/>
      <point x="144" y="441"/>
      <point x="144" y="519" type="curve" smooth="yes"/>
      <point x="144" y="632"/>
      <point x="222" y="690"/>
      <point x="344" y="690" type="curve" smooth="yes"/>
      <point x="454" y="690"/>
      <point x="509" y="666"/>
      <point x="547" y="601" type="curve"/>
      <point x="565" y="612" type="line"/>
      <point x="529" y="675"/>
      <point x="470" y="710"/>
      <point x="345" y="710" type="curve" smooth="yes"/>
      <point x="214" y="710"/>
      <point x="122" y="645"/>
      <point x="122" y="519" type="curve" smooth="yes"/>
      <point x="122" y="434"/>
      <point x="167" y="381"/>
      <point x="266" y="358" type="curve" smooth="yes"/>
      <point x="352" y="338" type="line" smooth="yes"/>
      <point x="444" y="317"/>
      <point x="483" y="274"/>
      <point x="483" y="196" type="curve" smooth="yes"/>
      <point x="483" y="76"/>
      <point x="405" y="8"/>
      <point x="275" y="8" type="curve" smooth="yes"/>
      <point x="153" y="8"/>
      <point x="96" y="48"/>
      <point x="54" y="114" type="curve"/>
      <point x="37" y="101" type="line"/>
      <point x="80" y="33"/>
      <point x="145" y="-12"/>
    </contour>
    <contour>
      <point x="256" y="0" type="move" name="bottom"/>
    </contour>
    <contour>
      <point x="351" y="698" type="move" name="top"/>
    </contour>
  </outline>
</glyph>
<glyph name="T" format="1">
  <advance width="600"/>
  <unicode hex="0054"/>
  <outline>
    <contour>
      <point x="629" y="678" type="line" name="hr00"/>
      <point x="632" y="698" type="line"/>
      <point x="114" y="698" type="line"/>
      <point x="111" y="678" type="line"/>
      <point x="359" y="678" type="line"/>
      <point x="246" y="0" type="line"/>
      <point x="268" y="0" type="line"/>
      <point x="381" y="678" type="line"/>
    </contour>
    <contour>
      <point x="257" y="0" type="move" name="bottom"/>
    </contour>
    <contour>
      <point x="373" y="698" type="move" name="top"/>
    </contour>
  </outline>
</glyph>
<glyph name="U" format="1">
  <advance width="600"/>
  <unicode hex="0055"/>
  <outline>
    <contour>
      <point x="171" y="698" type="line" name="hr00"/>
      <point x="101" y="276" type="line" smooth="yes"/>
      <point x="93" y="228"/>
      <point x="87" y="184"/>
      <point x="87" y="149" type="curve" smooth="yes"/>
      <point x="87" y="32"/>
      <point x="142" y="-12"/>
      <point x="259" y="-12" type="curve" smooth="yes"/>
      <point x="412" y="-12"/>
      <point x="469" y="57"/>
      <point x="504" y="270" type="curve" smooth="yes"/>
      <point x="575" y="698" type="line"/>
      <point x="553" y="698" type="line"/>
      <point x="482" y="271" type="line" smooth="yes"/>
      <point x="449" y="73"/>
      <point x="401" y="8"/>
      <point x="261" y="8" type="curve" smooth="yes"/>
      <point x="154" y="8"/>
      <point x="108" y="44"/>
      <point x="108" y="149" type="curve" smooth="yes"/>
      <point x="108" y="183"/>
      <point x="114" y="221"/>
      <point x="122" y="271" type="curve" smooth="yes"/>
      <point x="193" y="698" type="line"/>
    </contour>
    <contour>
      <point x="256" y="0" type="move" name="bottom"/>
    </contour>
    <contour>
      <point x="348" y="0" type="move" name="bottomright"/>
    </contour>
    <contour>
      <point x="373" y="698" type="move" name="top"/>
    </contour>
  </outline>
</glyph>
<glyph name="V" format="1">
  <advance width="600"/>
  <unicode hex="0056"/>
  <outline>
    <contour>
      <point x="272" y="0" type="line" name="hr00"/>
      <point x="618" y="698" type="line"/>
      <point x="594" y="698" type="line"/>
      <point x="262" y="26" type="line"/>
      <point x="259" y="26" type="line"/>
      <point x="151" y="698" type="line"/>
      <point x="128" y="698" type="line"/>
      <point x="242" y="0" type="line"/>
    </contour>
    <contour>
      <point x="257" y="0" type="move" name="bottom"/>
    </contour>
    <contour>
      <point x="374" y="698" type="move" name="top"/>
    </contour>
  </outline>
</glyph>
<glyph name="W" format="1">
  <advance width="600"/>
  <unicode hex="0057"/>
  <outline>
    <contour>
      <point x="121" y="0" type="line" name="hr00"/>
      <point x="331" y="454" type="line"/>
      <point x="334" y="454" type="line"/>
      <point x="393" y="0" type="line"/>
      <point x="431" y="0" type="line"/>
      <point x="615" y="698" type="line"/>
      <point x="595" y="698" type="line"/>
      <point x="415" y="22" type="line"/>
      <point x="411" y="22" type="line"/>
      <point x="351" y="484" type="line"/>
      <point x="323" y="484" type="line"/>
      <point x="109" y="22" type="line"/>
      <point x="105" y="22" type="line"/>
      <point x="151" y="698" type="line"/>
      <point x="131" y="698" type="line"/>
      <point x="83" y="0" type="line"/>
    </contour>
    <contour>
      <point x="257" y="0" type="move" name="bottom"/>
    </contour>
    <contour>
      <point x="373" y="698" type="move" name="top"/>
    </contour>
  </outline>
</glyph>
<glyph name="X" format="1">
  <advance width="600"/>
  <unicode hex="0058"/>
  <outline>
    <contour>
      <point x="332" y="355" type="line" name="hr00"/>
      <point x="617" y="698" type="line"/>
      <point x="589" y="698" type="line"/>
      <point x="322" y="375" type="line"/>
      <point x="319" y="375" type="line"/>
      <point x="157" y="698" type="line"/>
      <point x="133" y="698" type="line"/>
      <point x="305" y="356" type="line"/>
      <point x="8" y="0" type="line"/>
      <point x="36" y="0" type="line"/>
      <point x="315" y="336" type="line"/>
      <point x="318" y="336" type="line"/>
      <point x="486" y="0" type="line"/>
      <point x="510" y="0" type="line"/>
    </contour>
    <contour>
      <point x="258" y="0" type="move" name="bottom"/>
    </contour>
    <contour>
      <point x="374" y="698" type="move" name="top"/>
    </contour>
  </outline>
</glyph>
<glyph name="Y" format="1">
  <advance width="600"/>
  <unicode hex="0059"/>
  <outline>
    <contour>
      <point x="268" y="0" type="line" name="hr00"/>
      <point x="317" y="294" type="line"/>
      <point x="645" y="698" type="line"/>
      <point x="619" y="698" type="line"/>
      <point x="310" y="317" type="line"/>
      <point x="307" y="317" type="line"/>
      <point x="124" y="698" type="line"/>
      <point x="101" y="698" type="line"/>
      <point x="295" y="294" type="line"/>
      <point x="246" y="0" type="line"/>
    </contour>
    <contour>
      <point x="257" y="0" type="move" name="bottom"/>
    </contour>
    <contour>
      <point x="374" y="698" type="move" name="top"/>
    </contour>
  </outline>
</glyph>
<glyph name="Z" format="1">
  <advance width="600"/>
  <unicode hex="005A"/>
  <outline>
    <contour>
      <point x="512" y="20" type="line" name="hr00"/>
      <point x="35" y="20" type="line"/>
      <point x="599" y="676" type="line"/>
      <point x="603" y="698" type="line"/>
      <point x="144" y="698" type="line"/>
      <point x="141" y="678" type="line"/>
      <point x="573" y="678" type="line"/>
      <point x="9" y="22" type="line"/>
      <point x="5" y="0" type="line"/>
      <point x="509" y="0" type="line"/>
    </contour>
    <contour>
      <point x="257" y="0" type="move" name="bottom"/>
    </contour>
    <contour>
      <point x="374" y="698" type="move" name="top"/>
    </contour>
  </outline>
</glyph>
<glyph name="bracketleft" format="1">
  <advance width="600"/>
  <unicode hex="005B"/>
  <outline>
    <contour>
      <point x="436" y="-138" type="line" name="hr00"/>
      <point x="439" y="-120" type="line"/>
      <point x="221" y="-120" type="line"/>
      <point x="365" y="742" type="line"/>
      <point x="583" y="742" type="line"/>
      <point x="586" y="760" type="line"/>
      <point x="348" y="760" type="line"/>
      <point x="198" y="-138" type="line"/>
    </contour>
  </outline>
</glyph>
<glyph name="backslash" format="1">
  <advance width="600"/>
  <unicode hex="005C"/>
  <outline>
    <contour>
      <point x="427" y="-138" type="line" name="hr00"/>
      <point x="216" y="760" type="line"/>
      <point x="199" y="760" type="line"/>
      <point x="410" y="-138" type="line"/>
    </contour>
  </outline>
</glyph>
<glyph name="bracketright" format="1">
  <advance width="600"/>
  <unicode hex="005D"/>
  <outline>
    <contour>
      <point x="181" y="760" type="line" name="hr00"/>
      <point x="178" y="742" type="line"/>
      <point x="396" y="742" type="line"/>
      <point x="252" y="-120" type="line"/>
      <point x="34" y="-120" type="line"/>
      <point x="31" y="-138" type="line"/>
      <point x="269" y="-138" type="line"/>
      <point x="419" y="760" type="line"/>
    </contour>
  </outline>
</glyph>
<glyph name="asciicircum" format="1">
  <advance width="600"/>
  <unicode hex="005E"/>
  <outline>
    <contour>
      <point x="545" y="331" type="line" name="hr00"/>
      <point x="384" y="698" type="line"/>
      <point x="362" y="698" type="line"/>
      <point x="82" y="332" type="line"/>
      <point x="98" y="321" type="line"/>
      <point x="370" y="676" type="line"/>
      <point x="372" y="676" type="line"/>
      <point x="527" y="322" type="line"/>
    </contour>
  </outline>
</glyph>
<glyph name="underscore" format="1">
  <advance width="600"/>
  <unicode hex="005F"/>
  <outline>
    <contour>
      <point x="474" y="-141" type="line" name="hr00"/>
      <point x="477" y="-122" type="line"/>
      <point x="-3" y="-122" type="line"/>
      <point x="-6" y="-141" type="line"/>
    </contour>
  </outline>
</glyph>
<glyph name="grave" format="1">
  <advance width="600"/>
  <unicode hex="0060"/>
  <outline>
    <contour>
      <point x="331" y="597" type="line" name="hr00"/>
      <point x="347" y="606" type="line"/>
      <point x="262" y="761" type="line"/>
      <point x="242" y="750" type="line"/>
    </contour>
    <contour>
      <point x="300" y="516" type="move" name="_top"/>
    </contour>
  </outline>
</glyph>
<glyph name="a" format="1">
  <advance width="600"/>
  <unicode hex="0061"/>
  <outline>
    <contour>
      <point x="433" y="0" type="line"/>
      <point x="519" y="516" type="line"/>
      <point x="498" y="516" type="line"/>
      <point x="483" y="423" type="line"/>
      <point x="480" y="423" type="line"/>
      <point x="460" y="484"/>
      <point x="404" y="528"/>
      <point x="313" y="528" type="curve" smooth="yes" name="hr01"/>
      <point x="167" y="528"/>
      <point x="71" y="384"/>
      <point x="71" y="186" type="curve" smooth="yes"/>
      <point x="71" y="72"/>
      <point x="130" y="-12"/>
      <point x="244" y="-12" type="curve" smooth="yes"/>
      <point x="335" y="-12"/>
      <point x="389" y="40"/>
      <point x="428" y="115" type="curve"/>
      <point x="431" y="115" type="line"/>
      <point x="412" y="0" type="line" name="hr02"/>
    </contour>
    <contour>
      <point x="244" y="7" type="curve" smooth="yes" name="hr03"/>
      <point x="135" y="7"/>
      <point x="91" y="89"/>
      <point x="91" y="186" type="curve" smooth="yes"/>
      <point x="91" y="203"/>
      <point x="92" y="220"/>
      <point x="95" y="237" type="curve" smooth="yes"/>
      <point x="103" y="286" type="line" smooth="yes"/>
      <point x="124" y="412"/>
      <point x="199" y="509"/>
      <point x="313" y="509" type="curve" smooth="yes"/>
      <point x="441" y="509"/>
      <point x="482" y="424"/>
      <point x="471" y="355" type="curve" smooth="yes"/>
      <point x="446" y="204" type="line" smooth="yes"/>
      <point x="435" y="138"/>
      <point x="397" y="83"/>
      <point x="358" y="48" type="curve" smooth="yes"/>
      <point x="325" y="19"/>
      <point x="288" y="7"/>
    </contour>
    <contour>
      <point x="235" y="0" type="move" name="bottom"/>
    </contour>
    <contour>
      <point x="433" y="0" type="move" name="bottomright"/>
    </contour>
    <contour>
      <point x="321" y="516" type="move" name="top"/>
    </contour>
  </outline>
</glyph>
<glyph name="b" format="1">
  <advance width="600"/>
  <unicode hex="0062"/>
  <outline>
    <contour>
      <point x="80" y="0" type="line"/>
      <point x="101" y="0" type="line"/>
      <point x="116" y="93" type="line"/>
      <point x="119" y="93" type="line"/>
      <point x="139" y="32"/>
      <point x="195" y="-12"/>
      <point x="286" y="-12" type="curve" smooth="yes" name="hr01"/>
      <point x="432" y="-12"/>
      <point x="528" y="132"/>
      <point x="528" y="330" type="curve" smooth="yes"/>
      <point x="528" y="444"/>
      <point x="469" y="528"/>
      <point x="355" y="528" type="curve" smooth="yes"/>
      <point x="264" y="528"/>
      <point x="210" y="476"/>
      <point x="171" y="401" type="curve"/>
      <point x="168" y="401" type="line"/>
      <point x="224" y="740" type="line" name="hr02"/>
      <point x="203" y="740" type="line"/>
    </contour>
    <contour>
      <point x="286" y="7" type="curve" smooth="yes" name="hr03"/>
      <point x="158" y="7"/>
      <point x="117" y="92"/>
      <point x="128" y="161" type="curve" smooth="yes"/>
      <point x="153" y="312" type="line" smooth="yes"/>
      <point x="164" y="378"/>
      <point x="202" y="433"/>
      <point x="241" y="468" type="curve" smooth="yes"/>
      <point x="274" y="497"/>
      <point x="311" y="509"/>
      <point x="355" y="509" type="curve" smooth="yes"/>
      <point x="464" y="509"/>
      <point x="508" y="427"/>
      <point x="508" y="330" type="curve" smooth="yes"/>
      <point x="508" y="313"/>
      <point x="507" y="296"/>
      <point x="504" y="279" type="curve" smooth="yes"/>
      <point x="496" y="230" type="line" smooth="yes"/>
      <point x="475" y="104"/>
      <point x="400" y="7"/>
    </contour>
    <contour>
      <point x="286" y="0" type="move" name="bottom"/>
    </contour>
  </outline>
</glyph>
<glyph name="e" format="1">
  <advance width="600"/>
  <unicode hex="0065"/>
  <outline>
    <contour>
      <point x="273" y="-12" type="curve" smooth="yes" name="hr00"/>
      <point x="365" y="-12"/>
      <point x="433" y="36"/>
      <point x="488" y="141" type="curve"/>
      <point x="470" y="150" type="line"/>
      <point x="426" y="61"/>
      <point x="362" y="7"/>
      <point x="273" y="7" type="curve" smooth="yes"/>
      <point x="149" y="7"/>
      <point x="103" y="95"/>
      <point x="103" y="205" type="curve" smooth="yes"/>
      <point x="103" y="206"/>
      <point x="103" y="220"/>
      <point x="104" y="231" type="curve"/>
      <point x="461" y="238"/>
      <point x="505" y="338"/>
      <point x="505" y="405" type="curve" smooth="yes"/>
      <point x="505" y="481"/>
      <point x="444" y="528"/>
      <point x="343" y="528" type="curve" smooth="yes"/>
      <point x="189" y="528"/>
      <point x="83" y="382"/>
      <point x="83" y="212" type="curve" smooth="yes"/>
      <point x="83" y="66"/>
      <point x="149" y="-12"/>
    </contour>
    <contour>
      <point x="341" y="509" type="curve" smooth="yes"/>
      <point x="443" y="509"/>
      <point x="483" y="464"/>
      <point x="483" y="405" type="curve" smooth="yes"/>
      <point x="483" y="332"/>
      <point x="422" y="255"/>
      <point x="106" y="250" type="curve"/>
      <point x="111" y="281" type="line" smooth="yes"/>
      <point x="134" y="425"/>
      <point x="233" y="509"/>
    </contour>
    <contour>
      <point x="271" y="0" type="move" name="bottom"/>
    </contour>
    <contour>
      <point x="346" y="0" type="move" name="bottomright"/>
    </contour>
    <contour>
      <point x="341" y="516" type="move" name="top"/>
    </contour>
  </outline>
</glyph>
<glyph name="f" format="1">
  <advance width="600"/>
  <unicode hex="0066"/>
  <outline>
    <contour>
      <point x="209" y="-212" type="curve" smooth="yes" name="hr00"/>
      <point x="225" y="-212"/>
      <point x="231" y="-201"/>
      <point x="235" y="-178" type="curve" smooth="yes"/>
      <point x="348" y="497" type="line"/>
      <point x="573" y="497" type="line"/>
      <point x="576" y="516" type="line"/>
      <point x="351" y="516" type="line"/>
      <point x="385" y="721" type="line"/>
      <point x="610" y="721" type="line"/>
      <point x="613" y="740" type="line"/>
      <point x="394" y="740" type="line" smooth="yes"/>
      <point x="374" y="740"/>
      <point x="365" y="732"/>
      <point x="362" y="711" type="curve" smooth="yes"/>
      <point x="330" y="516" type="line"/>
      <point x="137" y="516" type="line"/>
      <point x="134" y="497" type="line"/>
      <point x="327" y="497" type="line"/>
      <point x="212" y="-191" type="line"/>
      <point x="206" y="-193" type="line"/>
      <point x="4" y="-12" type="line"/>
      <point x="-10" y="-26" type="line"/>
      <point x="178" y="-195" type="line" smooth="yes"/>
      <point x="191" y="-206"/>
      <point x="199" y="-212"/>
    </contour>
  </outline>
</glyph>
<glyph name="h" format="1">
  <advance width="600"/>
  <unicode hex="0068"/>
  <outline>
    <contour>
      <point x="88" y="0" type="line" name="hr00"/>
      <point x="109" y="0" type="line"/>
      <point x="161" y="312" type="line" smooth="yes"/>
      <point x="171" y="370"/>
      <point x="202" y="418"/>
      <point x="223" y="444" type="curve" smooth="yes"/>
      <point x="261" y="492"/>
      <point x="310" y="509"/>
      <point x="357" y="509" type="curve" smooth="yes"/>
      <point x="435" y="509"/>
      <point x="477" y="468"/>
      <point x="477" y="386" type="curve" smooth="yes"/>
      <point x="477" y="367"/>
      <point x="475" y="346"/>
      <point x="472" y="329" type="curve" smooth="yes"/>
      <point x="417" y="0" type="line"/>
      <point x="438" y="0" type="line"/>
      <point x="493" y="330" type="line" smooth="yes"/>
      <point x="496" y="349"/>
      <point x="498" y="368"/>
      <point x="498" y="387" type="curve" smooth="yes"/>
      <point x="498" y="476"/>
      <point x="449" y="528"/>
      <point x="360" y="528" type="curve" smooth="yes"/>
      <point x="272" y="528"/>
      <point x="218" y="480"/>
      <point x="179" y="402" type="curve"/>
      <point x="176" y="402" type="line"/>
      <point x="232" y="740" type="line"/>
      <point x="211" y="740" type="line"/>
    </contour>
    <contour>
      <point x="262" y="0" type="move" name="bottom"/>
    </contour>
    <contour>
      <point x="215" y="698" type="move" name="top"/>
    </contour>
  </outline>
</glyph>
<glyph name="i" format="1">
  <advance width="600"/>
  <unicode hex="0069"/>
  <outline>
    <contour>
      <point x="350" y="691" type="curve" smooth="yes" name="hr00"/>
      <point x="368" y="691"/>
      <point x="377" y="699"/>
      <point x="380" y="713" type="curve" smooth="yes"/>
      <point x="381" y="719"/>
      <point x="382" y="723"/>
      <point x="382" y="727" type="curve" smooth="yes"/>
      <point x="382" y="736"/>
      <point x="376" y="745"/>
      <point x="356" y="745" type="curve" smooth="yes"/>
      <point x="338" y="745"/>
      <point x="329" y="737"/>
      <point x="326" y="723" type="curve" smooth="yes"/>
      <point x="325" y="717"/>
      <point x="324" y="713"/>
      <point x="324" y="709" type="curve" smooth="yes"/>
      <point x="324" y="700"/>
      <point x="330" y="691"/>
    </contour>
    <contour>
      <point x="223" y="-12" type="curve" smooth="yes"/>
      <point x="235" y="-12"/>
      <point x="247" y="-2"/>
      <point x="264" y="9" type="curve" smooth="yes"/>
      <point x="507" y="174" type="line"/>
      <point x="496" y="189" type="line"/>
      <point x="231" y="10" type="line"/>
      <point x="226" y="13" type="line"/>
      <point x="324" y="516" type="line"/>
      <point x="94" y="516" type="line"/>
      <point x="91" y="497" type="line"/>
      <point x="299" y="497" type="line"/>
      <point x="211" y="42" type="line" smooth="yes"/>
      <point x="206" y="17"/>
      <point x="205" y="11"/>
      <point x="205" y="7" type="curve" smooth="yes"/>
      <point x="205" y="-4"/>
      <point x="211" y="-12"/>
    </contour>
    <contour>
      <point x="222" y="0" type="move" name="bottom"/>
    </contour>
    <contour>
      <point x="250" y="0" type="move" name="bottomright"/>
    </contour>
  </outline>
</glyph>
<glyph name="j" format="1">
  <advance width="600"/>
  <unicode hex="006A"/>
  <outline>
    <contour>
      <point x="329" y="-212" type="curve" smooth="yes" name="hr00"/>
      <point x="345" y="-212"/>
      <point x="351" y="-201"/>
      <point x="355" y="-178" type="curve" smooth="yes"/>
      <point x="470" y="516" type="line"/>
      <point x="139" y="516" type="line"/>
      <point x="136" y="497" type="line"/>
      <point x="446" y="497" type="line"/>
      <point x="332" y="-190" type="line"/>
      <point x="326" y="-192" type="line"/>
      <point x="124" y="-12" type="line"/>
      <point x="110" y="-26" type="line"/>
      <point x="298" y="-195" type="line" smooth="yes"/>
      <point x="311" y="-206"/>
      <point x="319" y="-212"/>
    </contour>
    <contour>
      <point x="487" y="691" type="curve" smooth="yes"/>
      <point x="505" y="691"/>
      <point x="514" y="699"/>
      <point x="517" y="713" type="curve" smooth="yes"/>
      <point x="518" y="719"/>
      <point x="519" y="723"/>
      <point x="519" y="727" type="curve" smooth="yes"/>
      <point x="519" y="736"/>
      <point x="513" y="745"/>
      <point x="493" y="745" type="curve" smooth="yes"/>
      <point x="475" y="745"/>
      <point x="466" y="737"/>
      <point x="463" y="723" type="curve" smooth="yes"/>
      <point x="462" y="717"/>
      <point x="461" y="713"/>
      <point x="461" y="709" type="curve" smooth="yes"/>
      <point x="461" y="700"/>
      <point x="467" y="691"/>
    </contour>
  </outline>
</glyph>
<glyph name="k" format="1">
  <advance width="600"/>
  <unicode hex="006B"/>
  <outline>
    <contour>
      <point x="79" y="0" type="line"/>
      <point x="100" y="0" type="line"/>
      <point x="152" y="312" type="line" smooth="yes"/>
      <point x="162" y="369"/>
      <point x="191" y="425"/>
      <point x="237" y="464" type="curve" smooth="yes"/>
      <point x="273" y="495"/>
      <point x="319" y="509"/>
      <point x="368" y="509" type="curve" smooth="yes"/>
      <point x="452" y="509"/>
      <point x="484" y="469"/>
      <point x="484" y="411" type="curve" smooth="yes"/>
      <point x="484" y="340"/>
      <point x="429" y="277"/>
      <point x="231" y="231" type="curve"/>
      <point x="355" y="13" type="line" smooth="yes"/>
      <point x="365" y="-4"/>
      <point x="370" y="-12"/>
      <point x="382" y="-12" type="curve" smooth="yes" name="hr01"/>
      <point x="395" y="-12"/>
      <point x="403" y="-3"/>
      <point x="434" y="26" type="curve" smooth="yes"/>
      <point x="574" y="158" type="line"/>
      <point x="562" y="171" type="line"/>
      <point x="386" y="9" type="line"/>
      <point x="381" y="9" type="line"/>
      <point x="259" y="222" type="line"/>
      <point x="460" y="268"/>
      <point x="506" y="344"/>
      <point x="506" y="411" type="curve" smooth="yes"/>
      <point x="506" y="478"/>
      <point x="464" y="528"/>
      <point x="369" y="528" type="curve" smooth="yes"/>
      <point x="291" y="528"/>
      <point x="218" y="494"/>
      <point x="170" y="402" type="curve"/>
      <point x="167" y="402" type="line"/>
      <point x="223" y="740" type="line" name="hr02"/>
      <point x="202" y="740" type="line"/>
    </contour>
    <contour>
      <point x="233" y="0" type="move" name="bottom"/>
    </contour>
  </outline>
</glyph>
<glyph name="l" format="1">
  <advance width="600"/>
  <unicode hex="006C"/>
  <outline>
    <contour>
      <point x="214" y="-12" type="curve" smooth="yes" name="hr00"/>
      <point x="226" y="-12"/>
      <point x="238" y="-3"/>
      <point x="255" y="9" type="curve" smooth="yes"/>
      <point x="498" y="174" type="line"/>
      <point x="487" y="189" type="line"/>
      <point x="222" y="10" type="line"/>
      <point x="217" y="13" type="line"/>
      <point x="358" y="740" type="line"/>
      <point x="128" y="740" type="line"/>
      <point x="125" y="721" type="line"/>
      <point x="333" y="721" type="line"/>
      <point x="201" y="42" type="line" smooth="yes"/>
      <point x="197" y="21"/>
      <point x="196" y="11"/>
      <point x="196" y="7" type="curve" smooth="yes"/>
      <point x="196" y="-4"/>
      <point x="202" y="-12"/>
    </contour>
    <contour>
      <point x="216" y="0" type="move" name="bottom"/>
    </contour>
    <contour>
      <point x="339" y="698" type="move" name="top"/>
    </contour>
    <contour>
      <point x="462" y="740" type="move" name="topright"/>
    </contour>
  </outline>
</glyph>
<glyph name="m" format="1">
  <advance width="600"/>
  <unicode hex="006D"/>
  <outline>
    <contour>
      <point x="63" y="0" type="line"/>
      <point x="123" y="360" type="line" smooth="yes"/>
      <point x="131" y="406"/>
      <point x="154" y="441"/>
      <point x="174" y="466" type="curve" smooth="yes"/>
      <point x="195" y="492"/>
      <point x="221" y="509"/>
      <point x="259" y="509" type="curve" smooth="yes"/>
      <point x="303" y="509"/>
      <point x="329" y="485"/>
      <point x="329" y="438" type="curve" smooth="yes"/>
      <point x="329" y="423"/>
      <point x="326" y="404"/>
      <point x="323" y="384" type="curve" smooth="yes"/>
      <point x="259" y="0" type="line"/>
      <point x="280" y="0" type="line"/>
      <point x="341" y="366" type="line" smooth="yes"/>
      <point x="348" y="406"/>
      <point x="367" y="441"/>
      <point x="387" y="464" type="curve" smooth="yes"/>
      <point x="415" y="496"/>
      <point x="441" y="509"/>
      <point x="474" y="509" type="curve" smooth="yes"/>
      <point x="521" y="509"/>
      <point x="545" y="478"/>
      <point x="545" y="431" type="curve" smooth="yes"/>
      <point x="545" y="418"/>
      <point x="543" y="401"/>
      <point x="540" y="384" type="curve" smooth="yes"/>
      <point x="476" y="0" type="line"/>
      <point x="497" y="0" type="line"/>
      <point x="562" y="390" type="line" smooth="yes"/>
      <point x="564" y="404"/>
      <point x="566" y="419"/>
      <point x="566" y="431" type="curve" smooth="yes"/>
      <point x="566" y="487"/>
      <point x="533" y="528"/>
      <point x="477" y="528" type="curve" smooth="yes"/>
      <point x="418" y="528"/>
      <point x="374" y="484"/>
      <point x="350" y="433" type="curve"/>
      <point x="347" y="433" type="line"/>
      <point x="351" y="493"/>
      <point x="319" y="528"/>
      <point x="262" y="528" type="curve" smooth="yes"/>
      <point x="200" y="528"/>
      <point x="161" y="481"/>
      <point x="139" y="438" type="curve"/>
      <point x="136" y="438" type="line"/>
      <point x="149" y="516" type="line" name="hr01"/>
      <point x="128" y="516" type="line"/>
      <point x="42" y="0" type="line"/>
    </contour>
    <contour>
      <point x="269" y="0" type="move" name="bottom"/>
    </contour>
    <contour>
      <point x="359" y="516" type="move" name="top"/>
    </contour>
  </outline>
</glyph>
<glyph name="n" format="1">
  <advance width="600"/>
  <unicode hex="006E"/>
  <outline>
    <contour>
      <point x="109" y="0" type="line"/>
      <point x="161" y="312" type="line" smooth="yes"/>
      <point x="171" y="370"/>
      <point x="202" y="418"/>
      <point x="223" y="444" type="curve" smooth="yes"/>
      <point x="261" y="492"/>
      <point x="310" y="509"/>
      <point x="357" y="509" type="curve" smooth="yes"/>
      <point x="435" y="509"/>
      <point x="477" y="468"/>
      <point x="477" y="386" type="curve" smooth="yes"/>
      <point x="477" y="367"/>
      <point x="475" y="346"/>
      <point x="472" y="329" type="curve" smooth="yes"/>
      <point x="417" y="0" type="line"/>
      <point x="438" y="0" type="line"/>
      <point x="493" y="330" type="line" smooth="yes"/>
      <point x="496" y="349"/>
      <point x="498" y="368"/>
      <point x="498" y="387" type="curve" smooth="yes"/>
      <point x="498" y="476"/>
      <point x="449" y="528"/>
      <point x="360" y="528" type="curve" smooth="yes"/>
      <point x="272" y="528"/>
      <point x="218" y="480"/>
      <point x="179" y="402" type="curve"/>
      <point x="176" y="402" type="line"/>
      <point x="195" y="516" type="line" name="hr01"/>
      <point x="174" y="516" type="line"/>
      <point x="88" y="0" type="line"/>
    </contour>
    <contour>
      <point x="262" y="0" type="move" name="bottom"/>
    </contour>
    <contour>
      <point x="349" y="516" type="move" name="top"/>
    </contour>
  </outline>
</glyph>
<glyph name="r" format="1">
  <advance width="600"/>
  <unicode hex="0072"/>
  <outline>
    <contour>
      <point x="236" y="0" type="line" name="hr00"/>
      <point x="296" y="359" type="line" smooth="yes"/>
      <point x="304" y="408"/>
      <point x="331" y="443"/>
      <point x="367" y="466" type="curve" smooth="yes"/>
      <point x="399" y="487"/>
      <point x="438" y="497"/>
      <point x="477" y="497" type="curve" smooth="yes"/>
      <point x="596" y="497" type="line"/>
      <point x="599" y="516" type="line"/>
      <point x="480" y="516" type="line" smooth="yes"/>
      <point x="388" y="516"/>
      <point x="348" y="483"/>
      <point x="310" y="429" type="curve"/>
      <point x="307" y="429" type="line"/>
      <point x="322" y="516" type="line"/>
      <point x="123" y="516" type="line"/>
      <point x="120" y="497" type="line"/>
      <point x="298" y="497" type="line"/>
      <point x="215" y="0" type="line"/>
    </contour>
    <contour>
      <point x="225" y="0" type="move" name="bottom"/>
    </contour>
    <contour>
      <point x="365" y="516" type="move" name="top"/>
    </contour>
  </outline>
</glyph>
<glyph name="s" format="1">
  <advance width="600"/>
  <unicode hex="0073"/>
  <outline>
    <contour>
      <point x="285" y="-12" type="curve" smooth="yes" name="hr00"/>
      <point x="404" y="-12"/>
      <point x="499" y="41"/>
      <point x="499" y="154" type="curve" smooth="yes"/>
      <point x="499" y="236"/>
      <point x="440" y="266"/>
      <point x="358" y="273" type="curve" smooth="yes"/>
      <point x="280" y="280" type="line" smooth="yes"/>
      <point x="200" y="287"/>
      <point x="156" y="312"/>
      <point x="156" y="380" type="curve" smooth="yes"/>
      <point x="156" y="468"/>
      <point x="224" y="509"/>
      <point x="329" y="509" type="curve" smooth="yes"/>
      <point x="431" y="509"/>
      <point x="481" y="474"/>
      <point x="510" y="433" type="curve"/>
      <point x="526" y="447" type="line"/>
      <point x="494" y="489"/>
      <point x="438" y="528"/>
      <point x="330" y="528" type="curve" smooth="yes"/>
      <point x="224" y="528"/>
      <point x="135" y="486"/>
      <point x="135" y="380" type="curve" smooth="yes"/>
      <point x="135" y="298"/>
      <point x="193" y="268"/>
      <point x="275" y="261" type="curve" smooth="yes"/>
      <point x="353" y="254" type="line" smooth="yes"/>
      <point x="433" y="247"/>
      <point x="478" y="221"/>
      <point x="478" y="153" type="curve" smooth="yes"/>
      <point x="478" y="56"/>
      <point x="401" y="7"/>
      <point x="285" y="7" type="curve" smooth="yes"/>
      <point x="190" y="7"/>
      <point x="122" y="34"/>
      <point x="80" y="102" type="curve"/>
      <point x="63" y="90" type="line"/>
      <point x="108" y="21"/>
      <point x="182" y="-12"/>
    </contour>
    <contour>
      <point x="275" y="0" type="move" name="bottom"/>
    </contour>
    <contour>
      <point x="334" y="516" type="move" name="top"/>
    </contour>
  </outline>
</glyph>
<glyph name="t" format="1">
  <advance width="600"/>
  <unicode hex="0074"/>
  <outline>
    <contour>
      <point x="213" y="-12" type="curve" smooth="yes" name="hr00"/>
      <point x="226" y="-12"/>
      <point x="238" y="-2"/>
      <point x="256" y="9" type="curve" smooth="yes"/>
      <point x="512" y="167" type="line"/>
      <point x="502" y="183" type="line"/>
      <point x="221" y="10" type="line"/>
      <point x="216" y="13" type="line"/>
      <point x="298" y="497" type="line"/>
      <point x="562" y="497" type="line"/>
      <point x="565" y="516" type="line"/>
      <point x="301" y="516" type="line"/>
      <point x="331" y="698" type="line"/>
      <point x="310" y="698" type="line"/>
      <point x="285" y="545" type="line" smooth="yes"/>
      <point x="282" y="525"/>
      <point x="271" y="516"/>
      <point x="251" y="516" type="curve" smooth="yes"/>
      <point x="79" y="516" type="line"/>
      <point x="76" y="497" type="line"/>
      <point x="277" y="497" type="line"/>
      <point x="200" y="42" type="line" smooth="yes"/>
      <point x="196" y="18"/>
      <point x="195" y="11"/>
      <point x="195" y="6" type="curve" smooth="yes"/>
      <point x="195" y="-4"/>
      <point x="201" y="-12"/>
    </contour>
    <contour>
      <point x="213" y="0" type="move" name="bottom"/>
    </contour>
    <contour>
      <point x="473" y="760" type="move" name="topright"/>
    </contour>
  </outline>
</glyph>
<glyph name="u" format="1">
  <advance width="600"/>
  <unicode hex="0075"/>
  <outline>
    <contour>
      <point x="405" y="0" type="line"/>
      <point x="426" y="0" type="line"/>
      <point x="512" y="516" type="line"/>
      <point x="491" y="516" type="line"/>
      <point x="439" y="204" type="line" smooth="yes"/>
      <point x="429" y="146"/>
      <point x="398" y="98"/>
      <point x="377" y="72" type="curve" smooth="yes"/>
      <point x="339" y="24"/>
      <point x="290" y="7"/>
      <point x="243" y="7" type="curve" smooth="yes" name="hr01"/>
      <point x="165" y="7"/>
      <point x="123" y="48"/>
      <point x="123" y="130" type="curve" smooth="yes"/>
      <point x="123" y="149"/>
      <point x="125" y="170"/>
      <point x="128" y="187" type="curve" smooth="yes"/>
      <point x="183" y="516" type="line"/>
      <point x="162" y="516" type="line"/>
      <point x="107" y="186" type="line" smooth="yes"/>
      <point x="104" y="167"/>
      <point x="102" y="148"/>
      <point x="102" y="129" type="curve" smooth="yes"/>
      <point x="102" y="40"/>
      <point x="151" y="-12"/>
      <point x="240" y="-12" type="curve" smooth="yes"/>
      <point x="328" y="-12"/>
      <point x="382" y="36"/>
      <point x="421" y="114" type="curve" name="hr02"/>
      <point x="424" y="114" type="line"/>
    </contour>
    <contour>
      <point x="252" y="0" type="move" name="bottom"/>
    </contour>
    <contour>
      <point x="426" y="0" type="move" name="bottomright"/>
    </contour>
    <contour>
      <point x="338" y="516" type="move" name="top"/>
    </contour>
  </outline>
</glyph>
<glyph name="v" format="1">
  <advance width="600"/>
  <unicode hex="0076"/>
  <outline>
    <contour>
      <point x="87" y="516" type="line" name="hr00"/>
      <point x="84" y="497" type="line"/>
      <point x="211" y="497" type="line"/>
      <point x="146" y="42" type="line" smooth="yes"/>
      <point x="144" y="29"/>
      <point x="143" y="22"/>
      <point x="143" y="17" type="curve" smooth="yes"/>
      <point x="143" y="4"/>
      <point x="154" y="-4"/>
      <point x="176" y="-4" type="curve" smooth="yes"/>
      <point x="372" y="-4"/>
      <point x="530" y="184"/>
      <point x="530" y="406" type="curve" smooth="yes"/>
      <point x="530" y="441"/>
      <point x="524" y="488"/>
      <point x="512" y="520" type="curve"/>
      <point x="492" y="512" type="line"/>
      <point x="503" y="483"/>
      <point x="510" y="445"/>
      <point x="510" y="406" type="curve" smooth="yes"/>
      <point x="510" y="205"/>
      <point x="370" y="13"/>
      <point x="170" y="13" type="curve"/>
      <point x="163" y="19" type="line"/>
      <point x="234" y="516" type="line"/>
    </contour>
    <contour>
      <point x="242" y="0" type="move" name="bottom"/>
    </contour>
    <contour>
      <point x="337" y="516" type="move" name="top"/>
    </contour>
  </outline>
</glyph>
<glyph name="w" format="1">
  <advance width="600"/>
  <unicode hex="0077"/>
  <outline>
    <contour>
      <point x="160" y="-12" type="curve" smooth="yes" name="hr00"/>
      <point x="221" y="-12"/>
      <point x="265" y="30"/>
      <point x="288" y="98" type="curve"/>
      <point x="291" y="98" type="line"/>
      <point x="287" y="23"/>
      <point x="327" y="-12"/>
      <point x="379" y="-12" type="curve" smooth="yes"/>
      <point x="434" y="-12"/>
      <point x="476" y="19"/>
      <point x="506" y="67" type="curve" smooth="yes"/>
      <point x="548" y="133"/>
      <point x="566" y="232"/>
      <point x="566" y="336" type="curve" smooth="yes"/>
      <point x="566" y="410"/>
      <point x="553" y="476"/>
      <point x="534" y="519" type="curve"/>
      <point x="514" y="513" type="line"/>
      <point x="534" y="471"/>
      <point x="545" y="402"/>
      <point x="545" y="336" type="curve" smooth="yes"/>
      <point x="545" y="156"/>
      <point x="486" y="7"/>
      <point x="380" y="7" type="curve" smooth="yes"/>
      <point x="332" y="7"/>
      <point x="308" y="42"/>
      <point x="308" y="90" type="curve" smooth="yes"/>
      <point x="308" y="115"/>
      <point x="311" y="144"/>
      <point x="315" y="169" type="curve" smooth="yes"/>
      <point x="373" y="516" type="line"/>
      <point x="352" y="516" type="line"/>
      <point x="294" y="168" type="line" smooth="yes"/>
      <point x="288" y="131"/>
      <point x="275" y="94"/>
      <point x="256" y="65" type="curve" smooth="yes"/>
      <point x="234" y="31"/>
      <point x="202" y="7"/>
      <point x="162" y="7" type="curve" smooth="yes"/>
      <point x="122" y="7"/>
      <point x="94" y="33"/>
      <point x="94" y="79" type="curve" smooth="yes"/>
      <point x="94" y="103"/>
      <point x="96" y="120"/>
      <point x="102" y="158" type="curve" smooth="yes"/>
      <point x="162" y="516" type="line"/>
      <point x="141" y="516" type="line"/>
      <point x="82" y="162" type="line" smooth="yes"/>
      <point x="78" y="136"/>
      <point x="73" y="104"/>
      <point x="73" y="78" type="curve" smooth="yes"/>
      <point x="73" y="27"/>
      <point x="103" y="-12"/>
    </contour>
    <contour>
      <point x="275" y="0" type="move" name="bottom"/>
    </contour>
    <contour>
      <point x="362" y="516" type="move" name="top"/>
    </contour>
  </outline>
</glyph>
<glyph name="x" format="1">
  <advance width="600"/>
  <unicode hex="0078"/>
  <outline>
    <contour>
      <point x="119" y="-12" type="curve" smooth="yes"/>
      <point x="189" y="-12"/>
      <point x="254" y="52"/>
      <point x="286" y="179" type="curve"/>
      <point x="289" y="179" type="line"/>
      <point x="294" y="57"/>
      <point x="342" y="-12"/>
      <point x="370" y="-12" type="curve" smooth="yes"/>
      <point x="381" y="-12"/>
      <point x="386" y="-10"/>
      <point x="401" y="-2" type="curve" smooth="yes"/>
      <point x="555" y="79" type="line"/>
      <point x="546" y="94" type="line"/>
      <point x="374" y="5" type="line"/>
      <point x="367" y="7" type="line"/>
      <point x="338" y="32"/>
      <point x="309" y="101"/>
      <point x="309" y="187" type="curve" smooth="yes"/>
      <point x="309" y="277"/>
      <point x="362" y="509"/>
      <point x="485" y="509" type="curve" smooth="yes"/>
      <point x="530" y="509"/>
      <point x="562" y="478"/>
      <point x="562" y="414" type="curve" smooth="yes"/>
      <point x="562" y="398"/>
      <point x="560" y="369"/>
      <point x="555" y="344" type="curve"/>
      <point x="576" y="345" type="line"/>
      <point x="581" y="369"/>
      <point x="583" y="397"/>
      <point x="583" y="414" type="curve" smooth="yes"/>
      <point x="583" y="488"/>
      <point x="543" y="528"/>
      <point x="488" y="528" type="curve" smooth="yes"/>
      <point x="418" y="528"/>
      <point x="353" y="464"/>
      <point x="321" y="337" type="curve"/>
      <point x="318" y="337" type="line" name="hr01"/>
      <point x="313" y="459"/>
      <point x="266" y="528"/>
      <point x="238" y="528" type="curve" smooth="yes"/>
      <point x="229" y="528"/>
      <point x="221" y="527"/>
      <point x="202" y="518" type="curve" smooth="yes"/>
      <point x="48" y="446" type="line"/>
      <point x="56" y="431" type="line"/>
      <point x="233" y="511" type="line"/>
      <point x="240" y="509" type="line"/>
      <point x="269" y="484"/>
      <point x="298" y="414"/>
      <point x="298" y="332" type="curve" smooth="yes"/>
      <point x="298" y="238"/>
      <point x="245" y="7"/>
      <point x="120" y="7" type="curve" smooth="yes"/>
      <point x="77" y="7"/>
      <point x="45" y="38"/>
      <point x="45" y="102" type="curve" smooth="yes"/>
      <point x="45" y="118"/>
      <point x="47" y="147"/>
      <point x="52" y="172" type="curve"/>
      <point x="31" y="171" type="line"/>
      <point x="26" y="147"/>
      <point x="24" y="119"/>
      <point x="24" y="102" type="curve" smooth="yes"/>
      <point x="24" y="28"/>
      <point x="64" y="-12"/>
    </contour>
    <contour>
      <point x="261" y="0" type="move" name="bottom"/>
    </contour>
    <contour>
      <point x="344" y="516" type="move" name="top"/>
    </contour>
  </outline>
</glyph>
<glyph name="z" format="1">
  <advance width="600"/>
  <unicode hex="007A"/>
  <outline>
    <contour>
      <point x="458" y="-12" type="curve" smooth="yes"/>
      <point x="475" y="-12"/>
      <point x="485" y="1"/>
      <point x="485" y="13" type="curve" smooth="yes"/>
      <point x="485" y="24"/>
      <point x="481" y="46"/>
      <point x="473" y="92" type="curve" smooth="yes"/>
      <point x="456" y="196" type="line"/>
      <point x="439" y="193" type="line"/>
      <point x="465" y="10" type="line"/>
      <point x="459" y="5" type="line"/>
      <point x="100" y="77" type="line"/>
      <point x="527" y="444" type="line"/>
      <point x="540" y="516" type="line"/>
      <point x="519" y="516" type="line"/>
      <point x="506" y="452" type="line"/>
      <point x="503" y="449" type="line"/>
      <point x="459" y="467" type="line" smooth="yes"/>
      <point x="375" y="501"/>
      <point x="299" y="528"/>
      <point x="246" y="528" type="curve" smooth="yes" name="hr01"/>
      <point x="152" y="528"/>
      <point x="115" y="477"/>
      <point x="110" y="369" type="curve" smooth="yes"/>
      <point x="109" y="348" type="line"/>
      <point x="128" y="347" type="line"/>
      <point x="131" y="477"/>
      <point x="171" y="509"/>
      <point x="246" y="509" type="curve" smooth="yes"/>
      <point x="302" y="509"/>
      <point x="368" y="485"/>
      <point x="488" y="436" type="curve"/>
      <point x="65" y="72" type="line"/>
      <point x="52" y="0" type="line"/>
      <point x="73" y="0" type="line"/>
      <point x="84" y="58" type="line"/>
      <point x="87" y="61" type="line"/>
      <point x="409" y="-5" type="line" smooth="yes"/>
      <point x="432" y="-10"/>
      <point x="444" y="-12"/>
    </contour>
    <contour>
      <point x="264" y="0" type="move" name="bottom"/>
    </contour>
    <contour>
      <point x="341" y="516" type="move" name="top"/>
    </contour>
  </outline>
</glyph>
<glyph name="braceleft" format="1">
  <advance width="600"/>
  <unicode hex="007B"/>
  <outline>
    <contour>
      <point x="418" y="-138" type="line" name="hr00"/>
      <point x="421" y="-120" type="line"/>
      <point x="221" y="-120" type="line"/>
      <point x="241" y="-1" type="line" smooth="yes"/>
      <point x="254" y="75"/>
      <point x="289" y="103"/>
      <point x="306" y="121" type="curve" smooth="yes"/>
      <point x="347" y="163"/>
      <point x="364" y="184"/>
      <point x="364" y="223" type="curve" smooth="yes"/>
      <point x="364" y="275"/>
      <point x="320" y="304"/>
      <point x="261" y="309" type="curve"/>
      <point x="261" y="311" type="line"/>
      <point x="346" y="317"/>
      <point x="398" y="356"/>
      <point x="398" y="423" type="curve" smooth="yes"/>
      <point x="398" y="444"/>
      <point x="388" y="468"/>
      <point x="367" y="502" type="curve" smooth="yes"/>
      <point x="358" y="516"/>
      <point x="341" y="536"/>
      <point x="341" y="582" type="curve" smooth="yes"/>
      <point x="341" y="593"/>
      <point x="341" y="607"/>
      <point x="365" y="742" type="curve"/>
      <point x="565" y="742" type="line"/>
      <point x="568" y="760" type="line"/>
      <point x="377" y="760" type="line" smooth="yes"/>
      <point x="357" y="760"/>
      <point x="346" y="750"/>
      <point x="343" y="730" type="curve" smooth="yes"/>
      <point x="322" y="608"/>
      <point x="321" y="595"/>
      <point x="321" y="584" type="curve" smooth="yes"/>
      <point x="321" y="533"/>
      <point x="341" y="509"/>
      <point x="351" y="494" type="curve" smooth="yes"/>
      <point x="371" y="462"/>
      <point x="378" y="441"/>
      <point x="378" y="423" type="curve" smooth="yes"/>
      <point x="378" y="354"/>
      <point x="313" y="320"/>
      <point x="194" y="320" type="curve" smooth="yes"/>
      <point x="126" y="320" type="line"/>
      <point x="123" y="302" type="line"/>
      <point x="191" y="302" type="line" smooth="yes"/>
      <point x="290" y="302"/>
      <point x="344" y="276"/>
      <point x="344" y="222" type="curve" smooth="yes"/>
      <point x="344" y="186"/>
      <point x="329" y="171"/>
      <point x="290" y="131" type="curve" smooth="yes"/>
      <point x="272" y="112"/>
      <point x="234" y="80"/>
      <point x="221" y="-1" type="curve" smooth="yes"/>
      <point x="204" y="-104"/>
      <point x="202" y="-114"/>
      <point x="202" y="-117" type="curve" smooth="yes"/>
      <point x="202" y="-131"/>
      <point x="211" y="-138"/>
      <point x="228" y="-138" type="curve" smooth="yes"/>
    </contour>
  </outline>
</glyph>
<glyph name="braceright" format="1">
  <advance width="600"/>
  <unicode hex="007D"/>
  <outline>
    <contour>
      <point x="198" y="760" type="line" name="hr00"/>
      <point x="195" y="742" type="line"/>
      <point x="395" y="742" type="line"/>
      <point x="375" y="623" type="line" smooth="yes"/>
      <point x="362" y="547"/>
      <point x="327" y="519"/>
      <point x="310" y="501" type="curve" smooth="yes"/>
      <point x="269" y="458"/>
      <point x="252" y="438"/>
      <point x="252" y="399" type="curve" smooth="yes"/>
      <point x="252" y="347"/>
      <point x="296" y="318"/>
      <point x="355" y="313" type="curve"/>
      <point x="355" y="311" type="line"/>
      <point x="270" y="305"/>
      <point x="218" y="266"/>
      <point x="218" y="199" type="curve" smooth="yes"/>
      <point x="218" y="178"/>
      <point x="228" y="154"/>
      <point x="249" y="120" type="curve" smooth="yes"/>
      <point x="258" y="106"/>
      <point x="275" y="86"/>
      <point x="275" y="40" type="curve" smooth="yes"/>
      <point x="275" y="29"/>
      <point x="275" y="16"/>
      <point x="251" y="-120" type="curve"/>
      <point x="51" y="-120" type="line"/>
      <point x="48" y="-138" type="line"/>
      <point x="239" y="-138" type="line" smooth="yes"/>
      <point x="259" y="-138"/>
      <point x="270" y="-128"/>
      <point x="273" y="-108" type="curve" smooth="yes"/>
      <point x="293" y="13"/>
      <point x="294" y="26"/>
      <point x="294" y="38" type="curve" smooth="yes"/>
      <point x="294" y="88"/>
      <point x="275" y="112"/>
      <point x="265" y="128" type="curve" smooth="yes"/>
      <point x="245" y="160"/>
      <point x="238" y="181"/>
      <point x="238" y="199" type="curve" smooth="yes"/>
      <point x="238" y="268"/>
      <point x="303" y="302"/>
      <point x="422" y="302" type="curve" smooth="yes"/>
      <point x="490" y="302" type="line"/>
      <point x="493" y="320" type="line"/>
      <point x="425" y="320" type="line" smooth="yes"/>
      <point x="326" y="320"/>
      <point x="272" y="346"/>
      <point x="272" y="400" type="curve" smooth="yes"/>
      <point x="272" y="436"/>
      <point x="287" y="451"/>
      <point x="326" y="491" type="curve" smooth="yes"/>
      <point x="344" y="510"/>
      <point x="382" y="542"/>
      <point x="395" y="623" type="curve" smooth="yes"/>
      <point x="412" y="726"/>
      <point x="414" y="736"/>
      <point x="414" y="739" type="curve" smooth="yes"/>
      <point x="414" y="753"/>
      <point x="405" y="760"/>
      <point x="388" y="760" type="curve" smooth="yes"/>
    </contour>
  </outline>
</glyph>
<glyph name="asciitilde" format="1">
  <advance width="600"/>
  <unicode hex="007E"/>
  <outline>
    <contour>
      <point x="414" y="217" type="curve" smooth="yes" name="hr00"/>
      <point x="466" y="217"/>
      <point x="523" y="260"/>
      <point x="563" y="380" type="curve"/>
      <point x="545" y="385" type="line"/>
      <point x="508" y="275"/>
      <point x="459" y="237"/>
      <point x="415" y="237" type="curve" smooth="yes"/>
      <point x="378" y="237"/>
      <point x="351" y="262"/>
      <point x="317" y="310" type="curve" smooth="yes"/>
      <point x="274" y="369"/>
      <point x="246" y="391"/>
      <point x="203" y="391" type="curve" smooth="yes"/>
      <point x="151" y="391"/>
      <point x="94" y="348"/>
      <point x="54" y="228" type="curve"/>
      <point x="72" y="223" type="line"/>
      <point x="109" y="333"/>
      <point x="158" y="371"/>
      <point x="202" y="371" type="curve" smooth="yes"/>
      <point x="239" y="371"/>
      <point x="266" y="346"/>
      <point x="300" y="298" type="curve" smooth="yes"/>
      <point x="343" y="239"/>
      <point x="371" y="217"/>
    </contour>
  </outline>
</glyph>
<glyph name="exclamdown" format="1">
  <advance width="600"/>
  <unicode hex="00A1"/>
  <outline>
    <contour>
      <point x="238" y="-182" type="line" name="hr00"/>
      <point x="285" y="101" type="line"/>
      <point x="320" y="340" type="line"/>
      <point x="308" y="340" type="line"/>
      <point x="263" y="101" type="line"/>
      <point x="216" y="-182" type="line"/>
    </contour>
    <contour>
      <point x="334" y="459" type="curve" smooth="yes"/>
      <point x="355" y="459"/>
      <point x="368" y="469"/>
      <point x="371" y="485" type="curve" smooth="yes"/>
      <point x="372" y="490"/>
      <point x="373" y="495"/>
      <point x="373" y="499" type="curve" smooth="yes"/>
      <point x="373" y="513"/>
      <point x="364" y="521"/>
      <point x="344" y="521" type="curve" smooth="yes"/>
      <point x="323" y="521"/>
      <point x="310" y="511"/>
      <point x="307" y="495" type="curve" smooth="yes"/>
      <point x="306" y="490"/>
      <point x="305" y="485"/>
      <point x="305" y="481" type="curve" smooth="yes"/>
      <point x="305" y="467"/>
      <point x="314" y="459"/>
    </contour>
  </outline>
</glyph>
<glyph name="cent" format="1">
  <advance width="600"/>
  <unicode hex="00A2"/>
  <outline>
    <contour>
      <point x="213" y="-114" type="line" name="hr00"/>
      <point x="233" y="-114" type="line"/>
      <point x="250" y="-12" type="line"/>
      <point x="255" y="-12"/>
      <point x="260" y="-12"/>
      <point x="265" y="-12" type="curve" smooth="yes"/>
      <point x="361" y="-12"/>
      <point x="426" y="49"/>
      <point x="481" y="139" type="curve"/>
      <point x="463" y="147" type="line"/>
      <point x="410" y="62"/>
      <point x="351" y="6"/>
      <point x="264" y="6" type="curve" smooth="yes"/>
      <point x="260" y="6"/>
      <point x="257" y="6"/>
      <point x="253" y="6" type="curve"/>
      <point x="337" y="509" type="line"/>
      <point x="404" y="509"/>
      <point x="458" y="473"/>
      <point x="475" y="408" type="curve"/>
      <point x="494" y="413" type="line"/>
      <point x="478" y="480"/>
      <point x="419" y="526"/>
      <point x="340" y="528" type="curve"/>
      <point x="357" y="630" type="line"/>
      <point x="337" y="630" type="line"/>
      <point x="320" y="528" type="line"/>
      <point x="181" y="520"/>
      <point x="83" y="402"/>
      <point x="83" y="201" type="curve" smooth="yes"/>
      <point x="83" y="89"/>
      <point x="132" y="5"/>
      <point x="230" y="-10" type="curve"/>
    </contour>
    <contour>
      <point x="103" y="201" type="curve" smooth="yes"/>
      <point x="103" y="221"/>
      <point x="104" y="233"/>
      <point x="107" y="253" type="curve" smooth="yes"/>
      <point x="115" y="302" type="line" smooth="yes"/>
      <point x="135" y="422"/>
      <point x="212" y="501"/>
      <point x="317" y="508" type="curve"/>
      <point x="234" y="8" type="line"/>
      <point x="143" y="23"/>
      <point x="103" y="104"/>
    </contour>
  </outline>
</glyph>
<glyph name="sterling" format="1">
  <advance width="600"/>
  <unicode hex="00A3"/>
  <outline>
    <contour>
      <point x="503" y="-12" type="curve" smooth="yes"/>
      <point x="517" y="-12"/>
      <point x="525" y="0"/>
      <point x="525" y="11" type="curve" smooth="yes"/>
      <point x="525" y="22"/>
      <point x="521" y="45"/>
      <point x="513" y="92" type="curve" smooth="yes"/>
      <point x="496" y="196" type="line"/>
      <point x="478" y="193" type="line"/>
      <point x="505" y="10" type="line"/>
      <point x="500" y="6" type="line"/>
      <point x="89" y="73" type="line"/>
      <point x="89" y="76" type="line"/>
      <point x="171" y="113"/>
      <point x="205" y="188"/>
      <point x="205" y="265" type="curve" smooth="yes"/>
      <point x="205" y="288"/>
      <point x="203" y="310"/>
      <point x="200" y="331" type="curve"/>
      <point x="407" y="331" type="line"/>
      <point x="410" y="351" type="line"/>
      <point x="196" y="351" type="line"/>
      <point x="187" y="401"/>
      <point x="174" y="446"/>
      <point x="174" y="497" type="curve" smooth="yes"/>
      <point x="174" y="620"/>
      <point x="248" y="690"/>
      <point x="357" y="690" type="curve" smooth="yes"/>
      <point x="437" y="690"/>
      <point x="494" y="659"/>
      <point x="527" y="582" type="curve"/>
      <point x="546" y="592" type="line"/>
      <point x="511" y="672"/>
      <point x="444" y="710"/>
      <point x="358" y="710" type="curve" smooth="yes"/>
      <point x="238" y="710"/>
      <point x="152" y="631"/>
      <point x="152" y="497" type="curve" smooth="yes"/>
      <point x="152" y="446"/>
      <point x="165" y="401"/>
      <point x="174" y="351" type="curve"/>
      <point x="76" y="351" type="line"/>
      <point x="73" y="331" type="line"/>
      <point x="178" y="331" type="line"/>
      <point x="181" y="310"/>
      <point x="183" y="288"/>
      <point x="183" y="265" type="curve" smooth="yes"/>
      <point x="183" y="157"/>
      <point x="131" y="111"/>
      <point x="57" y="76" type="curve"/>
      <point x="45" y="0" type="line" name="hr01"/>
      <point x="66" y="0" type="line"/>
      <point x="75" y="57" type="line"/>
      <point x="441" y="-3" type="line" smooth="yes"/>
      <point x="479" y="-9"/>
      <point x="492" y="-12"/>
    </contour>
  </outline>
</glyph>
<glyph name="currency" format="1">
  <advance width="600"/>
  <unicode hex="00A4"/>
  <outline>
    <contour>
      <point x="278" y="129" type="curve" smooth="yes" name="hr00"/>
      <point x="322" y="129"/>
      <point x="360" y="140"/>
      <point x="391" y="161" type="curve"/>
      <point x="462" y="47" type="line"/>
      <point x="480" y="60" type="line"/>
      <point x="409" y="174" type="line"/>
      <point x="449" y="210"/>
      <point x="477" y="267"/>
      <point x="490" y="346" type="curve" smooth="yes"/>
      <point x="494" y="369"/>
      <point x="496" y="390"/>
      <point x="496" y="409" type="curve" smooth="yes"/>
      <point x="496" y="457"/>
      <point x="485" y="494"/>
      <point x="464" y="521" type="curve"/>
      <point x="576" y="638" type="line"/>
      <point x="559" y="651" type="line"/>
      <point x="450" y="536" type="line"/>
      <point x="425" y="558"/>
      <point x="390" y="569"/>
      <point x="346" y="569" type="curve" smooth="yes"/>
      <point x="302" y="569"/>
      <point x="264" y="558"/>
      <point x="233" y="537" type="curve"/>
      <point x="162" y="651" type="line"/>
      <point x="144" y="638" type="line"/>
      <point x="215" y="524" type="line"/>
      <point x="175" y="488"/>
      <point x="147" y="431"/>
      <point x="134" y="352" type="curve" smooth="yes"/>
      <point x="130" y="329"/>
      <point x="128" y="308"/>
      <point x="128" y="289" type="curve" smooth="yes"/>
      <point x="128" y="241"/>
      <point x="139" y="204"/>
      <point x="160" y="177" type="curve"/>
      <point x="48" y="60" type="line"/>
      <point x="65" y="47" type="line"/>
      <point x="174" y="162" type="line"/>
      <point x="199" y="140"/>
      <point x="234" y="129"/>
    </contour>
    <contour>
      <point x="278" y="148" type="curve" smooth="yes"/>
      <point x="191" y="148"/>
      <point x="149" y="198"/>
      <point x="149" y="282" type="curve" smooth="yes"/>
      <point x="149" y="297"/>
      <point x="150" y="313"/>
      <point x="153" y="330" type="curve" smooth="yes"/>
      <point x="159" y="368" type="line" smooth="yes"/>
      <point x="177" y="480"/>
      <point x="245" y="550"/>
      <point x="346" y="550" type="curve" smooth="yes"/>
      <point x="433" y="550"/>
      <point x="475" y="500"/>
      <point x="475" y="416" type="curve" smooth="yes"/>
      <point x="475" y="401"/>
      <point x="474" y="385"/>
      <point x="471" y="368" type="curve" smooth="yes"/>
      <point x="465" y="330" type="line" smooth="yes"/>
      <point x="447" y="218"/>
      <point x="379" y="148"/>
    </contour>
  </outline>
</glyph>
<glyph name="yen" format="1">
  <advance width="600"/>
  <unicode hex="00A5"/>
  <outline>
    <contour>
      <point x="48" y="0" type="line" name="hr00"/>
      <point x="466" y="0" type="line"/>
      <point x="469" y="19" type="line"/>
      <point x="271" y="19" type="line"/>
      <point x="317" y="294" type="line"/>
      <point x="515" y="294" type="line"/>
      <point x="518" y="313" type="line"/>
      <point x="332" y="313" type="line"/>
      <point x="645" y="698" type="line"/>
      <point x="619" y="698" type="line"/>
      <point x="310" y="317" type="line"/>
      <point x="307" y="317" type="line"/>
      <point x="124" y="698" type="line"/>
      <point x="101" y="698" type="line"/>
      <point x="286" y="313" type="line"/>
      <point x="100" y="313" type="line"/>
      <point x="97" y="294" type="line"/>
      <point x="295" y="294" type="line"/>
      <point x="249" y="19" type="line"/>
      <point x="51" y="19" type="line"/>
    </contour>
  </outline>
</glyph>
<glyph name="brokenbar" format="1">
  <advance width="600"/>
  <unicode hex="00A6"/>
  <outline>
    <contour>
      <point x="334" y="401" type="line" name="hr00"/>
      <point x="394" y="760" type="line"/>
      <point x="374" y="760" type="line"/>
      <point x="314" y="401" type="line"/>
    </contour>
    <contour>
      <point x="244" y="-138" type="line"/>
      <point x="304" y="221" type="line"/>
      <point x="284" y="221" type="line"/>
      <point x="224" y="-138" type="line"/>
    </contour>
  </outline>
</glyph>
<glyph name="section" format="1">
  <advance width="600"/>
  <unicode hex="00A7"/>
  <outline>
    <contour>
      <point x="428" y="3" type="curve" smooth="yes" name="hr00"/>
      <point x="428" y="55"/>
      <point x="405" y="94"/>
      <point x="363" y="120" type="curve"/>
      <point x="363" y="123" type="line"/>
      <point x="453" y="152"/>
      <point x="506" y="201"/>
      <point x="506" y="283" type="curve" smooth="yes"/>
      <point x="506" y="353"/>
      <point x="467" y="390"/>
      <point x="394" y="411" type="curve" smooth="yes"/>
      <point x="317" y="433" type="line" smooth="yes"/>
      <point x="256" y="450"/>
      <point x="217" y="486"/>
      <point x="217" y="553" type="curve" smooth="yes"/>
      <point x="217" y="643"/>
      <point x="278" y="691"/>
      <point x="381" y="691" type="curve" smooth="yes"/>
      <point x="441" y="691"/>
      <point x="483" y="673"/>
      <point x="515" y="643" type="curve"/>
      <point x="529" y="657" type="line"/>
      <point x="495" y="689"/>
      <point x="448" y="710"/>
      <point x="381" y="710" type="curve" smooth="yes"/>
      <point x="269" y="710"/>
      <point x="196" y="655"/>
      <point x="196" y="553" type="curve" smooth="yes"/>
      <point x="196" y="501"/>
      <point x="219" y="462"/>
      <point x="261" y="436" type="curve"/>
      <point x="261" y="433" type="line"/>
      <point x="171" y="404"/>
      <point x="118" y="355"/>
      <point x="118" y="273" type="curve" smooth="yes"/>
      <point x="118" y="203"/>
      <point x="157" y="166"/>
      <point x="230" y="145" type="curve" smooth="yes"/>
      <point x="307" y="123" type="line" smooth="yes"/>
      <point x="368" y="106"/>
      <point x="407" y="70"/>
      <point x="407" y="3" type="curve" smooth="yes"/>
      <point x="407" y="-87"/>
      <point x="346" y="-135"/>
      <point x="243" y="-135" type="curve" smooth="yes"/>
      <point x="183" y="-135"/>
      <point x="141" y="-117"/>
      <point x="109" y="-87" type="curve"/>
      <point x="95" y="-101" type="line"/>
      <point x="129" y="-133"/>
      <point x="176" y="-154"/>
      <point x="243" y="-154" type="curve" smooth="yes"/>
      <point x="355" y="-154"/>
      <point x="428" y="-99"/>
    </contour>
    <contour>
      <point x="485" y="283" type="curve" smooth="yes"/>
      <point x="485" y="205"/>
      <point x="432" y="161"/>
      <point x="344" y="130" type="curve"/>
      <point x="335" y="134"/>
      <point x="325" y="137"/>
      <point x="315" y="140" type="curve" smooth="yes"/>
      <point x="238" y="162" type="line" smooth="yes"/>
      <point x="167" y="182"/>
      <point x="139" y="215"/>
      <point x="139" y="273" type="curve" smooth="yes"/>
      <point x="139" y="351"/>
      <point x="192" y="395"/>
      <point x="280" y="426" type="curve"/>
      <point x="289" y="422"/>
      <point x="299" y="419"/>
      <point x="309" y="416" type="curve" smooth="yes"/>
      <point x="386" y="394" type="line" smooth="yes"/>
      <point x="457" y="374"/>
      <point x="485" y="341"/>
    </contour>
  </outline>
</glyph>
<glyph name="dieresis" format="1">
  <advance width="600"/>
  <unicode hex="00A8"/>
  <outline>
    <contour>
      <point x="234" y="649" type="curve" smooth="yes" name="hr00"/>
      <point x="252" y="649"/>
      <point x="261" y="657"/>
      <point x="264" y="671" type="curve" smooth="yes"/>
      <point x="265" y="677"/>
      <point x="266" y="681"/>
      <point x="266" y="685" type="curve" smooth="yes"/>
      <point x="266" y="694"/>
      <point x="260" y="703"/>
      <point x="240" y="703" type="curve" smooth="yes"/>
      <point x="222" y="703"/>
      <point x="213" y="695"/>
      <point x="210" y="681" type="curve" smooth="yes"/>
      <point x="209" y="675"/>
      <point x="208" y="671"/>
      <point x="208" y="667" type="curve" smooth="yes"/>
      <point x="208" y="658"/>
      <point x="214" y="649"/>
    </contour>
    <contour>
      <point x="414" y="649" type="curve" smooth="yes"/>
      <point x="432" y="649"/>
      <point x="441" y="657"/>
      <point x="444" y="671" type="curve" smooth="yes"/>
      <point x="445" y="677"/>
      <point x="446" y="681"/>
      <point x="446" y="685" type="curve" smooth="yes"/>
      <point x="446" y="694"/>
      <point x="440" y="703"/>
      <point x="420" y="703" type="curve" smooth="yes"/>
      <point x="402" y="703"/>
      <point x="393" y="695"/>
      <point x="390" y="681" type="curve" smooth="yes"/>
      <point x="389" y="675"/>
      <point x="388" y="671"/>
      <point x="388" y="667" type="curve" smooth="yes"/>
      <point x="388" y="658"/>
      <point x="394" y="649"/>
    </contour>
    <contour>
      <point x="300" y="516" type="move" name="_top"/>
    </contour>
  </outline>
</glyph>
<glyph name="copyright" format="1">
  <advance width="600"/>
  <unicode hex="00A9"/>
  <outline>
    <contour>
      <point x="276" y="18" type="curve" smooth="yes" name="hr00"/>
      <point x="473" y="18"/>
      <point x="616" y="170"/>
      <point x="616" y="400" type="curve" smooth="yes"/>
      <point x="616" y="572"/>
      <point x="508" y="680"/>
      <point x="354" y="680" type="curve" smooth="yes"/>
      <point x="157" y="680"/>
      <point x="14" y="528"/>
      <point x="14" y="298" type="curve" smooth="yes"/>
      <point x="14" y="126"/>
      <point x="122" y="18"/>
    </contour>
    <contour>
      <point x="276" y="35" type="curve" smooth="yes"/>
      <point x="125" y="35"/>
      <point x="32" y="144"/>
      <point x="32" y="298" type="curve" smooth="yes"/>
      <point x="32" y="320"/>
      <point x="34" y="341"/>
      <point x="44" y="398" type="curve" smooth="yes"/>
      <point x="69" y="543"/>
      <point x="188" y="663"/>
      <point x="354" y="663" type="curve" smooth="yes"/>
      <point x="505" y="663"/>
      <point x="598" y="554"/>
      <point x="598" y="400" type="curve" smooth="yes"/>
      <point x="598" y="378"/>
      <point x="596" y="357"/>
      <point x="586" y="300" type="curve" smooth="yes"/>
      <point x="561" y="155"/>
      <point x="442" y="35"/>
    </contour>
    <contour>
      <point x="292" y="188" type="curve" smooth="yes"/>
      <point x="344" y="188"/>
      <point x="385" y="216"/>
      <point x="407" y="252" type="curve"/>
      <point x="393" y="261" type="line"/>
      <point x="372" y="227"/>
      <point x="337" y="205"/>
      <point x="293" y="205" type="curve" smooth="yes"/>
      <point x="239" y="205"/>
      <point x="203" y="243"/>
      <point x="203" y="314" type="curve" smooth="yes"/>
      <point x="203" y="325"/>
      <point x="204" y="337"/>
      <point x="206" y="350" type="curve" smooth="yes"/>
      <point x="210" y="370" type="line" smooth="yes"/>
      <point x="227" y="456"/>
      <point x="278" y="493"/>
      <point x="339" y="493" type="curve" smooth="yes"/>
      <point x="384" y="493"/>
      <point x="404" y="475"/>
      <point x="419" y="442" type="curve"/>
      <point x="435" y="448" type="line"/>
      <point x="422" y="482"/>
      <point x="393" y="510"/>
      <point x="341" y="510" type="curve" smooth="yes"/>
      <point x="248" y="510"/>
      <point x="185" y="433"/>
      <point x="185" y="314" type="curve" smooth="yes"/>
      <point x="185" y="229"/>
      <point x="234" y="188"/>
    </contour>
  </outline>
</glyph>
<glyph name="ordfeminine" format="1">
  <advance width="600"/>
  <unicode hex="00AA"/>
  <outline>
    <contour>
      <point x="418" y="374" type="line" name="hr00"/>
      <point x="456" y="605" type="line" smooth="yes"/>
      <point x="457" y="611"/>
      <point x="458" y="620"/>
      <point x="458" y="625" type="curve" smooth="yes"/>
      <point x="458" y="680"/>
      <point x="422" y="710"/>
      <point x="355" y="710" type="curve" smooth="yes"/>
      <point x="297" y="710"/>
      <point x="255" y="686"/>
      <point x="231" y="643" type="curve"/>
      <point x="246" y="635" type="line"/>
      <point x="271" y="676"/>
      <point x="310" y="693"/>
      <point x="354" y="693" type="curve" smooth="yes"/>
      <point x="408" y="693"/>
      <point x="440" y="673"/>
      <point x="440" y="625" type="curve" smooth="yes"/>
      <point x="440" y="619"/>
      <point x="439" y="611"/>
      <point x="438" y="604" type="curve" smooth="yes"/>
      <point x="429" y="548" type="line"/>
      <point x="332" y="548" type="line" smooth="yes"/>
      <point x="222" y="548"/>
      <point x="189" y="503"/>
      <point x="189" y="445" type="curve" smooth="yes"/>
      <point x="189" y="397"/>
      <point x="224" y="367"/>
      <point x="285" y="367" type="curve" smooth="yes"/>
      <point x="348" y="367"/>
      <point x="386" y="394"/>
      <point x="406" y="422" type="curve"/>
      <point x="408" y="422" type="line"/>
      <point x="400" y="374" type="line"/>
    </contour>
    <contour>
      <point x="426" y="531" type="line"/>
      <point x="416" y="473" type="line" smooth="yes"/>
      <point x="406" y="414"/>
      <point x="347" y="384"/>
      <point x="285" y="384" type="curve" smooth="yes"/>
      <point x="237" y="384"/>
      <point x="210" y="405"/>
      <point x="210" y="443" type="curve" smooth="yes"/>
      <point x="210" y="447"/>
      <point x="210" y="451"/>
      <point x="213" y="468" type="curve" smooth="yes"/>
      <point x="219" y="504"/>
      <point x="248" y="531"/>
      <point x="330" y="531" type="curve" smooth="yes"/>
    </contour>
  </outline>
</glyph>
<glyph name="logicalnot" format="1">
  <advance width="600"/>
  <unicode hex="00AC"/>
  <outline>
    <contour>
      <point x="496" y="104" type="line" name="hr00"/>
      <point x="531" y="315" type="line"/>
      <point x="71" y="315" type="line"/>
      <point x="68" y="296" type="line"/>
      <point x="507" y="296" type="line"/>
      <point x="475" y="104" type="line"/>
    </contour>
  </outline>
</glyph>
<glyph name="registered" format="1">
  <advance width="600"/>
  <unicode hex="00AE"/>
  <outline>
    <contour>
      <point x="327" y="346" type="curve" smooth="yes" name="hr00"/>
      <point x="441" y="346"/>
      <point x="527" y="425"/>
      <point x="527" y="551" type="curve" smooth="yes"/>
      <point x="527" y="647"/>
      <point x="457" y="710"/>
      <point x="361" y="710" type="curve" smooth="yes"/>
      <point x="247" y="710"/>
      <point x="161" y="631"/>
      <point x="161" y="505" type="curve" smooth="yes"/>
      <point x="161" y="409"/>
      <point x="231" y="346"/>
    </contour>
    <contour>
      <point x="327" y="361" type="curve" smooth="yes"/>
      <point x="240" y="361"/>
      <point x="177" y="415"/>
      <point x="177" y="505" type="curve" smooth="yes"/>
      <point x="177" y="515"/>
      <point x="178" y="526"/>
      <point x="183" y="555" type="curve" smooth="yes"/>
      <point x="199" y="638"/>
      <point x="270" y="695"/>
      <point x="361" y="695" type="curve" smooth="yes"/>
      <point x="448" y="695"/>
      <point x="511" y="641"/>
      <point x="511" y="551" type="curve" smooth="yes"/>
      <point x="511" y="541"/>
      <point x="510" y="530"/>
      <point x="505" y="501" type="curve" smooth="yes"/>
      <point x="489" y="418"/>
      <point x="418" y="361"/>
    </contour>
    <contour>
      <point x="301" y="514" type="line"/>
      <point x="350" y="514" type="line"/>
      <point x="388" y="436" type="line"/>
      <point x="404" y="436" type="line"/>
      <point x="365" y="515" type="line"/>
      <point x="397" y="516"/>
      <point x="421" y="534"/>
      <point x="421" y="578" type="curve" smooth="yes"/>
      <point x="421" y="607"/>
      <point x="403" y="621"/>
      <point x="373" y="621" type="curve" smooth="yes"/>
      <point x="304" y="621" type="line"/>
      <point x="273" y="436" type="line"/>
      <point x="288" y="436" type="line"/>
    </contour>
    <contour>
      <point x="303" y="527" type="line"/>
      <point x="316" y="608" type="line"/>
      <point x="371" y="608" type="line" smooth="yes"/>
      <point x="396" y="608"/>
      <point x="406" y="599"/>
      <point x="406" y="580" type="curve" smooth="yes"/>
      <point x="406" y="576"/>
      <point x="406" y="574"/>
      <point x="404" y="562" type="curve" smooth="yes"/>
      <point x="400" y="537"/>
      <point x="387" y="527"/>
      <point x="358" y="527" type="curve" smooth="yes"/>
    </contour>
  </outline>
</glyph>
<glyph name="degree" format="1">
  <advance width="600"/>
  <unicode hex="00B0"/>
  <outline>
    <contour>
      <point x="330" y="404" type="curve" smooth="yes" name="hr00"/>
      <point x="427" y="404"/>
      <point x="504" y="476"/>
      <point x="504" y="575" type="curve" smooth="yes"/>
      <point x="504" y="653"/>
      <point x="450" y="710"/>
      <point x="368" y="710" type="curve" smooth="yes"/>
      <point x="271" y="710"/>
      <point x="194" y="638"/>
      <point x="194" y="539" type="curve" smooth="yes"/>
      <point x="194" y="461"/>
      <point x="248" y="404"/>
    </contour>
    <contour>
      <point x="332" y="423" type="curve" smooth="yes"/>
      <point x="256" y="423"/>
      <point x="215" y="473"/>
      <point x="215" y="540" type="curve" smooth="yes"/>
      <point x="215" y="627"/>
      <point x="281" y="691"/>
      <point x="366" y="691" type="curve" smooth="yes"/>
      <point x="442" y="691"/>
      <point x="483" y="641"/>
      <point x="483" y="574" type="curve" smooth="yes"/>
      <point x="483" y="487"/>
      <point x="417" y="423"/>
    </contour>
  </outline>
</glyph>
<glyph name="plusminus" format="1">
  <advance width="600"/>
  <unicode hex="00B1"/>
  <outline>
    <contour>
      <point x="287" y="115" type="line" name="hr00"/>
      <point x="326" y="349" type="line"/>
      <point x="554" y="349" type="line"/>
      <point x="557" y="368" type="line"/>
      <point x="329" y="368" type="line"/>
      <point x="368" y="602" type="line"/>
      <point x="347" y="602" type="line"/>
      <point x="308" y="368" type="line"/>
      <point x="80" y="368" type="line"/>
      <point x="77" y="349" type="line"/>
      <point x="305" y="349" type="line"/>
      <point x="266" y="115" type="line"/>
    </contour>
    <contour>
      <point x="496" y="0" type="line"/>
      <point x="499" y="19" type="line"/>
      <point x="22" y="19" type="line"/>
      <point x="19" y="0" type="line"/>
    </contour>
  </outline>
</glyph>
<glyph name="twosuperior" format="1">
  <advance width="600"/>
  <unicode hex="00B2"/>
  <outline>
    <contour>
      <point x="443" y="346" type="line" name="hr00"/>
      <point x="209" y="346" type="line"/>
      <point x="357" y="452" type="line" smooth="yes"/>
      <point x="437" y="509"/>
      <point x="473" y="551"/>
      <point x="473" y="608" type="curve" smooth="yes"/>
      <point x="473" y="661"/>
      <point x="431" y="704"/>
      <point x="364" y="704" type="curve" smooth="yes"/>
      <point x="291" y="704"/>
      <point x="251" y="669"/>
      <point x="228" y="615" type="curve"/>
      <point x="245" y="609" type="line"/>
      <point x="265" y="656"/>
      <point x="300" y="687"/>
      <point x="362" y="687" type="curve" smooth="yes"/>
      <point x="420" y="687"/>
      <point x="454" y="654"/>
      <point x="454" y="608" type="curve" smooth="yes"/>
      <point x="454" y="604"/>
      <point x="454" y="598"/>
      <point x="452" y="584" type="curve" smooth="yes"/>
      <point x="446" y="547"/>
      <point x="410" y="509"/>
      <point x="346" y="463" type="curve" smooth="yes"/>
      <point x="187" y="349" type="line"/>
      <point x="184" y="329" type="line"/>
      <point x="440" y="329" type="line"/>
    </contour>
  </outline>
</glyph>
<glyph name="threesuperior" format="1">
  <advance width="600"/>
  <unicode hex="00B3"/>
  <outline>
    <contour>
      <point x="287" y="529" type="line" name="hr00"/>
      <point x="284" y="512" type="line"/>
      <point x="337" y="512" type="line" smooth="yes"/>
      <point x="402" y="512"/>
      <point x="427" y="488"/>
      <point x="427" y="444" type="curve" smooth="yes"/>
      <point x="427" y="439"/>
      <point x="426" y="431"/>
      <point x="424" y="419" type="curve" smooth="yes"/>
      <point x="415" y="370"/>
      <point x="381" y="340"/>
      <point x="313" y="340" type="curve" smooth="yes"/>
      <point x="253" y="340"/>
      <point x="226" y="359"/>
      <point x="207" y="390" type="curve"/>
      <point x="192" y="380" type="line"/>
      <point x="210" y="348"/>
      <point x="248" y="323"/>
      <point x="313" y="323" type="curve" smooth="yes"/>
      <point x="397" y="323"/>
      <point x="446" y="369"/>
      <point x="446" y="444" type="curve" smooth="yes"/>
      <point x="446" y="486"/>
      <point x="425" y="513"/>
      <point x="381" y="520" type="curve"/>
      <point x="381" y="522" type="line"/>
      <point x="438" y="530"/>
      <point x="469" y="565"/>
      <point x="469" y="617" type="curve" smooth="yes"/>
      <point x="469" y="670"/>
      <point x="431" y="704"/>
      <point x="363" y="704" type="curve" smooth="yes"/>
      <point x="307" y="704"/>
      <point x="267" y="684"/>
      <point x="241" y="651" type="curve"/>
      <point x="254" y="641" type="line"/>
      <point x="280" y="670"/>
      <point x="309" y="687"/>
      <point x="362" y="687" type="curve" smooth="yes"/>
      <point x="420" y="687"/>
      <point x="449" y="660"/>
      <point x="449" y="617" type="curve" smooth="yes"/>
      <point x="449" y="614"/>
      <point x="449" y="609"/>
      <point x="447" y="598" type="curve" smooth="yes"/>
      <point x="439" y="556"/>
      <point x="407" y="529"/>
      <point x="333" y="529" type="curve" smooth="yes"/>
    </contour>
  </outline>
</glyph>
<glyph name="acute" format="1">
  <advance width="600"/>
  <unicode hex="00B4"/>
  <outline>
    <contour>
      <point x="438" y="748" type="line" name="hr00"/>
      <point x="420" y="761" type="line"/>
      <point x="282" y="608" type="line"/>
      <point x="296" y="597" type="line"/>
    </contour>
    <contour>
      <point x="300" y="516" type="move" name="_top"/>
    </contour>
  </outline>
</glyph>
<glyph name="mu" format="1">
  <advance width="600"/>
  <unicode hex="00B5"/>
  <outline>
    <contour>
      <point x="69" y="-200" type="line"/>
      <point x="97" y="-32" type="line"/>
      <point x="113" y="83" type="line"/>
      <point x="115" y="83" type="line"/>
      <point x="131" y="22"/>
      <point x="178" y="-12"/>
      <point x="251" y="-12" type="curve" smooth="yes"/>
      <point x="339" y="-12"/>
      <point x="387" y="36"/>
      <point x="426" y="114" type="curve"/>
      <point x="429" y="114" type="line"/>
      <point x="410" y="0" type="line" name="hr01"/>
      <point x="431" y="0" type="line"/>
      <point x="517" y="516" type="line"/>
      <point x="496" y="516" type="line"/>
      <point x="444" y="204" type="line" smooth="yes"/>
      <point x="434" y="146"/>
      <point x="403" y="98"/>
      <point x="382" y="72" type="curve" smooth="yes"/>
      <point x="344" y="24"/>
      <point x="301" y="7"/>
      <point x="254" y="7" type="curve" smooth="yes" name="hr02"/>
      <point x="176" y="7"/>
      <point x="128" y="48"/>
      <point x="128" y="130" type="curve" smooth="yes"/>
      <point x="128" y="149"/>
      <point x="130" y="170"/>
      <point x="133" y="187" type="curve" smooth="yes"/>
      <point x="188" y="516" type="line"/>
      <point x="167" y="516" type="line"/>
      <point x="48" y="-200" type="line"/>
    </contour>
  </outline>
</glyph>
<glyph name="paragraph" format="1">
  <advance width="600"/>
  <unicode hex="00B6"/>
  <outline>
    <contour>
      <point x="234" y="-149" type="line" name="hr00"/>
      <point x="256" y="-149" type="line"/>
      <point x="393" y="678" type="line"/>
      <point x="520" y="678" type="line"/>
      <point x="382" y="-149" type="line"/>
      <point x="404" y="-149" type="line"/>
      <point x="545" y="698" type="line"/>
      <point x="365" y="698" type="line" smooth="yes"/>
      <point x="210" y="698"/>
      <point x="99" y="585"/>
      <point x="99" y="439" type="curve" smooth="yes"/>
      <point x="99" y="326"/>
      <point x="173" y="246"/>
      <point x="300" y="246" type="curve"/>
    </contour>
  </outline>
</glyph>
<glyph name="periodcentered" format="1">
  <advance width="600"/>
  <unicode hex="00B7"/>
  <outline>
    <contour>
      <point x="303" y="273" type="curve" smooth="yes" name="hr00"/>
      <point x="324" y="273"/>
      <point x="337" y="283"/>
      <point x="340" y="299" type="curve" smooth="yes"/>
      <point x="341" y="304"/>
      <point x="342" y="309"/>
      <point x="342" y="313" type="curve" smooth="yes"/>
      <point x="342" y="327"/>
      <point x="333" y="335"/>
      <point x="313" y="335" type="curve" smooth="yes"/>
      <point x="292" y="335"/>
      <point x="279" y="325"/>
      <point x="276" y="309" type="curve" smooth="yes"/>
      <point x="275" y="304"/>
      <point x="274" y="299"/>
      <point x="274" y="295" type="curve" smooth="yes"/>
      <point x="274" y="281"/>
      <point x="283" y="273"/>
    </contour>
  </outline>
</glyph>
<glyph name="cedilla" format="1">
  <advance width="600"/>
  <unicode hex="00B8"/>
  <outline>
    <contour>
      <point x="276" y="-202" type="curve" smooth="yes" name="hr00"/>
      <point x="333" y="-202"/>
      <point x="368" y="-167"/>
      <point x="368" y="-126" type="curve" smooth="yes"/>
      <point x="368" y="-93"/>
      <point x="346" y="-72"/>
      <point x="309" y="-72" type="curve" smooth="yes"/>
      <point x="301" y="-72"/>
      <point x="289" y="-73"/>
      <point x="280" y="-75" type="curve"/>
      <point x="278" y="-73" type="line"/>
      <point x="310" y="3" type="line"/>
      <point x="292" y="3" type="line"/>
      <point x="256" y="-84" type="line"/>
      <point x="294" y="-86" type="line" smooth="yes"/>
      <point x="333" y="-88"/>
      <point x="347" y="-104"/>
      <point x="347" y="-127" type="curve" smooth="yes"/>
      <point x="347" y="-160"/>
      <point x="319" y="-184"/>
      <point x="276" y="-184" type="curve" smooth="yes"/>
      <point x="248" y="-184"/>
      <point x="227" y="-174"/>
      <point x="214" y="-157" type="curve"/>
      <point x="200" y="-170" type="line"/>
      <point x="212" y="-187"/>
      <point x="239" y="-202"/>
    </contour>
    <contour>
      <point x="300" y="0" type="move" name="_bottom"/>
    </contour>
  </outline>
</glyph>
<glyph name="onesuperior" format="1">
  <advance width="600"/>
  <unicode hex="00B9"/>
  <outline>
    <contour>
      <point x="470" y="329" type="line" name="hr00"/>
      <point x="473" y="346" type="line"/>
      <point x="355" y="346" type="line"/>
      <point x="413" y="698" type="line"/>
      <point x="382" y="698" type="line"/>
      <point x="235" y="590" type="line"/>
      <point x="245" y="577" type="line"/>
      <point x="390" y="684" type="line"/>
      <point x="392" y="684" type="line"/>
      <point x="336" y="346" type="line"/>
      <point x="207" y="346" type="line"/>
      <point x="204" y="329" type="line"/>
    </contour>
  </outline>
</glyph>
<glyph name="ordmasculine" format="1">
  <advance width="600"/>
  <unicode hex="00BA"/>
  <outline>
    <contour>
      <point x="320" y="367" type="curve" smooth="yes" name="hr00"/>
      <point x="425" y="367"/>
      <point x="492" y="456"/>
      <point x="492" y="583" type="curve" smooth="yes"/>
      <point x="492" y="660"/>
      <point x="446" y="710"/>
      <point x="374" y="710" type="curve" smooth="yes"/>
      <point x="269" y="710"/>
      <point x="202" y="621"/>
      <point x="202" y="494" type="curve" smooth="yes"/>
      <point x="202" y="417"/>
      <point x="248" y="367"/>
    </contour>
    <contour>
      <point x="321" y="384" type="curve" smooth="yes"/>
      <point x="254" y="384"/>
      <point x="221" y="432"/>
      <point x="221" y="494" type="curve" smooth="yes"/>
      <point x="221" y="504"/>
      <point x="222" y="516"/>
      <point x="224" y="527" type="curve" smooth="yes"/>
      <point x="230" y="561" type="line" smooth="yes"/>
      <point x="243" y="633"/>
      <point x="294" y="693"/>
      <point x="373" y="693" type="curve" smooth="yes"/>
      <point x="440" y="693"/>
      <point x="473" y="645"/>
      <point x="473" y="583" type="curve" smooth="yes"/>
      <point x="473" y="573"/>
      <point x="472" y="561"/>
      <point x="470" y="550" type="curve" smooth="yes"/>
      <point x="464" y="516" type="line" smooth="yes"/>
      <point x="451" y="444"/>
      <point x="400" y="384"/>
    </contour>
  </outline>
</glyph>
<glyph name="questiondown" format="1">
  <advance width="600"/>
  <unicode hex="00BF"/>
  <outline>
    <contour>
      <point x="223" y="-194" type="curve" smooth="yes" name="hr00"/>
      <point x="336" y="-194"/>
      <point x="406" y="-136"/>
      <point x="442" y="-44" type="curve"/>
      <point x="423" y="-38" type="line"/>
      <point x="387" y="-124"/>
      <point x="329" y="-175"/>
      <point x="224" y="-175" type="curve" smooth="yes"/>
      <point x="125" y="-175"/>
      <point x="72" y="-123"/>
      <point x="72" y="-38" type="curve" smooth="yes"/>
      <point x="72" y="-29"/>
      <point x="75" y="-6"/>
      <point x="77" y="8" type="curve" smooth="yes"/>
      <point x="91" y="105"/>
      <point x="165" y="156"/>
      <point x="311" y="167" type="curve"/>
      <point x="340" y="340" type="line"/>
      <point x="318" y="340" type="line"/>
      <point x="292" y="185" type="line"/>
      <point x="125" y="170"/>
      <point x="50" y="88"/>
      <point x="50" y="-38" type="curve" smooth="yes"/>
      <point x="50" y="-132"/>
      <point x="117" y="-194"/>
    </contour>
    <contour>
      <point x="359" y="521" type="curve" smooth="yes"/>
      <point x="338" y="521"/>
      <point x="325" y="511"/>
      <point x="322" y="495" type="curve" smooth="yes"/>
      <point x="321" y="490"/>
      <point x="320" y="485"/>
      <point x="320" y="481" type="curve" smooth="yes"/>
      <point x="320" y="467"/>
      <point x="329" y="459"/>
      <point x="349" y="459" type="curve" smooth="yes"/>
      <point x="370" y="459"/>
      <point x="383" y="469"/>
      <point x="386" y="485" type="curve" smooth="yes"/>
      <point x="387" y="490"/>
      <point x="388" y="495"/>
      <point x="388" y="499" type="curve" smooth="yes"/>
      <point x="388" y="513"/>
      <point x="379" y="521"/>
    </contour>
  </outline>
</glyph>
<glyph name="AE" format="1">
  <advance width="600"/>
  <unicode hex="00C6"/>
  <outline>
    <contour>
      <point x="278" y="0" type="line" name="hr00"/>
      <point x="501" y="0" type="line"/>
      <point x="504" y="20" type="line"/>
      <point x="303" y="20" type="line"/>
      <point x="357" y="344" type="line"/>
      <point x="544" y="344" type="line"/>
      <point x="548" y="364" type="line"/>
      <point x="361" y="364" type="line"/>
      <point x="413" y="678" type="line"/>
      <point x="614" y="678" type="line"/>
      <point x="617" y="698" type="line"/>
      <point x="329" y="698" type="line"/>
      <point x="-10" y="0" type="line"/>
      <point x="14" y="0" type="line"/>
      <point x="127" y="234" type="line"/>
      <point x="317" y="234" type="line"/>
    </contour>
    <contour>
      <point x="391" y="678" type="line"/>
      <point x="320" y="253" type="line"/>
      <point x="136" y="253" type="line"/>
      <point x="342" y="678" type="line"/>
    </contour>
    <contour>
      <point x="404" y="698" type="move" name="top"/>
    </contour>
  </outline>
</glyph>
<glyph name="Ccedilla" format="1">
  <advance width="600"/>
  <unicode hex="00C7"/>
  <outline>
    <contour>
      <point x="380" y="690" type="curve" smooth="yes" name="hr00"/>
      <point x="472" y="690"/>
      <point x="514" y="642"/>
      <point x="537" y="563" type="curve"/>
      <point x="557" y="569" type="line"/>
      <point x="532" y="656"/>
      <point x="482" y="710"/>
      <point x="381" y="710" type="curve" smooth="yes"/>
      <point x="182" y="710"/>
      <point x="90" y="461"/>
      <point x="90" y="219" type="curve" smooth="yes"/>
      <point x="90" y="66"/>
      <point x="161" y="-5"/>
      <point x="264" y="-12" type="curve"/>
      <point x="234" y="-84" type="line"/>
      <point x="272" y="-86" type="line" smooth="yes"/>
      <point x="311" y="-88"/>
      <point x="325" y="-104"/>
      <point x="325" y="-127" type="curve" smooth="yes"/>
      <point x="325" y="-160"/>
      <point x="297" y="-184"/>
      <point x="254" y="-184" type="curve" smooth="yes"/>
      <point x="226" y="-184"/>
      <point x="205" y="-174"/>
      <point x="192" y="-157" type="curve"/>
      <point x="178" y="-170" type="line"/>
      <point x="190" y="-187"/>
      <point x="217" y="-202"/>
      <point x="254" y="-202" type="curve" smooth="yes"/>
      <point x="311" y="-202"/>
      <point x="346" y="-167"/>
      <point x="346" y="-126" type="curve" smooth="yes"/>
      <point x="346" y="-93"/>
      <point x="324" y="-72"/>
      <point x="287" y="-72" type="curve" smooth="yes"/>
      <point x="279" y="-72"/>
      <point x="267" y="-73"/>
      <point x="258" y="-75" type="curve"/>
      <point x="256" y="-73" type="line"/>
      <point x="282" y="-12" type="line"/>
      <point x="376" y="-12"/>
      <point x="439" y="34"/>
      <point x="498" y="142" type="curve"/>
      <point x="479" y="151" type="line"/>
      <point x="429" y="56"/>
      <point x="369" y="8"/>
      <point x="280" y="8" type="curve" smooth="yes"/>
      <point x="173" y="8"/>
      <point x="111" y="79"/>
      <point x="111" y="219" type="curve" smooth="yes"/>
      <point x="111" y="253"/>
      <point x="112" y="291"/>
      <point x="119" y="331" type="curve" smooth="yes"/>
      <point x="129" y="390" type="line" smooth="yes"/>
      <point x="162" y="582"/>
      <point x="259" y="690"/>
    </contour>
  </outline>
</glyph>
<glyph name="multiply" format="1">
  <advance width="600"/>
  <unicode hex="00D7"/>
  <outline>
    <contour>
      <point x="458" y="110" type="line" name="hr00"/>
      <point x="472" y="123" type="line"/>
      <point x="321" y="305" type="line"/>
      <point x="532" y="487" type="line"/>
      <point x="520" y="500" type="line"/>
      <point x="308" y="318" type="line"/>
      <point x="157" y="500" type="line"/>
      <point x="143" y="487" type="line"/>
      <point x="294" y="305" type="line"/>
      <point x="83" y="123" type="line"/>
      <point x="95" y="110" type="line"/>
      <point x="307" y="292" type="line"/>
    </contour>
  </outline>
</glyph>
<glyph name="Oslash" format="1">
  <advance width="600"/>
  <unicode hex="00D8"/>
  <outline>
    <contour>
      <point x="262" y="-12" type="curve" smooth="yes" name="hr00"/>
      <point x="466" y="-12"/>
      <point x="550" y="237"/>
      <point x="550" y="479" type="curve" smooth="yes"/>
      <point x="550" y="538"/>
      <point x="541" y="586"/>
      <point x="524" y="621" type="curve"/>
      <point x="585" y="705" type="line"/>
      <point x="569" y="716" type="line"/>
      <point x="513" y="640" type="line"/>
      <point x="482" y="688"/>
      <point x="432" y="710"/>
      <point x="364" y="710" type="curve" smooth="yes"/>
      <point x="160" y="710"/>
      <point x="76" y="461"/>
      <point x="76" y="219" type="curve" smooth="yes"/>
      <point x="76" y="160"/>
      <point x="85" y="112"/>
      <point x="102" y="77" type="curve"/>
      <point x="41" y="-7" type="line"/>
      <point x="57" y="-18" type="line"/>
      <point x="113" y="58" type="line"/>
      <point x="144" y="10"/>
      <point x="194" y="-12"/>
    </contour>
    <contour>
      <point x="105" y="331" type="curve" smooth="yes"/>
      <point x="115" y="390" type="line" smooth="yes"/>
      <point x="148" y="582"/>
      <point x="237" y="690"/>
      <point x="364" y="690" type="curve" smooth="yes"/>
      <point x="430" y="690"/>
      <point x="474" y="667"/>
      <point x="500" y="622" type="curve"/>
      <point x="116" y="96" type="line"/>
      <point x="103" y="128"/>
      <point x="97" y="169"/>
      <point x="97" y="219" type="curve" smooth="yes"/>
      <point x="97" y="253"/>
      <point x="98" y="291"/>
    </contour>
    <contour>
      <point x="262" y="8" type="curve" smooth="yes"/>
      <point x="196" y="8"/>
      <point x="152" y="31"/>
      <point x="126" y="76" type="curve"/>
      <point x="510" y="602" type="line"/>
      <point x="523" y="570"/>
      <point x="529" y="529"/>
      <point x="529" y="479" type="curve" smooth="yes"/>
      <point x="529" y="445"/>
      <point x="528" y="407"/>
      <point x="521" y="367" type="curve" smooth="yes"/>
      <point x="511" y="308" type="line" smooth="yes"/>
      <point x="478" y="116"/>
      <point x="389" y="8"/>
    </contour>
    <contour>
      <point x="369" y="698" type="move" name="top"/>
    </contour>
  </outline>
</glyph>
<glyph name="Thorn" format="1">
  <advance width="600"/>
  <unicode hex="00DE"/>
  <outline>
    <contour>
      <point x="87" y="0" type="line" name="hr00"/>
      <point x="115" y="167" type="line"/>
      <point x="345" y="167" type="line" smooth="yes"/>
      <point x="476" y="167"/>
      <point x="546" y="256"/>
      <point x="546" y="392" type="curve" smooth="yes"/>
      <point x="546" y="478"/>
      <point x="487" y="543"/>
      <point x="389" y="543" type="curve" smooth="yes"/>
      <point x="177" y="543" type="line"/>
      <point x="203" y="698" type="line"/>
      <point x="181" y="698" type="line"/>
      <point x="65" y="0" type="line"/>
    </contour>
    <contour>
      <point x="174" y="523" type="line"/>
      <point x="389" y="523" type="line" smooth="yes"/>
      <point x="482" y="523"/>
      <point x="524" y="461"/>
      <point x="524" y="392" type="curve" smooth="yes"/>
      <point x="524" y="383"/>
      <point x="523" y="375"/>
      <point x="522" y="366" type="curve" smooth="yes"/>
      <point x="516" y="329" type="line" smooth="yes"/>
      <point x="503" y="247"/>
      <point x="448" y="187"/>
      <point x="345" y="187" type="curve" smooth="yes"/>
      <point x="118" y="187" type="line"/>
    </contour>
  </outline>
</glyph>
<glyph name="germandbls" format="1">
  <advance width="600"/>
  <unicode hex="00DF"/>
  <outline>
    <contour>
      <point x="120" y="0" type="line" name="hr00"/>
      <point x="203" y="497" type="line"/>
      <point x="545" y="497" type="line"/>
      <point x="273" y="209" type="line"/>
      <point x="269" y="189" type="line"/>
      <point x="300" y="189" type="line" smooth="yes"/>
      <point x="418" y="189"/>
      <point x="509" y="144"/>
      <point x="509" y="44" type="curve" smooth="yes"/>
      <point x="509" y="33"/>
      <point x="510" y="23"/>
      <point x="502" y="-24" type="curve" smooth="yes"/>
      <point x="483" y="-129"/>
      <point x="411" y="-181"/>
      <point x="251" y="-181" type="curve" smooth="yes"/>
      <point x="173" y="-181" type="line"/>
      <point x="170" y="-200" type="line"/>
      <point x="253" y="-200" type="line" smooth="yes"/>
      <point x="454" y="-200"/>
      <point x="530" y="-113"/>
      <point x="530" y="44" type="curve" smooth="yes"/>
      <point x="530" y="153"/>
      <point x="432" y="208"/>
      <point x="298" y="208" type="curve"/>
      <point x="571" y="496" type="line"/>
      <point x="574" y="516" type="line"/>
      <point x="206" y="516" type="line"/>
      <point x="240" y="721" type="line"/>
      <point x="465" y="721" type="line"/>
      <point x="468" y="740" type="line"/>
      <point x="249" y="740" type="line" smooth="yes"/>
      <point x="229" y="740"/>
      <point x="220" y="732"/>
      <point x="217" y="711" type="curve" smooth="yes"/>
      <point x="99" y="0" type="line"/>
    </contour>
  </outline>
</glyph>
<glyph name="ae" format="1">
  <advance width="600"/>
  <unicode hex="00E6"/>
  <outline>
    <contour>
      <point x="114" y="-12" type="curve" smooth="yes" name="hr00"/>
      <point x="204" y="-12"/>
      <point x="253" y="44"/>
      <point x="277" y="117" type="curve"/>
      <point x="280" y="117" type="line"/>
      <point x="285" y="30"/>
      <point x="326" y="-12"/>
      <point x="390" y="-12" type="curve" smooth="yes"/>
      <point x="467" y="-12"/>
      <point x="515" y="44"/>
      <point x="548" y="115" type="curve"/>
      <point x="530" y="123" type="line"/>
      <point x="497" y="51"/>
      <point x="453" y="7"/>
      <point x="390" y="7" type="curve" smooth="yes"/>
      <point x="334" y="7"/>
      <point x="297" y="50"/>
      <point x="297" y="152" type="curve" smooth="yes"/>
      <point x="297" y="176"/>
      <point x="300" y="204"/>
      <point x="306" y="237" type="curve" smooth="yes"/>
      <point x="308" y="248" type="line"/>
      <point x="505" y="253"/>
      <point x="589" y="311"/>
      <point x="589" y="426" type="curve" smooth="yes"/>
      <point x="589" y="483"/>
      <point x="553" y="528"/>
      <point x="490" y="528" type="curve" smooth="yes"/>
      <point x="427" y="528"/>
      <point x="368" y="490"/>
      <point x="332" y="404" type="curve"/>
      <point x="329" y="404" type="line"/>
      <point x="332" y="486"/>
      <point x="290" y="528"/>
      <point x="215" y="528" type="curve" smooth="yes"/>
      <point x="143" y="528"/>
      <point x="94" y="483"/>
      <point x="64" y="429" type="curve"/>
      <point x="81" y="421" type="line"/>
      <point x="114" y="473"/>
      <point x="149" y="509"/>
      <point x="215" y="509" type="curve" smooth="yes"/>
      <point x="272" y="509"/>
      <point x="311" y="484"/>
      <point x="311" y="404" type="curve" smooth="yes"/>
      <point x="311" y="392"/>
      <point x="310" y="379"/>
      <point x="307" y="363" type="curve" smooth="yes"/>
      <point x="290" y="266" type="line"/>
      <point x="212" y="262" type="line" smooth="yes"/>
      <point x="68" y="255"/>
      <point x="4" y="199"/>
      <point x="4" y="91" type="curve" smooth="yes"/>
      <point x="4" y="28"/>
      <point x="42" y="-12"/>
    </contour>
    <contour>
      <point x="116" y="7" type="curve" smooth="yes"/>
      <point x="53" y="7"/>
      <point x="25" y="39"/>
      <point x="25" y="91" type="curve" smooth="yes"/>
      <point x="25" y="98"/>
      <point x="25" y="108"/>
      <point x="29" y="128" type="curve" smooth="yes"/>
      <point x="45" y="214"/>
      <point x="106" y="238"/>
      <point x="214" y="244" type="curve" smooth="yes"/>
      <point x="288" y="248" type="line"/>
      <point x="274" y="164" type="line" smooth="yes"/>
      <point x="260" y="79"/>
      <point x="209" y="7"/>
    </contour>
    <contour>
      <point x="486" y="509" type="curve" smooth="yes"/>
      <point x="536" y="509"/>
      <point x="568" y="478"/>
      <point x="568" y="425" type="curve" smooth="yes"/>
      <point x="568" y="313"/>
      <point x="483" y="269"/>
      <point x="311" y="266" type="curve"/>
      <point x="313" y="282" type="line" smooth="yes"/>
      <point x="331" y="427"/>
      <point x="405" y="509"/>
    </contour>
    <contour>
      <point x="365" y="516" type="move" name="top"/>
    </contour>
  </outline>
</glyph>
<glyph name="ccedilla" format="1">
  <advance width="600"/>
  <unicode hex="00E7"/>
  <outline>
    <contour>
      <point x="335" y="528" type="curve" smooth="yes" name="hr00"/>
      <point x="188" y="528"/>
      <point x="83" y="409"/>
      <point x="83" y="201" type="curve" smooth="yes"/>
      <point x="83" y="86"/>
      <point x="135" y="2"/>
      <point x="238" y="-10" type="curve"/>
      <point x="208" y="-84" type="line"/>
      <point x="246" y="-86" type="line" smooth="yes"/>
      <point x="285" y="-88"/>
      <point x="299" y="-104"/>
      <point x="299" y="-127" type="curve" smooth="yes"/>
      <point x="299" y="-160"/>
      <point x="271" y="-184"/>
      <point x="228" y="-184" type="curve" smooth="yes"/>
      <point x="200" y="-184"/>
      <point x="179" y="-174"/>
      <point x="166" y="-157" type="curve"/>
      <point x="152" y="-170" type="line"/>
      <point x="164" y="-187"/>
      <point x="191" y="-202"/>
      <point x="228" y="-202" type="curve" smooth="yes"/>
      <point x="285" y="-202"/>
      <point x="320" y="-167"/>
      <point x="320" y="-126" type="curve" smooth="yes"/>
      <point x="320" y="-93"/>
      <point x="298" y="-72"/>
      <point x="261" y="-72" type="curve" smooth="yes"/>
      <point x="253" y="-72"/>
      <point x="241" y="-73"/>
      <point x="232" y="-75" type="curve"/>
      <point x="230" y="-73" type="line"/>
      <point x="256" y="-12" type="line"/>
      <point x="259" y="-12"/>
      <point x="262" y="-12"/>
      <point x="265" y="-12" type="curve" smooth="yes"/>
      <point x="361" y="-12"/>
      <point x="426" y="49"/>
      <point x="481" y="139" type="curve"/>
      <point x="463" y="147" type="line"/>
      <point x="410" y="62"/>
      <point x="351" y="7"/>
      <point x="264" y="7" type="curve" smooth="yes"/>
      <point x="152" y="7"/>
      <point x="103" y="94"/>
      <point x="103" y="201" type="curve" smooth="yes"/>
      <point x="103" y="221"/>
      <point x="104" y="233"/>
      <point x="107" y="253" type="curve" smooth="yes"/>
      <point x="115" y="302" type="line" smooth="yes"/>
      <point x="136" y="429"/>
      <point x="220" y="509"/>
      <point x="334" y="509" type="curve" smooth="yes"/>
      <point x="404" y="509"/>
      <point x="458" y="473"/>
      <point x="475" y="408" type="curve"/>
      <point x="494" y="413" type="line"/>
      <point x="478" y="481"/>
      <point x="417" y="528"/>
    </contour>
  </outline>
</glyph>
<glyph name="eth" format="1">
  <advance width="600"/>
  <unicode hex="00F0"/>
  <outline>
    <contour>
      <point x="505" y="731" type="line" name="hr00"/>
      <point x="495" y="745" type="line"/>
      <point x="377" y="670" type="line"/>
      <point x="350" y="698"/>
      <point x="323" y="721"/>
      <point x="299" y="740" type="curve"/>
      <point x="266" y="740" type="line"/>
      <point x="299" y="717"/>
      <point x="332" y="690"/>
      <point x="361" y="660" type="curve"/>
      <point x="249" y="589" type="line"/>
      <point x="259" y="575" type="line"/>
      <point x="372" y="647" type="line"/>
      <point x="427" y="585"/>
      <point x="470" y="508"/>
      <point x="485" y="421" type="curve"/>
      <point x="482" y="419" type="line"/>
      <point x="454" y="476"/>
      <point x="397" y="508"/>
      <point x="327" y="508" type="curve" smooth="yes"/>
      <point x="183" y="508"/>
      <point x="78" y="379"/>
      <point x="78" y="180" type="curve" smooth="yes"/>
      <point x="78" y="62"/>
      <point x="147" y="-12"/>
      <point x="257" y="-12" type="curve" smooth="yes"/>
      <point x="403" y="-12"/>
      <point x="512" y="106"/>
      <point x="512" y="330" type="curve" smooth="yes"/>
      <point x="512" y="480"/>
      <point x="453" y="585"/>
      <point x="389" y="657" type="curve"/>
    </contour>
    <contour>
      <point x="258" y="7" type="curve" smooth="yes"/>
      <point x="162" y="7"/>
      <point x="98" y="72"/>
      <point x="98" y="180" type="curve" smooth="yes"/>
      <point x="98" y="197"/>
      <point x="99" y="217"/>
      <point x="102" y="237" type="curve" smooth="yes"/>
      <point x="110" y="281" type="line" smooth="yes"/>
      <point x="134" y="412"/>
      <point x="221" y="489"/>
      <point x="330" y="489" type="curve" smooth="yes"/>
      <point x="426" y="489"/>
      <point x="490" y="424"/>
      <point x="490" y="316" type="curve" smooth="yes"/>
      <point x="490" y="299"/>
      <point x="489" y="279"/>
      <point x="486" y="259" type="curve" smooth="yes"/>
      <point x="478" y="215" type="line" smooth="yes"/>
      <point x="454" y="84"/>
      <point x="369" y="7"/>
    </contour>
  </outline>
</glyph>
<glyph name="divide" format="1">
  <advance width="600"/>
  <unicode hex="00F7"/>
  <outline>
    <contour>
      <point x="545" y="296" type="line"/>
      <point x="548" y="315" type="line"/>
      <point x="71" y="315" type="line"/>
      <point x="68" y="296" type="line"/>
    </contour>
    <contour>
      <point x="270" y="81" type="curve" smooth="yes"/>
      <point x="291" y="81"/>
      <point x="304" y="91"/>
      <point x="307" y="107" type="curve" smooth="yes"/>
      <point x="308" y="113"/>
      <point x="309" y="117"/>
      <point x="309" y="121" type="curve" smooth="yes" name="hr01"/>
      <point x="309" y="135"/>
      <point x="300" y="143"/>
      <point x="280" y="143" type="curve" smooth="yes"/>
      <point x="259" y="143"/>
      <point x="246" y="133"/>
      <point x="243" y="117" type="curve" smooth="yes"/>
      <point x="242" y="111"/>
      <point x="241" y="107"/>
      <point x="241" y="103" type="curve" smooth="yes"/>
      <point x="241" y="89"/>
      <point x="250" y="81"/>
    </contour>
    <contour>
      <point x="335" y="468" type="curve" smooth="yes"/>
      <point x="356" y="468"/>
      <point x="369" y="478"/>
      <point x="372" y="494" type="curve" smooth="yes"/>
      <point x="373" y="500"/>
      <point x="374" y="504"/>
      <point x="374" y="508" type="curve" smooth="yes" name="hr02"/>
      <point x="374" y="522"/>
      <point x="365" y="530"/>
      <point x="345" y="530" type="curve" smooth="yes"/>
      <point x="324" y="530"/>
      <point x="311" y="520"/>
      <point x="308" y="504" type="curve" smooth="yes"/>
      <point x="307" y="498"/>
      <point x="306" y="494"/>
      <point x="306" y="490" type="curve" smooth="yes"/>
      <point x="306" y="476"/>
      <point x="315" y="468"/>
    </contour>
  </outline>
</glyph>
<glyph name="oslash" format="1">
  <advance width="600"/>
  <unicode hex="00F8"/>
  <outline>
    <contour>
      <point x="46" y="-26" type="line" name="hr00"/>
      <point x="121" y="54" type="line"/>
      <point x="152" y="14"/>
      <point x="200" y="-12"/>
      <point x="266" y="-12" type="curve" smooth="yes"/>
      <point x="420" y="-12"/>
      <point x="518" y="118"/>
      <point x="518" y="335" type="curve" smooth="yes"/>
      <point x="518" y="378"/>
      <point x="507" y="416"/>
      <point x="489" y="447" type="curve"/>
      <point x="567" y="530" type="line"/>
      <point x="554" y="542" type="line"/>
      <point x="479" y="462" type="line"/>
      <point x="448" y="502"/>
      <point x="400" y="528"/>
      <point x="334" y="528" type="curve" smooth="yes"/>
      <point x="180" y="528"/>
      <point x="82" y="398"/>
      <point x="82" y="181" type="curve" smooth="yes"/>
      <point x="82" y="138"/>
      <point x="93" y="100"/>
      <point x="111" y="69" type="curve"/>
      <point x="33" y="-14" type="line"/>
    </contour>
    <contour>
      <point x="332" y="509" type="curve" smooth="yes"/>
      <point x="396" y="509"/>
      <point x="440" y="486"/>
      <point x="466" y="448" type="curve"/>
      <point x="124" y="83" type="line"/>
      <point x="109" y="112"/>
      <point x="102" y="146"/>
      <point x="102" y="183" type="curve" smooth="yes"/>
      <point x="102" y="208"/>
      <point x="103" y="218"/>
      <point x="106" y="237" type="curve" smooth="yes"/>
      <point x="114" y="286" type="line" smooth="yes"/>
      <point x="137" y="425"/>
      <point x="213" y="509"/>
    </contour>
    <contour>
      <point x="268" y="7" type="curve" smooth="yes"/>
      <point x="204" y="7"/>
      <point x="160" y="30"/>
      <point x="134" y="68" type="curve"/>
      <point x="476" y="433" type="line"/>
      <point x="491" y="404"/>
      <point x="498" y="370"/>
      <point x="498" y="333" type="curve" smooth="yes"/>
      <point x="498" y="308"/>
      <point x="497" y="298"/>
      <point x="494" y="279" type="curve" smooth="yes"/>
      <point x="486" y="230" type="line" smooth="yes"/>
      <point x="463" y="91"/>
      <point x="387" y="7"/>
    </contour>
    <contour>
      <point x="333" y="516" type="move" name="top"/>
    </contour>
  </outline>
</glyph>
<glyph name="thorn" format="1">
  <advance width="600"/>
  <unicode hex="00FE"/>
  <outline>
    <contour>
      <point x="47" y="-200" type="line" name="hr00"/>
      <point x="68" y="-200" type="line"/>
      <point x="116" y="93" type="line"/>
      <point x="119" y="93" type="line"/>
      <point x="139" y="32"/>
      <point x="195" y="-12"/>
      <point x="286" y="-12" type="curve" smooth="yes"/>
      <point x="432" y="-12"/>
      <point x="528" y="132"/>
      <point x="528" y="330" type="curve" smooth="yes"/>
      <point x="528" y="444"/>
      <point x="469" y="528"/>
      <point x="355" y="528" type="curve" smooth="yes"/>
      <point x="264" y="528"/>
      <point x="210" y="476"/>
      <point x="171" y="401" type="curve"/>
      <point x="168" y="401" type="line"/>
      <point x="224" y="740" type="line"/>
      <point x="203" y="740" type="line"/>
    </contour>
    <contour>
      <point x="286" y="7" type="curve" smooth="yes"/>
      <point x="158" y="7"/>
      <point x="117" y="92"/>
      <point x="128" y="161" type="curve" smooth="yes"/>
      <point x="153" y="312" type="line" smooth="yes"/>
      <point x="164" y="378"/>
      <point x="202" y="433"/>
      <point x="241" y="468" type="curve" smooth="yes"/>
      <point x="274" y="497"/>
      <point x="311" y="509"/>
      <point x="355" y="509" type="curve" smooth="yes"/>
      <point x="464" y="509"/>
      <point x="508" y="427"/>
      <point x="508" y="330" type="curve" smooth="yes"/>
      <point x="508" y="313"/>
      <point x="507" y="296"/>
      <point x="504" y="279" type="curve" smooth="yes"/>
      <point x="496" y="230" type="line" smooth="yes"/>
      <point x="475" y="104"/>
      <point x="400" y="7"/>
    </contour>
  </outline>
</glyph>
<glyph name="Aogonek" format="1">
  <advance width="600"/>
  <unicode hex="0104"/>
  <outline>
    <contour>
      <point x="9" y="0" type="line" name="hr00"/>
      <point x="33" y="0" type="line"/>
      <point x="150" y="234" type="line"/>
      <point x="444" y="234" type="line"/>
      <point x="483" y="1" type="line"/>
      <point x="363" y="-58"/>
      <point x="340" y="-100"/>
      <point x="340" y="-137" type="curve" smooth="yes"/>
      <point x="340" y="-182"/>
      <point x="373" y="-202"/>
      <point x="414" y="-202" type="curve" smooth="yes"/>
      <point x="448" y="-202"/>
      <point x="476" y="-188"/>
      <point x="491" y="-170" type="curve"/>
      <point x="478" y="-159" type="line"/>
      <point x="466" y="-171"/>
      <point x="446" y="-184"/>
      <point x="414" y="-184" type="curve" smooth="yes"/>
      <point x="385" y="-184"/>
      <point x="361" y="-169"/>
      <point x="361" y="-137" type="curve" smooth="yes"/>
      <point x="361" y="-86"/>
      <point x="404" y="-58"/>
      <point x="505" y="0" type="curve"/>
      <point x="388" y="698" type="line"/>
      <point x="358" y="698" type="line"/>
    </contour>
    <contour>
      <point x="441" y="253" type="line"/>
      <point x="159" y="253" type="line"/>
      <point x="368" y="673" type="line"/>
      <point x="371" y="673" type="line"/>
    </contour>
  </outline>
</glyph>
<glyph name="aogonek" format="1">
  <advance width="600"/>
  <unicode hex="0105"/>
  <outline>
    <contour>
      <point x="426" y="-202" type="curve" smooth="yes"/>
      <point x="460" y="-202"/>
      <point x="488" y="-188"/>
      <point x="503" y="-170" type="curve"/>
      <point x="490" y="-159" type="line"/>
      <point x="478" y="-171"/>
      <point x="458" y="-184"/>
      <point x="426" y="-184" type="curve" smooth="yes"/>
      <point x="397" y="-184"/>
      <point x="373" y="-169"/>
      <point x="373" y="-137" type="curve" smooth="yes"/>
      <point x="373" y="-86"/>
      <point x="416" y="-58"/>
      <point x="517" y="0" type="curve"/>
      <point x="521" y="19" type="line" name="hr01"/>
      <point x="436" y="19" type="line"/>
      <point x="519" y="516" type="line"/>
      <point x="498" y="516" type="line"/>
      <point x="483" y="423" type="line"/>
      <point x="480" y="423" type="line"/>
      <point x="460" y="484"/>
      <point x="404" y="528"/>
      <point x="313" y="528" type="curve" smooth="yes"/>
      <point x="167" y="528"/>
      <point x="71" y="384"/>
      <point x="71" y="186" type="curve" smooth="yes"/>
      <point x="71" y="72"/>
      <point x="130" y="-12"/>
      <point x="244" y="-12" type="curve" smooth="yes" name="hr02"/>
      <point x="335" y="-12"/>
      <point x="389" y="40"/>
      <point x="428" y="115" type="curve" name="hr03"/>
      <point x="431" y="115" type="line"/>
      <point x="417" y="30" type="line" smooth="yes"/>
      <point x="414" y="10"/>
      <point x="420" y="0"/>
      <point x="440" y="0" type="curve" smooth="yes"/>
      <point x="492" y="0" type="line"/>
      <point x="374" y="-60"/>
      <point x="352" y="-100"/>
      <point x="352" y="-137" type="curve" smooth="yes"/>
      <point x="352" y="-182"/>
      <point x="385" y="-202"/>
    </contour>
    <contour>
      <point x="244" y="7" type="curve" smooth="yes" name="hr04"/>
      <point x="135" y="7"/>
      <point x="91" y="89"/>
      <point x="91" y="186" type="curve" smooth="yes"/>
      <point x="91" y="203"/>
      <point x="92" y="220"/>
      <point x="95" y="237" type="curve" smooth="yes"/>
      <point x="103" y="286" type="line" smooth="yes"/>
      <point x="124" y="412"/>
      <point x="199" y="509"/>
      <point x="313" y="509" type="curve" smooth="yes" name="hr05"/>
      <point x="441" y="509"/>
      <point x="482" y="424"/>
      <point x="471" y="355" type="curve" smooth="yes" name="hr06"/>
      <point x="446" y="204" type="line" smooth="yes"/>
      <point x="435" y="138"/>
      <point x="397" y="83"/>
      <point x="358" y="48" type="curve" smooth="yes"/>
      <point x="325" y="19"/>
      <point x="288" y="7"/>
    </contour>
    <contour>
      <point x="321.0" y="516.0" type="move" name="top"/>
    </contour>
  </outline>
</glyph>
<glyph name="Eogonek" format="1">
  <advance width="600"/>
  <unicode hex="0118"/>
  <outline>
    <contour>
      <point x="65" y="0" type="line" name="hr00"/>
      <point x="442" y="0" type="line"/>
      <point x="443" y="-2" type="line"/>
      <point x="329" y="-58"/>
      <point x="306" y="-100"/>
      <point x="306" y="-137" type="curve" smooth="yes"/>
      <point x="306" y="-182"/>
      <point x="339" y="-202"/>
      <point x="380" y="-202" type="curve" smooth="yes"/>
      <point x="414" y="-202"/>
      <point x="442" y="-188"/>
      <point x="457" y="-170" type="curve"/>
      <point x="444" y="-159" type="line"/>
      <point x="432" y="-171"/>
      <point x="412" y="-184"/>
      <point x="380" y="-184" type="curve" smooth="yes"/>
      <point x="351" y="-184"/>
      <point x="327" y="-169"/>
      <point x="327" y="-137" type="curve" smooth="yes"/>
      <point x="327" y="-86"/>
      <point x="370" y="-58"/>
      <point x="471" y="0" type="curve"/>
      <point x="474" y="20" type="line"/>
      <point x="90" y="20" type="line"/>
      <point x="144" y="344" type="line"/>
      <point x="514" y="344" type="line"/>
      <point x="518" y="364" type="line"/>
      <point x="148" y="364" type="line"/>
      <point x="200" y="678" type="line"/>
      <point x="584" y="678" type="line"/>
      <point x="587" y="698" type="line"/>
      <point x="181" y="698" type="line"/>
    </contour>
  </outline>
</glyph>
<glyph name="eogonek" format="1">
  <advance width="600"/>
  <unicode hex="0119"/>
  <outline>
    <contour>
      <point x="302" y="-202" type="curve" smooth="yes" name="hr00"/>
      <point x="334" y="-202"/>
      <point x="360" y="-188"/>
      <point x="375" y="-170" type="curve"/>
      <point x="362" y="-159" type="line"/>
      <point x="350" y="-171"/>
      <point x="332" y="-184"/>
      <point x="302" y="-184" type="curve" smooth="yes"/>
      <point x="268" y="-184"/>
      <point x="245" y="-170"/>
      <point x="245" y="-136" type="curve" smooth="yes"/>
      <point x="245" y="-79"/>
      <point x="285" y="-45"/>
      <point x="381" y="16" type="curve" smooth="yes"/>
      <point x="422" y="42"/>
      <point x="457" y="82"/>
      <point x="488" y="141" type="curve"/>
      <point x="470" y="150" type="line"/>
      <point x="426" y="61"/>
      <point x="362" y="7"/>
      <point x="273" y="7" type="curve" smooth="yes"/>
      <point x="149" y="7"/>
      <point x="103" y="95"/>
      <point x="103" y="205" type="curve" smooth="yes"/>
      <point x="103" y="206"/>
      <point x="103" y="220"/>
      <point x="104" y="231" type="curve"/>
      <point x="461" y="238"/>
      <point x="505" y="338"/>
      <point x="505" y="405" type="curve" smooth="yes"/>
      <point x="505" y="481"/>
      <point x="444" y="528"/>
      <point x="343" y="528" type="curve" smooth="yes"/>
      <point x="189" y="528"/>
      <point x="83" y="382"/>
      <point x="83" y="212" type="curve" smooth="yes"/>
      <point x="83" y="66"/>
      <point x="149" y="-12"/>
      <point x="273" y="-12" type="curve" smooth="yes"/>
      <point x="292" y="-12"/>
      <point x="311" y="-9"/>
      <point x="329" y="-3" type="curve"/>
      <point x="330" y="-5" type="line"/>
      <point x="237" y="-57"/>
      <point x="224" y="-103"/>
      <point x="224" y="-138" type="curve" smooth="yes"/>
      <point x="224" y="-182"/>
      <point x="258" y="-202"/>
    </contour>
    <contour>
      <point x="341" y="509" type="curve" smooth="yes"/>
      <point x="443" y="509"/>
      <point x="483" y="464"/>
      <point x="483" y="405" type="curve" smooth="yes"/>
      <point x="483" y="332"/>
      <point x="422" y="255"/>
      <point x="106" y="250" type="curve"/>
      <point x="111" y="281" type="line" smooth="yes"/>
      <point x="134" y="425"/>
      <point x="233" y="509"/>
    </contour>
  </outline>
</glyph>
<glyph name="Hbar" format="1">
  <advance width="600"/>
  <unicode hex="0126"/>
  <outline>
    <contour>
      <point x="437" y="0" type="line" name="hr00"/>
      <point x="459" y="0" type="line"/>
      <point x="548" y="537" type="line"/>
      <point x="632" y="537" type="line"/>
      <point x="636" y="556" type="line"/>
      <point x="551" y="556" type="line"/>
      <point x="575" y="698" type="line"/>
      <point x="553" y="698" type="line"/>
      <point x="530" y="556" type="line"/>
      <point x="169" y="556" type="line"/>
      <point x="193" y="698" type="line"/>
      <point x="171" y="698" type="line"/>
      <point x="147" y="556" type="line"/>
      <point x="64" y="556" type="line"/>
      <point x="60" y="537" type="line"/>
      <point x="144" y="537" type="line"/>
      <point x="55" y="0" type="line"/>
      <point x="77" y="0" type="line"/>
      <point x="134" y="344" type="line"/>
      <point x="494" y="344" type="line"/>
    </contour>
    <contour>
      <point x="138" y="364" type="line"/>
      <point x="166" y="537" type="line"/>
      <point x="527" y="537" type="line"/>
      <point x="498" y="364" type="line"/>
    </contour>
  </outline>
</glyph>
<glyph name="Iogonek" format="1">
  <advance width="600"/>
  <unicode hex="012E"/>
  <outline>
    <contour>
      <point x="49" y="0" type="line" name="hr00"/>
      <point x="436" y="0" type="line"/>
      <point x="437" y="-2" type="line"/>
      <point x="323" y="-58"/>
      <point x="300" y="-100"/>
      <point x="300" y="-137" type="curve" smooth="yes"/>
      <point x="300" y="-182"/>
      <point x="333" y="-202"/>
      <point x="374" y="-202" type="curve" smooth="yes"/>
      <point x="408" y="-202"/>
      <point x="436" y="-188"/>
      <point x="451" y="-170" type="curve"/>
      <point x="438" y="-159" type="line"/>
      <point x="426" y="-171"/>
      <point x="406" y="-184"/>
      <point x="374" y="-184" type="curve" smooth="yes"/>
      <point x="345" y="-184"/>
      <point x="321" y="-169"/>
      <point x="321" y="-137" type="curve" smooth="yes"/>
      <point x="321" y="-86"/>
      <point x="364" y="-58"/>
      <point x="465" y="0" type="curve"/>
      <point x="468" y="19" type="line"/>
      <point x="271" y="19" type="line"/>
      <point x="381" y="679" type="line"/>
      <point x="578" y="679" type="line"/>
      <point x="581" y="698" type="line"/>
      <point x="165" y="698" type="line"/>
      <point x="162" y="679" type="line"/>
      <point x="359" y="679" type="line"/>
      <point x="249" y="19" type="line"/>
      <point x="52" y="19" type="line"/>
    </contour>
  </outline>
</glyph>
<glyph name="iogonek" format="1">
  <advance width="600"/>
  <unicode hex="012F"/>
  <outline>
    <contour>
      <point x="178" y="-202" type="curve" smooth="yes" name="hr00"/>
      <point x="212" y="-202"/>
      <point x="240" y="-188"/>
      <point x="255" y="-170" type="curve"/>
      <point x="242" y="-159" type="line"/>
      <point x="230" y="-171"/>
      <point x="210" y="-184"/>
      <point x="178" y="-184" type="curve" smooth="yes"/>
      <point x="149" y="-184"/>
      <point x="125" y="-167"/>
      <point x="125" y="-134" type="curve" smooth="yes"/>
      <point x="125" y="-81"/>
      <point x="165" y="-56"/>
      <point x="256" y="5" type="curve" smooth="yes"/>
      <point x="507" y="174" type="line"/>
      <point x="496" y="189" type="line"/>
      <point x="231" y="10" type="line"/>
      <point x="226" y="13" type="line"/>
      <point x="324" y="516" type="line"/>
      <point x="94" y="516" type="line"/>
      <point x="91" y="497" type="line"/>
      <point x="299" y="497" type="line"/>
      <point x="211" y="42" type="line" smooth="yes"/>
      <point x="205" y="13"/>
      <point x="205" y="9"/>
      <point x="205" y="4" type="curve" smooth="yes"/>
      <point x="205" y="-2"/>
      <point x="209" y="-8"/>
      <point x="216" y="-8" type="curve"/>
      <point x="217" y="-8" type="line"/>
      <point x="129" y="-57"/>
      <point x="104" y="-93"/>
      <point x="104" y="-134" type="curve" smooth="yes"/>
      <point x="104" y="-180"/>
      <point x="137" y="-202"/>
    </contour>
    <contour>
      <point x="350" y="691" type="curve" smooth="yes"/>
      <point x="368" y="691"/>
      <point x="377" y="699"/>
      <point x="380" y="713" type="curve" smooth="yes"/>
      <point x="381" y="719"/>
      <point x="382" y="723"/>
      <point x="382" y="727" type="curve" smooth="yes"/>
      <point x="382" y="736"/>
      <point x="376" y="745"/>
      <point x="356" y="745" type="curve" smooth="yes"/>
      <point x="338" y="745"/>
      <point x="329" y="737"/>
      <point x="326" y="723" type="curve" smooth="yes"/>
      <point x="325" y="717"/>
      <point x="324" y="713"/>
      <point x="324" y="709" type="curve" smooth="yes"/>
      <point x="324" y="700"/>
      <point x="330" y="691"/>
    </contour>
  </outline>
</glyph>
<glyph name="dotlessi" format="1">
  <advance width="600"/>
  <unicode hex="0131"/>
  <outline>
    <contour>
      <point x="223" y="-12" type="curve" smooth="yes" name="hr00"/>
      <point x="235" y="-12"/>
      <point x="247" y="-2"/>
      <point x="264" y="9" type="curve" smooth="yes"/>
      <point x="507" y="174" type="line"/>
      <point x="496" y="189" type="line"/>
      <point x="231" y="10" type="line"/>
      <point x="226" y="13" type="line"/>
      <point x="324" y="516" type="line"/>
      <point x="94" y="516" type="line"/>
      <point x="91" y="497" type="line"/>
      <point x="299" y="497" type="line"/>
      <point x="211" y="42" type="line" smooth="yes"/>
      <point x="206" y="17"/>
      <point x="205" y="11"/>
      <point x="205" y="7" type="curve" smooth="yes"/>
      <point x="205" y="-4"/>
      <point x="211" y="-12"/>
    </contour>
    <contour>
      <point x="222" y="0" type="move" name="bottom"/>
    </contour>
    <contour>
      <point x="250" y="0" type="move" name="bottomright"/>
    </contour>
    <contour>
      <point x="313" y="516" type="move" name="top"/>
    </contour>
  </outline>
</glyph>
<glyph name="IJ" format="1">
  <advance width="600"/>
  <unicode hex="0132"/>
  <outline>
    <contour>
      <point x="535" y="698" type="line" name="hr00"/>
      <point x="450" y="188" type="line" smooth="yes"/>
      <point x="430" y="69"/>
      <point x="365" y="8"/>
      <point x="260" y="8" type="curve" smooth="yes"/>
      <point x="165" y="8"/>
      <point x="124" y="57"/>
      <point x="115" y="132" type="curve"/>
      <point x="94" y="128" type="line"/>
      <point x="103" y="42"/>
      <point x="157" y="-12"/>
      <point x="259" y="-12" type="curve" smooth="yes"/>
      <point x="375" y="-12"/>
      <point x="450" y="56"/>
      <point x="472" y="189" type="curve" smooth="yes"/>
      <point x="557" y="698" type="line"/>
    </contour>
    <contour>
      <point x="118" y="271" type="line"/>
      <point x="140" y="271" type="line"/>
      <point x="211" y="698" type="line"/>
      <point x="189" y="698" type="line"/>
    </contour>
  </outline>
</glyph>
<glyph name="ij" format="1">
  <advance width="600"/>
  <unicode hex="0133"/>
  <outline>
    <contour>
      <point x="89" y="0" type="line" name="hr00"/>
      <point x="110" y="0" type="line"/>
      <point x="196" y="516" type="line"/>
      <point x="175" y="516" type="line"/>
    </contour>
    <contour>
      <point x="370" y="-212" type="curve" smooth="yes"/>
      <point x="386" y="-212"/>
      <point x="392" y="-201"/>
      <point x="396" y="-178" type="curve" smooth="yes"/>
      <point x="511" y="516" type="line"/>
      <point x="490" y="516" type="line"/>
      <point x="373" y="-190" type="line"/>
      <point x="367" y="-192" type="line"/>
      <point x="208" y="-51" type="line"/>
      <point x="195" y="-65" type="line"/>
      <point x="339" y="-195" type="line" smooth="yes"/>
      <point x="352" y="-206"/>
      <point x="360" y="-212"/>
    </contour>
    <contour>
      <point x="216" y="691" type="curve" smooth="yes"/>
      <point x="234" y="691"/>
      <point x="243" y="699"/>
      <point x="246" y="713" type="curve" smooth="yes"/>
      <point x="247" y="719"/>
      <point x="248" y="723"/>
      <point x="248" y="727" type="curve" smooth="yes"/>
      <point x="248" y="736"/>
      <point x="242" y="745"/>
      <point x="222" y="745" type="curve" smooth="yes"/>
      <point x="204" y="745"/>
      <point x="195" y="737"/>
      <point x="192" y="723" type="curve" smooth="yes"/>
      <point x="191" y="717"/>
      <point x="190" y="713"/>
      <point x="190" y="709" type="curve" smooth="yes"/>
      <point x="190" y="700"/>
      <point x="196" y="691"/>
    </contour>
    <contour>
      <point x="531" y="691" type="curve" smooth="yes"/>
      <point x="549" y="691"/>
      <point x="558" y="699"/>
      <point x="561" y="713" type="curve" smooth="yes"/>
      <point x="562" y="719"/>
      <point x="563" y="723"/>
      <point x="563" y="727" type="curve" smooth="yes"/>
      <point x="563" y="736"/>
      <point x="557" y="745"/>
      <point x="537" y="745" type="curve" smooth="yes"/>
      <point x="519" y="745"/>
      <point x="510" y="737"/>
      <point x="507" y="723" type="curve" smooth="yes"/>
      <point x="506" y="717"/>
      <point x="505" y="713"/>
      <point x="505" y="709" type="curve" smooth="yes"/>
      <point x="505" y="700"/>
      <point x="511" y="691"/>
    </contour>
  </outline>
</glyph>
<glyph name="kgreenlandic" format="1">
  <advance width="600"/>
  <unicode hex="0138"/>
  <outline>
    <contour>
      <point x="493" y="0" type="line" name="hr00"/>
      <point x="518" y="0" type="line"/>
      <point x="306" y="305" type="line"/>
      <point x="576" y="516" type="line"/>
      <point x="545" y="516" type="line"/>
      <point x="291" y="317" type="line"/>
      <point x="155" y="210" type="line"/>
      <point x="152" y="210" type="line"/>
      <point x="203" y="516" type="line"/>
      <point x="182" y="516" type="line"/>
      <point x="96" y="0" type="line"/>
      <point x="117" y="0" type="line"/>
      <point x="147" y="181" type="line"/>
      <point x="290" y="292" type="line"/>
    </contour>
  </outline>
</glyph>
<glyph name="Lslash" format="1">
  <advance width="600"/>
  <unicode hex="0141"/>
  <outline>
    <contour>
      <point x="488" y="20" type="line" name="hr00"/>
      <point x="128" y="20" type="line"/>
      <point x="176" y="307" type="line"/>
      <point x="422" y="381" type="line"/>
      <point x="425" y="401" type="line"/>
      <point x="179" y="327" type="line"/>
      <point x="241" y="698" type="line"/>
      <point x="219" y="698" type="line"/>
      <point x="156" y="321" type="line"/>
      <point x="60" y="292" type="line"/>
      <point x="57" y="272" type="line"/>
      <point x="153" y="301" type="line"/>
      <point x="103" y="0" type="line"/>
      <point x="485" y="0" type="line"/>
    </contour>
  </outline>
</glyph>
<glyph name="lslash" format="1">
  <advance width="600"/>
  <unicode hex="0142"/>
  <outline>
    <contour>
      <point x="214" y="-12" type="curve" smooth="yes" name="hr00"/>
      <point x="226" y="-12"/>
      <point x="238" y="-3"/>
      <point x="255" y="9" type="curve" smooth="yes"/>
      <point x="498" y="174" type="line"/>
      <point x="487" y="189" type="line"/>
      <point x="222" y="10" type="line"/>
      <point x="217" y="13" type="line"/>
      <point x="278" y="327" type="line"/>
      <point x="456" y="382" type="line"/>
      <point x="459" y="402" type="line"/>
      <point x="282" y="348" type="line"/>
      <point x="358" y="740" type="line"/>
      <point x="128" y="740" type="line"/>
      <point x="125" y="721" type="line"/>
      <point x="333" y="721" type="line"/>
      <point x="259" y="342" type="line"/>
      <point x="91" y="290" type="line"/>
      <point x="88" y="270" type="line"/>
      <point x="255" y="321" type="line"/>
      <point x="201" y="42" type="line" smooth="yes"/>
      <point x="197" y="21"/>
      <point x="196" y="11"/>
      <point x="196" y="7" type="curve" smooth="yes"/>
      <point x="196" y="-4"/>
      <point x="202" y="-12"/>
    </contour>
  </outline>
</glyph>
<glyph name="Eng" format="1">
  <advance width="600"/>
  <unicode hex="014A"/>
  <outline>
    <contour>
      <point x="76" y="0" type="line" name="hr00"/>
      <point x="188" y="672" type="line"/>
      <point x="191" y="672" type="line"/>
      <point x="426" y="0" type="line"/>
      <point x="438" y="0" type="line"/>
      <point x="406" y="-190" type="line"/>
      <point x="400" y="-192" type="line"/>
      <point x="232" y="-47" type="line"/>
      <point x="218" y="-61" type="line"/>
      <point x="372" y="-195" type="line" smooth="yes"/>
      <point x="384" y="-206"/>
      <point x="393" y="-212"/>
      <point x="403" y="-212" type="curve" smooth="yes"/>
      <point x="419" y="-212"/>
      <point x="425" y="-201"/>
      <point x="429" y="-178" type="curve" smooth="yes"/>
      <point x="575" y="698" type="line"/>
      <point x="554" y="698" type="line"/>
      <point x="442" y="26" type="line"/>
      <point x="439" y="26" type="line"/>
      <point x="204" y="698" type="line"/>
      <point x="171" y="698" type="line"/>
      <point x="55" y="0" type="line"/>
    </contour>
  </outline>
</glyph>
<glyph name="eng" format="1">
  <advance width="600"/>
  <unicode hex="014B"/>
  <outline>
    <contour>
      <point x="382" y="-212" type="curve" smooth="yes"/>
      <point x="398" y="-212"/>
      <point x="404" y="-201"/>
      <point x="408" y="-178" type="curve" smooth="yes"/>
      <point x="493" y="330" type="line" smooth="yes"/>
      <point x="496" y="349"/>
      <point x="498" y="368"/>
      <point x="498" y="387" type="curve" smooth="yes"/>
      <point x="498" y="476"/>
      <point x="449" y="528"/>
      <point x="360" y="528" type="curve" smooth="yes"/>
      <point x="272" y="528"/>
      <point x="218" y="480"/>
      <point x="179" y="402" type="curve"/>
      <point x="176" y="402" type="line"/>
      <point x="195" y="516" type="line" name="hr01"/>
      <point x="174" y="516" type="line"/>
      <point x="88" y="0" type="line"/>
      <point x="109" y="0" type="line"/>
      <point x="161" y="312" type="line" smooth="yes"/>
      <point x="171" y="370"/>
      <point x="202" y="418"/>
      <point x="223" y="444" type="curve" smooth="yes"/>
      <point x="261" y="492"/>
      <point x="310" y="509"/>
      <point x="357" y="509" type="curve" smooth="yes" name="hr02"/>
      <point x="435" y="509"/>
      <point x="477" y="468"/>
      <point x="477" y="386" type="curve" smooth="yes"/>
      <point x="477" y="367"/>
      <point x="475" y="346"/>
      <point x="472" y="329" type="curve" smooth="yes"/>
      <point x="385" y="-190" type="line"/>
      <point x="379" y="-192" type="line"/>
      <point x="214" y="-46" type="line"/>
      <point x="201" y="-60" type="line"/>
      <point x="351" y="-195" type="line" smooth="yes"/>
      <point x="364" y="-207"/>
      <point x="372" y="-212"/>
    </contour>
  </outline>
</glyph>
<glyph name="OE" format="1">
  <advance width="600"/>
  <unicode hex="0152"/>
  <outline>
    <contour>
      <point x="508" y="0" type="line" name="hr00"/>
      <point x="511" y="20" type="line"/>
      <point x="310" y="20" type="line"/>
      <point x="364" y="344" type="line"/>
      <point x="551" y="344" type="line"/>
      <point x="554" y="364" type="line"/>
      <point x="367" y="364" type="line"/>
      <point x="420" y="678" type="line"/>
      <point x="621" y="678" type="line"/>
      <point x="624" y="698" type="line"/>
      <point x="380" y="698" type="line" smooth="yes"/>
      <point x="174" y="698"/>
      <point x="61" y="491"/>
      <point x="61" y="260" type="curve" smooth="yes"/>
      <point x="61" y="88"/>
      <point x="127" y="0"/>
      <point x="270" y="0" type="curve" smooth="yes"/>
    </contour>
    <contour>
      <point x="288" y="20" type="line"/>
      <point x="269" y="20" type="line" smooth="yes"/>
      <point x="140" y="20"/>
      <point x="82" y="95"/>
      <point x="82" y="260" type="curve" smooth="yes"/>
      <point x="82" y="280"/>
      <point x="83" y="303"/>
      <point x="87" y="327" type="curve" smooth="yes"/>
      <point x="97" y="390" type="line" smooth="yes"/>
      <point x="123" y="555"/>
      <point x="233" y="678"/>
      <point x="374" y="678" type="curve" smooth="yes"/>
      <point x="398" y="678" type="line"/>
    </contour>
  </outline>
</glyph>
<glyph name="oe" format="1">
  <advance width="600"/>
  <unicode hex="0153"/>
  <outline>
    <contour>
      <point x="396" y="-12" type="curve" smooth="yes" name="hr00"/>
      <point x="473" y="-12"/>
      <point x="521" y="44"/>
      <point x="554" y="115" type="curve"/>
      <point x="536" y="123" type="line"/>
      <point x="503" y="51"/>
      <point x="459" y="7"/>
      <point x="396" y="7" type="curve" smooth="yes"/>
      <point x="340" y="7"/>
      <point x="303" y="50"/>
      <point x="303" y="152" type="curve" smooth="yes"/>
      <point x="303" y="176"/>
      <point x="306" y="204"/>
      <point x="312" y="237" type="curve" smooth="yes"/>
      <point x="314" y="248" type="line"/>
      <point x="511" y="253"/>
      <point x="595" y="311"/>
      <point x="595" y="426" type="curve" smooth="yes"/>
      <point x="595" y="483"/>
      <point x="559" y="528"/>
      <point x="495" y="528" type="curve" smooth="yes"/>
      <point x="424" y="528"/>
      <point x="359" y="484"/>
      <point x="323" y="371" type="curve"/>
      <point x="320" y="371" type="line"/>
      <point x="321" y="473"/>
      <point x="278" y="528"/>
      <point x="215" y="528" type="curve" smooth="yes"/>
      <point x="100" y="528"/>
      <point x="24" y="373"/>
      <point x="24" y="155" type="curve" smooth="yes"/>
      <point x="24" y="38"/>
      <point x="66" y="-12"/>
      <point x="132" y="-12" type="curve" smooth="yes"/>
      <point x="195" y="-12"/>
      <point x="253" y="34"/>
      <point x="283" y="128" type="curve"/>
      <point x="286" y="128" type="line"/>
      <point x="289" y="35"/>
      <point x="333" y="-12"/>
    </contour>
    <contour>
      <point x="132" y="7" type="curve" smooth="yes"/>
      <point x="72" y="7"/>
      <point x="43" y="58"/>
      <point x="43" y="156" type="curve" smooth="yes"/>
      <point x="43" y="178"/>
      <point x="43" y="202"/>
      <point x="48" y="231" type="curve" smooth="yes"/>
      <point x="57" y="287" type="line" smooth="yes"/>
      <point x="82" y="442"/>
      <point x="144" y="509"/>
      <point x="214" y="509" type="curve" smooth="yes"/>
      <point x="274" y="509"/>
      <point x="303" y="458"/>
      <point x="303" y="360" type="curve" smooth="yes"/>
      <point x="303" y="338"/>
      <point x="303" y="314"/>
      <point x="298" y="285" type="curve" smooth="yes"/>
      <point x="289" y="229" type="line" smooth="yes"/>
      <point x="264" y="74"/>
      <point x="202" y="7"/>
    </contour>
    <contour>
      <point x="492" y="509" type="curve" smooth="yes"/>
      <point x="542" y="509"/>
      <point x="574" y="478"/>
      <point x="574" y="425" type="curve" smooth="yes"/>
      <point x="574" y="313"/>
      <point x="489" y="269"/>
      <point x="317" y="266" type="curve"/>
      <point x="319" y="282" type="line" smooth="yes"/>
      <point x="337" y="427"/>
      <point x="411" y="509"/>
    </contour>
  </outline>
</glyph>
<glyph name="Scedilla" format="1">
  <advance width="600"/>
  <unicode hex="015E"/>
  <outline>
    <contour>
      <point x="247" y="-202" type="curve" smooth="yes" name="hr00"/>
      <point x="304" y="-202"/>
      <point x="339" y="-167"/>
      <point x="339" y="-126" type="curve" smooth="yes"/>
      <point x="339" y="-93"/>
      <point x="317" y="-72"/>
      <point x="280" y="-72" type="curve" smooth="yes"/>
      <point x="272" y="-72"/>
      <point x="260" y="-73"/>
      <point x="251" y="-75" type="curve"/>
      <point x="249" y="-73" type="line"/>
      <point x="275" y="-12" type="line"/>
      <point x="414" y="-12"/>
      <point x="506" y="61"/>
      <point x="506" y="196" type="curve" smooth="yes"/>
      <point x="506" y="281"/>
      <point x="459" y="335"/>
      <point x="359" y="358" type="curve" smooth="yes"/>
      <point x="273" y="378" type="line" smooth="yes"/>
      <point x="183" y="399"/>
      <point x="144" y="441"/>
      <point x="144" y="519" type="curve" smooth="yes"/>
      <point x="144" y="632"/>
      <point x="222" y="690"/>
      <point x="344" y="690" type="curve" smooth="yes"/>
      <point x="454" y="690"/>
      <point x="509" y="666"/>
      <point x="547" y="601" type="curve"/>
      <point x="565" y="612" type="line"/>
      <point x="529" y="675"/>
      <point x="470" y="710"/>
      <point x="345" y="710" type="curve" smooth="yes"/>
      <point x="214" y="710"/>
      <point x="122" y="645"/>
      <point x="122" y="519" type="curve" smooth="yes"/>
      <point x="122" y="434"/>
      <point x="167" y="381"/>
      <point x="266" y="358" type="curve" smooth="yes"/>
      <point x="352" y="338" type="line" smooth="yes"/>
      <point x="444" y="317"/>
      <point x="483" y="274"/>
      <point x="483" y="196" type="curve" smooth="yes"/>
      <point x="483" y="76"/>
      <point x="405" y="8"/>
      <point x="275" y="8" type="curve" smooth="yes"/>
      <point x="153" y="8"/>
      <point x="96" y="48"/>
      <point x="54" y="114" type="curve"/>
      <point x="37" y="101" type="line"/>
      <point x="78" y="36"/>
      <point x="139" y="-8"/>
      <point x="257" y="-12" type="curve"/>
      <point x="227" y="-84" type="line"/>
      <point x="265" y="-86" type="line" smooth="yes"/>
      <point x="304" y="-88"/>
      <point x="318" y="-104"/>
      <point x="318" y="-127" type="curve" smooth="yes"/>
      <point x="318" y="-160"/>
      <point x="290" y="-184"/>
      <point x="247" y="-184" type="curve" smooth="yes"/>
      <point x="219" y="-184"/>
      <point x="198" y="-174"/>
      <point x="185" y="-157" type="curve"/>
      <point x="171" y="-170" type="line"/>
      <point x="183" y="-187"/>
      <point x="210" y="-202"/>
    </contour>
  </outline>
</glyph>
<glyph name="scedilla" format="1">
  <advance width="600"/>
  <unicode hex="015F"/>
  <outline>
    <contour>
      <point x="241" y="-202" type="curve" smooth="yes" name="hr00"/>
      <point x="298" y="-202"/>
      <point x="333" y="-167"/>
      <point x="333" y="-126" type="curve" smooth="yes"/>
      <point x="333" y="-93"/>
      <point x="311" y="-72"/>
      <point x="274" y="-72" type="curve" smooth="yes"/>
      <point x="266" y="-72"/>
      <point x="254" y="-73"/>
      <point x="245" y="-75" type="curve"/>
      <point x="243" y="-73" type="line"/>
      <point x="269" y="-12" type="line"/>
      <point x="275" y="-12"/>
      <point x="279" y="-12"/>
      <point x="285" y="-12" type="curve" smooth="yes"/>
      <point x="404" y="-12"/>
      <point x="499" y="41"/>
      <point x="499" y="154" type="curve" smooth="yes"/>
      <point x="499" y="236"/>
      <point x="440" y="266"/>
      <point x="358" y="273" type="curve" smooth="yes"/>
      <point x="280" y="280" type="line" smooth="yes"/>
      <point x="200" y="287"/>
      <point x="156" y="312"/>
      <point x="156" y="380" type="curve" smooth="yes"/>
      <point x="156" y="468"/>
      <point x="224" y="509"/>
      <point x="329" y="509" type="curve" smooth="yes"/>
      <point x="431" y="509"/>
      <point x="481" y="474"/>
      <point x="510" y="433" type="curve"/>
      <point x="526" y="447" type="line"/>
      <point x="494" y="489"/>
      <point x="438" y="528"/>
      <point x="330" y="528" type="curve" smooth="yes"/>
      <point x="224" y="528"/>
      <point x="135" y="486"/>
      <point x="135" y="380" type="curve" smooth="yes"/>
      <point x="135" y="298"/>
      <point x="193" y="268"/>
      <point x="275" y="261" type="curve" smooth="yes"/>
      <point x="353" y="254" type="line" smooth="yes"/>
      <point x="433" y="247"/>
      <point x="478" y="221"/>
      <point x="478" y="153" type="curve" smooth="yes"/>
      <point x="478" y="56"/>
      <point x="401" y="7"/>
      <point x="285" y="7" type="curve" smooth="yes"/>
      <point x="190" y="7"/>
      <point x="122" y="34"/>
      <point x="80" y="102" type="curve"/>
      <point x="63" y="90" type="line"/>
      <point x="103" y="28"/>
      <point x="165" y="-4"/>
      <point x="251" y="-11" type="curve"/>
      <point x="221" y="-84" type="line"/>
      <point x="259" y="-86" type="line" smooth="yes"/>
      <point x="298" y="-88"/>
      <point x="312" y="-104"/>
      <point x="312" y="-127" type="curve" smooth="yes"/>
      <point x="312" y="-160"/>
      <point x="284" y="-184"/>
      <point x="241" y="-184" type="curve" smooth="yes"/>
      <point x="213" y="-184"/>
      <point x="192" y="-174"/>
      <point x="179" y="-157" type="curve"/>
      <point x="165" y="-170" type="line"/>
      <point x="177" y="-187"/>
      <point x="204" y="-202"/>
    </contour>
  </outline>
</glyph>
